<?xml version="1.0" standalone="no"?>
<!DOCTYPE svg PUBLIC "-//W3C//DTD SVG 1.1//EN" "http://www.w3.org/Graphics/SVG/1.1/DTD/svg11.dtd" >
<svg xmlns="http://www.w3.org/2000/svg" xmlns:xlink="http://www.w3.org/1999/xlink" version="1.1">
<metadata></metadata>
<defs>
<font id="matchmakerregular" horiz-adv-x="2427" >
<font-face units-per-em="2048" ascent="1535" descent="-513" />
<missing-glyph horiz-adv-x="537" />
<glyph horiz-adv-x="0" />
<glyph unicode="&#xd;" horiz-adv-x="537" />
<glyph horiz-adv-x="0" />
<glyph horiz-adv-x="0" />
<glyph unicode=" "  horiz-adv-x="537" />
<glyph unicode="&#x09;" horiz-adv-x="537" />
<glyph unicode="&#xa0;" horiz-adv-x="537" />
<glyph unicode="&#x26;" horiz-adv-x="73" d="M-38 939q0 5 2.5 11t2.5 11l8 17q5 5 24.5 21.5t49.5 24.5q16 5 39.5 8t45.5 3q55 0 116 -8t116 -22q44 -8 87.5 -17.5t76.5 -9.5l8 8q8 8 19 13q19 11 33 0q5 -5 14.5 -10.5t20.5 -16.5h14q57 0 92.5 7t54.5 15q22 11 33 22l-3 -3q0 8 6 16q3 11 19 17q14 0 26 -7 t15 -23q16 -33 11 -58q-3 -11 -8 -21v2q-22 -57 -76.5 -79t-134.5 -22h-36.5t-39.5 3q-22 -30 -56 -82t-72 -136q-3 -8 -7 -19t-10 -20q-5 -11 -8 -13.5t-7 -6.5t-6.5 -13.5t-8.5 -31.5q38 55 80.5 93t78.5 24q5 -3 21.5 -13.5t27.5 -24.5h-3q5 -5 10.5 -19t-13.5 -44 q-5 -8 -20 -35.5t-28.5 -58.5t-20.5 -57t4 -29q11 -5 22 4.5t24 22.5v8q14 46 28 74v-3q46 120 107.5 156t99.5 22q22 -14 31.5 -33t12.5 -41v-27q0 -16 -7 -42t-23.5 -52t-49 -49.5t-84.5 -31.5q-5 -27 19 -35q5 0 5 -3t6 -8q35 3 65.5 19t43.5 38l3 3q3 5 7 9l7 7l21 36 l-2 -3q3 5 7 12t6 13q0 3 7 11t29 5q19 0 19 -19q0 -11 -3 -19l-8 -19l-19 -36q-5 -14 -27 -30q0 -16 -9 -25q-25 -25 -57.5 -48t-73.5 -25q-25 -5 -43 0q-35 3 -60 19t-39 35l-5 6q-22 -33 -47 -44q-25 -14 -54 -8q-14 3 -30 5q-38 19 -38 91q0 33 19 87.5t43 100.5 q-27 -33 -57 -74q-25 -38 -52 -88.5t-52 -121.5q-3 -11 -11 -12.5t-13 -1.5q-55 8 -66 44q0 46 12.5 101t25.5 93l17 54q0 3 2 6q11 46 25 68v-3q30 76 58.5 140.5t56.5 113.5q-3 0 -4.5 1.5t-3.5 1.5l-14 -16q-19 -16 -46.5 -57.5t-62.5 -136.5l-93 -221l-30 -88 q0 -14 -1.5 -31.5t-6.5 -22.5q-14 -30 -52.5 -38.5t-57.5 -5.5q-22 3 -27 27q-3 11 -3 25q14 55 36 123q19 57 46.5 132t65.5 157l8 6l25 46h-3l52 93q5 5 9 12t13 29l-112 22q-68 14 -88 13l-22 -16l3 -3q0 -3 3 -2q0 -3 3 -3q14 -5 12 -15t-7 -18q-14 -27 -31.5 -32.5 t-31.5 -5.5q-22 0 -24 3q-22 8 -41 36.5t-11 66.5zM737 429q46 14 67 52t23 57l3 14q-14 0 -33 -19.5t-49 -90.5l-3 -2q-8 -8 -8 -11z" />
<glyph unicode="'" horiz-adv-x="671" d="M942 1275q3 3 8 33q3 8 12.5 43.5t24.5 78t31.5 84.5t32.5 67q11 19 33 19t48 -8t49.5 -23t39.5 -29q33 -33 31.5 -68.5t-26.5 -69.5t-63 -62.5t-77.5 -49t-71 -30t-42.5 -4.5q-33 16 -30 19z" />
<glyph unicode="+" horiz-adv-x="682" d="M55 246q-8 30 11 47.5t51.5 24.5t76.5 5.5t90 -4.5v192q0 27 16 38q8 5 17 8q33 8 49 -12.5t23 -54.5t5.5 -80.5t-4.5 -90.5q0 -3 -1 -4t-1 -4q145 -11 203.5 -17.5t55.5 -53.5q-3 -11 -27.5 -17.5t-56 -8t-64 -1.5h-51.5h-66q-11 -139 -17.5 -195t-53.5 -53 q-11 3 -17.5 27t-8 55.5t-1.5 64.5v52v49h-183q-27 0 -38 16q-5 8 -8 17z" />
<glyph unicode="," horiz-adv-x="496" d="M52 -293.5q0 4.5 2.5 11t5.5 23.5q0 8 11 43.5t26 77.5t31.5 84.5t32.5 67.5q11 16 33 17.5t48 -8t49 -24.5t39 -29q33 -33 31.5 -68.5t-26 -69.5t-62.5 -62.5t-77.5 -49t-72.5 -30t-44 -4.5q-16 8 -21.5 12t-5.5 8.5z" />
<glyph unicode="-" horiz-adv-x="696" d="M60 246q-8 33 12.5 49t54.5 23t79 5.5t92 -4.5q101 -8 169 -12t109 -9.5t59 -17.5t18 -40q-3 -11 -27.5 -17.5t-56 -8t-64.5 -1.5h-52h-347q-27 0 -38 16q-5 8 -8 17z" />
<glyph unicode="." horiz-adv-x="409" d="M57 -143q11 45 25 69q14 22 26 38.5t20 30.5l17 24q14 19 27 30q14 11 27.5 15t32.5 -9q16 -11 39.5 -35.5t41 -55t24.5 -64.5t-9 -64q-11 -16 -31.5 -43.5t-56.5 -73.5q-14 -16 -35.5 -15t-46 13.5t-46.5 29t-36 32.5q-30 33 -19 78z" />
<glyph unicode="0" horiz-adv-x="1531" d="M46 348q0 157 69 367q68 210 169 362t210 253t215.5 159.5t188.5 86.5q101 30 200 24q82 -5 172 -49t153 -161q63 -123 52 -236.5t-66 -208.5q55 -115 59 -272t-81 -370q-30 -79 -79 -157t-117.5 -146t-154.5 -120t-187 -79q-98 -27 -211.5 -27.5t-217 31t-191 98.5 t-135.5 177.5t-48 267.5zM263.5 358.5q-9.5 -118.5 18 -197.5t78 -125.5t105 -71t103.5 -31.5t71 -7q38 -3 107.5 5.5t150.5 52t160 132.5t134 250q41 120 51.5 214t-0.5 168q-52 -35 -102 -53t-91 -26q-49 -11 -91 -11q-22 -3 -52 4t-35 34q-3 25 0 55t12.5 58.5t27 50.5 t45.5 27h22q16 0 54 9q11 0 25 5q22 3 63 22q44 22 69.5 52t36.5 46q33 57 48 116t13.5 112.5t-19 95.5t-50.5 67q-55 38 -111 36.5t-102 -17.5q-55 -19 -109 -55q-68 -46 -143.5 -114.5t-150.5 -160t-144.5 -204.5t-121.5 -253q-63 -167 -72.5 -285.5z" />
<glyph unicode="1" horiz-adv-x="974" d="M41 -177q0 55 9.5 118.5t24.5 129.5t31.5 127t32.5 111q11 38 23.5 73.5t20.5 62.5q38 106 68 178q44 115 100 230.5t113.5 219.5t110.5 192.5t89 151.5q-90 -38 -182 -58.5t-184 -15.5q-14 0 -32 4.5t-33 12.5t-25.5 20.5t-8.5 28.5q3 30 4.5 56t9.5 45t24.5 31.5 t51.5 14.5q68 -8 148 -5q68 3 155.5 12.5t183.5 39.5q26 14 51 0q16 -14 43.5 -41t48 -62.5t27.5 -74t-12 -73.5q-14 -25 -57.5 -78t-102.5 -138t-127 -198t-134 -255q-19 -38 -54.5 -120t-76.5 -193t-80.5 -243t-66.5 -274q-3 -14 -4.5 -23.5t-3.5 -20.5q-5 -30 -9 -49 q-3 -16 -12 -20.5t-15 -4.5q-63 5 -97 31t-50 48q0 3 -1.5 4.5t-1.5 4.5z" />
<glyph unicode="2" horiz-adv-x="1389" d="M46.5 -68.5q2.5 24.5 8.5 43.5q5 22 14.5 40t15.5 26q55 79 119 154t115 133q57 63 104 103q38 38 75 72.5t67 64.5q93 87 201 177.5t217 182.5q76 63 123 131q38 55 42 104t-7 88q-11 46 -38 87q-52 66 -116 60.5t-125.5 -50.5t-110.5 -117.5t-74 -143.5q-8 -19 -16 -37 t-19 -37q-16 -33 -50.5 -50.5t-75.5 -26t-80.5 -7t-69.5 9.5q-33 8 -30 49t14 69q27 74 68 143.5t90 132.5q25 35 50.5 63.5t53.5 53.5q79 71 152.5 106.5t153.5 43.5q79 5 139 -11t98 -38q46 -28 79 -66q30 -33 58 -79q22 -38 41 -92.5t19 -125.5q0 -55 -14 -115t-49 -131 q-16 -33 -42 -68.5t-56 -66.5t-59 -58.5t-51 -43.5h-2q-25 -22 -48 -40t-50.5 -38.5t-64.5 -47.5t-89 -66q-33 -22 -101 -75t-154 -126.5t-180 -164t-176 -188.5q27 -5 53 -8t56 -6q177 -16 294.5 0.5t188.5 40.5q85 30 131 74q5 8 14 19q16 22 30 25q16 5 32.5 -3t24.5 -33 q8 -27 9.5 -51.5t-3.5 -46.5q-5 -25 -11 -46q-38 -90 -133.5 -128.5t-222.5 -44t-268 13.5t-266 44q-41 8 -63 28.5t-30 45t-5.5 49z" />
<glyph unicode="3" horiz-adv-x="1351" d="M41 172q-3 46 0 84.5t8 65.5q5 30 14 58q5 22 23 46.5t45 13.5q22 -11 46.5 -29t45 -39.5t30 -47.5t4.5 -51q-5 -8 -9 -19q-5 -11 -6.5 -24.5t-6.5 -30.5q0 -11 -3 -24q-3 -14 -4 -30.5t1 -38.5q5 -46 22 -83t47 -58q55 -38 112 -37t103 17q55 19 110 55q68 49 146 120 t154 167q79 104 84.5 195t-35.5 171v2q-16 -11 -27 -16q-82 -44 -149 -42.5t-114.5 22t-75 50.5t-30.5 46q-5 22 14 36t41 22q27 11 60 13q98 30 164 69q49 30 87 62.5t65.5 62.5t44 54.5t21.5 35.5v3q30 52 34 98.5t-7 84.5q-11 44 -38 82q-52 66 -116 60.5t-125.5 -50.5 t-112 -117.5t-74.5 -143.5q-14 -38 -33 -74q-16 -33 -50.5 -50.5t-75.5 -26t-80.5 -7t-69.5 9.5q-33 8 -30 49t11 69q30 74 69.5 143.5t88.5 132.5q27 35 53 63.5t51 53.5q79 71 154 106.5t155 43.5q79 5 139 -11t98 -38q46 -27 79 -66q30 -33 58 -79q22 -38 39.5 -92.5 t20.5 -125.5q0 -55 -14 -115t-49 -131q-30 -57 -93 -128q44 -57 63 -118q38 -104 31 -198t-37 -173q-33 -90 -75 -146t-53 -70l-3 -3q-123 -131 -245.5 -203t-218.5 -102q-106 -33 -202 -28q-85 5 -172 47.5t-150 165.5q-30 57 -41 115v3q-3 5 -3 12t-3 12q0 5 -1 11t-1 11 v14q0 5 -3 8z" />
<glyph unicode="4" horiz-adv-x="1504" d="M44 623q-5 46 7 80t20 48q112 180 217 320.5t187 239.5q96 115 183 202q19 14 38 24q38 19 69 -5q14 -14 34 -45.5t35 -71t15 -79t-24 -69.5q-19 -22 -71 -67t-124.5 -116t-160 -170.5t-177.5 -228.5q-3 -5 -5.5 -9t-7.5 -10q76 -16 161 -24q106 -8 192 -7t157 12 q79 210 162.5 378t151.5 288q79 139 153 249q16 22 33 33q14 11 31.5 15t36.5 -7q16 -14 43.5 -41t48 -62.5t27.5 -74t-12 -73.5q-14 -25 -53.5 -75.5t-95.5 -128.5t-120.5 -181.5t-126.5 -234.5q22 11 35.5 22t24.5 19q11 11 19 16q5 11 14 22q5 8 13 16t19 11q22 5 40 -3 t29 -35q14 -30 15 -60t-2 -52q-3 -27 -11 -52q-33 -90 -119 -135t-203 -59q-46 -117 -95.5 -270t-81.5 -319q-3 -14 -4.5 -23.5t-4.5 -20.5q-5 -30 -8 -49q0 -16 -9.5 -20.5t-14.5 -4.5q-66 5 -100 31t-51 48q0 3 -1 4.5t-1 4.5q0 55 11 118.5t24.5 129.5t31 127t31.5 111 q11 35 23.5 70.5t20.5 60.5q-137 8 -275 31t-258 45q-68 14 -98 37t-38 70z" />
<glyph unicode="5" horiz-adv-x="1561" d="M41 172q-3 46 0 84.5t8 65.5q5 30 14 58q5 22 23 46.5t42 13.5q22 -11 48 -29t45 -39.5t30 -47.5t6 -51q-5 -8 -9 -19q-5 -11 -6.5 -24.5t-6.5 -30.5q0 -11 -3 -24q-3 -14 -4 -30.5t1 -38.5q5 -46 22 -83t47 -58q55 -38 112 -37t103 17q55 19 110 55q68 49 146 120 t154 167q93 126 84.5 233.5t-74 195t-169 155.5t-199.5 115q-16 8 -32.5 15t-30.5 12q-55 27 -73.5 64t-21.5 72.5t6.5 64t15.5 39.5q25 49 48 90t45 77q25 38 43.5 68t32.5 52q14 16 52 41t115 19q14 -3 26 -4t25 -1q197 -19 317 -4t183 36q74 27 104 69q3 11 11 22 q5 8 13.5 16t19.5 11q19 5 36.5 -3t28.5 -35q14 -30 15.5 -59t-1.5 -51q-3 -27 -11 -51q-27 -79 -97 -121.5t-164 -60.5t-207.5 -14t-230.5 18q-3 0 -3 -3q-14 -25 -57.5 -81t-103.5 -143q68 -25 151.5 -65.5t161 -96.5t142 -127t94.5 -156q38 -104 31 -198t-37 -173 q-33 -90 -75 -146t-53 -70q-3 0 -3 -3q-123 -131 -245.5 -203t-218.5 -102q-106 -33 -202 -28q-85 5 -172 47.5t-150 165.5q-30 57 -41 115v3q-5 16 -6 24q-3 8 -2 22v14q-3 3 -3 8z" />
<glyph unicode="6" horiz-adv-x="1526" d="M54.5 265q-21.5 183 65.5 450q68 210 169 362t210.5 253t217.5 159.5t190 86.5q101 30 199 24q82 -5 172 -49t153 -161q27 -57 41 -112v-6q3 -5 3 -12t2 -12q0 -5 1.5 -9.5t1.5 -9.5v-17v-8q3 -87 -5 -147q-5 -30 -14 -58q-5 -22 -23 -45t-45 -12q-22 8 -48 26t-45 39.5 t-30 47.5t-3 51q0 8 5 19q3 11 7 23.5t10 31.5q0 11 3 24q3 14 2.5 29t-0.5 37q-5 46 -21.5 83t-49.5 59q-55 38 -110.5 36.5t-102.5 -17.5q-55 -19 -109 -55q-104 -71 -225.5 -195t-224.5 -304q82 30 185.5 32.5t234.5 -38.5q106 -35 180 -91t119 -124.5t61.5 -146.5 t13.5 -157q-8 -153 -76 -281q-49 -82 -120 -147q-60 -55 -150.5 -103t-213.5 -48h-19q-139 -5 -274 41.5t-225.5 157t-112 293.5zM270.5 167q29.5 -93 88.5 -146.5t131.5 -72.5t123.5 -19q16 0 61.5 5.5t103 37t117.5 101t106 197.5q52 142 35.5 236.5t-57.5 149t-87.5 77.5 t-54.5 26q-5 3 -38 11t-83.5 11t-112 -8t-121.5 -50.5t-114.5 -115t-92.5 -200.5q-35 -147 -5.5 -240z" />
<glyph unicode="7" horiz-adv-x="1469" d="M38 -101q14 52 40 110.5t56 118.5t61.5 115t58.5 98q22 33 43.5 67t35.5 56q30 44 57.5 82t51.5 74q74 106 153 207t157 194t150.5 175t135.5 147q-101 -8 -194 -5t-171 23.5t-132.5 61.5t-79.5 106q-8 25 -10 52q-3 22 -3 50.5t13 58.5q14 27 32 35.5t37 3.5 q8 -3 16 -11.5t14 -16.5q8 -11 13 -22q30 -41 104 -68q63 -22 182 -37t318 4q22 3 42.5 4.5t42.5 4.5q14 3 42.5 0t57 -21t50.5 -57.5t22 -110.5q5 -55 -30 -90q-19 -19 -93 -84.5t-173.5 -161t-213 -211.5t-211.5 -239q-27 -33 -83.5 -104t-123 -166.5t-139 -214.5 t-135.5 -250q-5 -11 -9.5 -20.5t-9.5 -17.5q-5 -14 -9.5 -26t-9.5 -21q-5 -16 -15 -17.5t-15 1.5q-63 22 -89 54.5t-37 60.5v8z" />
<glyph unicode="8" horiz-adv-x="1376" d="M63 412q3 22 22 82t62.5 131t118.5 141t193 111q16 5 34 9t37 10q-46 49 -68 121.5t-14 167.5q0 16 8 62.5t34 101.5t75 113.5t131 99.5q57 30 133.5 40.5t172.5 -5.5q82 -16 142 -48.5t99.5 -79t60 -102.5t26.5 -114q8 -112 -30 -210q-19 -52 -55 -101 q-30 -41 -80.5 -83.5t-126.5 -63.5q123 -82 172 -201t43 -242q-5 -76 -25.5 -147t-53.5 -134q-44 -82 -112 -147q-57 -55 -148.5 -103t-222.5 -48h-17q-117 -3 -242.5 30t-221 109.5t-142 199.5t-5.5 300zM276 167q30 -93 88.5 -146.5t132.5 -72.5t126 -19q16 0 59.5 5.5 t101 37t118 101t106.5 197.5q52 142 35.5 236.5t-57.5 149t-86 77.5t-53 26q-5 3 -39.5 11t-84 11t-110.5 -8t-122.5 -50.5t-116.5 -115t-93 -200.5q-35 -147 -5 -240zM655 1079q3 -68 41.5 -125.5t144.5 -63.5q5 -3 14 -3h2h6q68 5 114.5 50.5t76.5 100.5q33 62 55 144 q19 104 2.5 168t-46.5 101t-61.5 51t-42.5 16q-8 0 -21.5 1.5t-27.5 -1.5q-22 -3 -52 -13.5t-62.5 -39.5t-62.5 -79.5t-52 -129.5q-33 -98 -28 -177z" />
<glyph unicode="9" horiz-adv-x="1504" d="M43.5 253.5q2.5 38.5 8.5 65.5q5 30 14 58q5 19 22.5 43.5t45.5 13.5q22 -11 46.5 -28.5t43.5 -39.5t30 -48t5 -50q-5 -8 -8 -20q-5 -11 -6.5 -23t-6.5 -28q0 -11 -3 -25t-4.5 -30t1.5 -38q5 -46 21.5 -83t46.5 -59q55 -38 112.5 -37t103.5 18q55 19 109 54 q104 74 224 198t224 305q-82 -30 -184.5 -33t-233.5 38q-106 33 -180 89t-119 124t-62.5 147.5t-12.5 158.5q3 74 23.5 146t53.5 135q46 82 117 148q60 55 151.5 101t214.5 46q5 0 9.5 1.5t9.5 1.5q139 3 274.5 -43.5t224 -157t110.5 -293.5t-65 -451 q-68 -210 -169.5 -360.5t-210.5 -251.5t-215.5 -159.5t-188.5 -85.5q-106 -35 -202 -28q-85 5 -172.5 49t-149.5 164q-27 52 -41 112v3q-5 16 -6 25q0 5 -1.5 10.5t-1.5 10.5v14q0 3 -1 4.5t-1 3.5q-3 46 -0.5 84.5zM488.5 868.5q16.5 -92.5 57.5 -148.5t87.5 -78t54.5 -25 q5 -3 38 -12.5t83.5 -12t110.5 9.5t121.5 52t116.5 114.5t93 200.5q35 145 5 239.5t-88.5 147.5t-132.5 72t-126 19q-16 0 -59.5 -5.5t-101 -36.5t-117.5 -101t-107 -198q-52 -145 -35.5 -237.5z" />
<glyph unicode=":" horiz-adv-x="537" d="M55 -56q11 45 24 70q14 22 26 38t21 30l16 24q14 19 27 31q14 11 27.5 15t32.5 -10q16 -11 39.5 -35.5t41.5 -54.5t24.5 -64t-9.5 -64q-11 -16 -31.5 -43.5t-55.5 -74.5q-14 -16 -36 -15t-46.5 13.5t-46 29t-35.5 32.5q-30 33 -19 78zM186 507q11 45 24 69q14 22 26 38.5 t21 29.5l16 25q14 19 27 30q14 11 27.5 15t32.5 -9q16 -11 39.5 -36t41.5 -55t24.5 -64t-9.5 -64q-11 -16 -31.5 -43.5t-55.5 -73.5q-14 -16 -36 -15t-46.5 13.5t-46 29t-35.5 32.5q-30 33 -19 78z" />
<glyph unicode="=" horiz-adv-x="696" d="M60 161q-8 33 12.5 49.5t54.5 23t79 5.5t92 -4q101 -8 169 -12.5t109 -9.5t59 -17.5t18 -39.5q-3 -11 -27.5 -18t-56 -8.5t-64.5 -1.5h-52h-347q-27 0 -38 17q-5 8 -8 16zM60 309q-8 33 12.5 49t54.5 23t79 5.5t92 -4.5q101 -8 169 -12t109 -9.5t59 -18t18 -39.5 q-3 -11 -27.5 -17.5t-56 -8t-64.5 -1.5h-52h-347q-27 0 -38 16q-5 8 -8 17z" />
<glyph unicode="A" d="M11 273q0 82 17.5 140.5t34.5 91.5q27 44 65 88q46 52 116 91.5t174 55.5q50 10 105 10q24 0 48 -2q79 -3 155.5 -15t150.5 -37q27 -12 59 -36q23 -18 24 -39q0 -9 -4 -18q-11 -27 -34.5 -59.5t-53.5 -60t-66 -42.5q-23 -10 -46 -10q-12 0 -24 3q-19 5 -37 9.5t-37 9.5 q-70 18 -137 18h-7q-70 -1 -127 -23t-98 -68.5t-54 -117.5q-6 -29 -6 -54q0 -42 17 -72q27 -46 65 -70q46 -30 107 -39q27 -4 55 -4q67 0 145 23q110 33 235 96t260 153t271 197q-158 101 -264 237q-16 22 -32 59q-5 13 -5 23q0 21 20 36q25 16 63 32.5t76 22.5 q19 3 38.5 2.5t38.5 -2.5q38 -6 63 -31q25 -33 54 -68q27 -30 64 -68.5t87 -79.5q205 172 391.5 348.5t331.5 320.5q169 169 317 325q38 41 75 52q12 3 22 3q23 0 39 -16q14 -16 28 -33q11 -14 22 -30.5t16 -32.5q3 -14 0 -25t-7 -23t-15 -23q-16 -19 -83 -105t-147.5 -206 t-154.5 -257t-106 -259q-46 -158 -60 -295q8 3 17.5 2.5t20.5 2.5q19 3 30 -3q27 -11 22 -41q-5 -14 -27.5 -38t-68.5 -43q5 -164 46 -273.5t74 -185.5q10 -22 10 -39t-10 -28q-19 -23 -57 -26q-16 -3 -31.5 0t-28.5 8q-14 5 -28 11q-76 35 -124 91.5t-75 122.5 q-26 67 -36 145q-6 51 -7 103q0 27 2 54q-126 16 -314 90l-65 25q-30 -22 -59 -46.5t-59 -46.5q-260 -194 -526 -306q-228 -96 -448 -96q-37 0 -74 3q-131 11 -214.5 52t-130 97t-64 119t-20.5 120zM1769 522q55 -30 114 -56t121 -43q16 79 37 153t42.5 137t41 110.5 t32.5 72.5l11 22q11 27 30 65q-96 -115 -202 -231t-227 -230z" />
<glyph unicode="B" horiz-adv-x="1600" d="M85 942q0 106 45 184t116 135.5t161 94.5t183 58q210 50 476 50h21q142 -8 247 -38.5t176 -72.5t116 -95.5t70 -105.5q41 -91 41 -195q0 -40 -6 -83q-27 -139 -110.5 -225t-173.5 -136q-106 -57 -235 -84q104 -22 158.5 -70t79.5 -97q30 -57 33 -123v-12q0 -101 -48 -185 q-51 -88 -132.5 -154.5t-184 -106t-203.5 -47.5q-72 -8 -136 -8q-61 0 -113 7q-110 15 -193 49t-144 82t-102 99q-98 123 -131 290q-6 30 -6 67q0 38 36 45q27 8 66.5 8t78 -8t69.5 -27.5t45 -51.5q0 -11 5 -25t9.5 -30t12.5 -38q8 -27 25 -58q14 -25 37 -54.5t56 -59.5 q46 -46 118.5 -79t176.5 -36h2q18 -2 34.5 -2t32.5 2q32 3 62 8q19 5 36.5 9.5t39.5 12.5q76 27 122.5 72.5t71.5 91.5q30 52 41 109q4 25 4 48q0 45 -15 79q-22 51 -63 82.5t-91.5 46.5t-96.5 20q-41 5 -59 49t-20 79q0 16 9.5 23t22.5 13q14 3 33 3q158 5 255 39t150.5 82 t74 100t25.5 95q2 17 2 37q0 33 -5 74q-8 67 -53 125q-44 59 -140 100q-80 34 -210 34q-25 0 -52 -1q-167 -8 -305 -58.5t-241.5 -113.5t-174.5 -125.5t-107 -98.5q-26 -26 -49 -26q-6 -1 -11 1q-27 8 -46 39q-8 14 -11 28.5t-6 28.5t-2 30zM536.5 106.5q-1.5 19.5 1.5 27.5 q8 79 24.5 150t30.5 126q16 63 35 112q38 126 77.5 222.5t70.5 162.5q35 76 68 133q14 22 30 36q14 14 31.5 19t36.5 -5q19 -11 48 -36t53.5 -57.5t35.5 -70.5q4 -15 4 -30q0 -23 -10 -44q-8 -19 -32.5 -54.5t-58.5 -86t-72.5 -119t-71.5 -155.5q-55 -147 -80.5 -249.5 t-31.5 -173.5q-3 -16 -12.5 -19t-14.5 -3q-63 5 -98.5 31t-48.5 48q-14 16 -15.5 35.5z" />
<glyph unicode="C" horiz-adv-x="1758" d="M112 1139q-5 25 5 62q13 33 41 48q11 6 25 6q19 0 41 -13q27 -16 73.5 -43.5t112 -57.5t146 -56t176.5 -42q126 137 252.5 221.5t237.5 133.5t194 68t121 25q25 3 63 0t68 -19q33 -19 50 -58q11 -28 11 -60t-11 -68q-22 -74 -77 -145q-8 -8 -11 -13q-8 -11 -19 -20.5 t-22 -20.5q-63 -57 -157 -112t-231 -98q-55 -16 -117 -30q-55 -14 -123 -27.5t-147 -22.5q-46 -60 -91.5 -125.5t-83.5 -139.5q-89 -161 -117 -277q-19 -80 -19 -142q-1 -28 3 -53q12 -79 54.5 -128t93.5 -75t97 -34.5t68 -8.5q10 -1 24 -1q31 0 79 5q68 7 153.5 45.5 t176.5 119t171 225.5q3 8 13 24q14 30 22 54.5t14 46.5q5 25 8 44q0 16 1.5 30t1.5 24v22q5 27 25.5 49t48 38.5t57.5 26t54 12.5q27 3 37 -26t7 -51v-5v-14q0 -8 -4 -42t-17.5 -84.5t-38.5 -112t-65 -127.5q-5 -11 -13.5 -19t-14.5 -19q-30 -41 -72 -91.5t-101 -99.5 t-132.5 -95.5t-163.5 -79.5q-22 -8 -41.5 -13.5t-40.5 -10.5q-104 -27 -218 -29h-10q-106 0 -202 29q-100 30 -176 97q-77 68 -107 178q-15 57 -15 125q0 66 14 143q28 158 135 371q27 52 53 100t56 92q-76 8 -146 27t-126 57.5t-94 94t-55 137.5q-5 14 -5 28zM1032 1038 q25 5 49.5 9t48.5 10q126 27 212 72t141 97q3 3 16.5 18t30 35.5t30 43.5t13.5 45q3 14 -41 1.5t-120.5 -53.5t-174.5 -109t-205 -169z" />
<glyph unicode="D" horiz-adv-x="1968" d="M98 969q0 106 45 184.5t116 135.5t161.5 94t182.5 59q206 49 467 49h30q270 -8 467 -117q85 -46 160 -120t127 -182t71 -256q7 -57 7 -121q0 -102 -18 -223q-46 -221 -166 -396q-52 -74 -124.5 -146t-172 -130.5t-229.5 -95.5t-294 -43q-145 0 -256.5 23.5t-196.5 60.5 t-145 83t-101 96q-96 112 -120 256q-4 22 -4 53v13q1 38 34 46q27 8 67 8t78 -8t69.5 -27t45.5 -52q0 -11 5 -25t9.5 -30t12.5 -38q8 -27 25 -57q14 -25 37 -55t55 -60q46 -46 119 -77.5t176 -37.5q23 -1 45 -1q107 0 195 20q106 24 191 69.5t149.5 104.5t110.5 121 q109 147 159 339q19 107 19 194q0 36 -3 68q-11 112 -50.5 195.5t-99.5 139.5t-126 91q-156 85 -377 90q-167 -8 -304.5 -58.5t-241.5 -113.5t-174.5 -126t-103.5 -98q-28 -26 -51 -26q-6 0 -12 2q-28 8 -44 38q-8 14 -12 29t-7 28q-3 14 -3 30zM551.5 133.5 q0.5 19.5 0.5 27.5q8 79 24.5 150t29.5 126q16 63 36 112q38 126 77.5 222.5t69.5 162.5q35 76 71 134q14 22 30 35q14 14 30.5 19.5t35.5 -5.5t47.5 -35.5t53 -57.5t35.5 -71q4 -15 4 -31q0 -22 -9 -43q-8 -19 -33 -54.5t-59 -86t-71 -118.5t-69 -156 q-57 -147 -83.5 -249.5t-31.5 -173.5q-3 -16 -12.5 -19t-14.5 -3q-63 5 -98.5 31t-49.5 48q-14 16 -13.5 35.5z" />
<glyph unicode="E" horiz-adv-x="1174" d="M109 1196q-3 16 -3 34q0 24 6 51q5 22 13.5 41t16.5 35q8 14 45 52t116 60q108 28 187 28q8 -1 14 -1q84 -2 161.5 -17t169 -35.5t224.5 -26.5q23 -1 45 -1q82 0 141 15q74 19 118 49q49 30 79 76q5 16 13 28q5 11 15 19t24 11q22 5 43.5 -4.5t35.5 -39.5 q14 -35 16.5 -68t-0.5 -60q-5 -30 -13 -60q-33 -93 -96 -145q-63 -53 -142 -73q-69 -18 -150 -17h-24q-94 3 -186 19q-30 -44 -109.5 -145t-174.5 -262q96 5 158.5 20.5t86.5 17.5q25 0 45.5 -17.5t34 -42t22 -50.5t8.5 -43q3 -14 -5.5 -23t-19.5 -15q-11 -8 -30 -11 q-44 -5 -98 -8q-46 -3 -114.5 -3t-156.5 11h-19q-25 -55 -60 -136.5t-68 -171.5t-60.5 -180.5t-37.5 -165.5q-5 -35 -5 -65q0 -34 6 -60q12 -50 56 -59q52 63 117 126q55 55 131.5 113.5t169.5 109.5q14 8 27.5 14t21.5 11l16 8q22 8 41 11q16 3 34 -1t26 -21q8 -19 18 -53 q10 -33 11 -73v-7q0 -37 -10 -69q-11 -36 -43 -54q-16 -11 -53 -25t-90.5 -35.5t-119 -56t-139.5 -83.5q-11 -8 -20.5 -15t-17.5 -12q-55 -35 -104 -35t-86 17.5t-62.5 40.5t-36.5 37q-60 87 -72 191q-5 46 -6 92q0 59 9 118q14 115 63 254.5t104 262.5q-94 15 -114 55 q-9 18 -9 35q0 20 14 38q15 16 69 20q23 2 46 2q30 0 59 -3q19 38 34.5 68t23.5 49q55 112 102.5 199.5t85.5 150.5q-79 22 -141 37q-44 11 -71 11q-11 0 -20 -2q-55 -11 -74 -38q-3 -5 -8 -27t17 -38q8 -3 24 -14q14 -8 14 -19t-3 -17q-35 -55 -72 -73.5t-64 -24.5 q-16 -3 -31.5 1.5t-23.5 9.5q-22 11 -45 33t-42.5 52t-27.5 68z" />
<glyph unicode="F" horiz-adv-x="920" d="M116 1196q-5 18 -5 38q0 22 6 47q5 22 13.5 41t16.5 35q8 14 45 52t117 60q108 28 210 28q9 -1 17 -1q110 -2 221 -18.5t228.5 -37t251.5 -28.5q22 -1 43 -1q84 0 142 16q72 20 118 50q52 33 82 77q5 14 14 24q14 25 38 33q22 5 43.5 -4.5t35.5 -39.5q14 -35 15 -68 t-1 -60q-3 -30 -11 -60q-35 -101 -114.5 -153t-184.5 -71q-70 -13 -147 -13q-40 0 -80 4q-122 10 -241 31q-22 -38 -105.5 -142t-184.5 -276q96 5 158.5 20.5t87.5 17.5q25 0 45 -17.5t34 -42t22 -50.5t8 -43q3 -14 -5.5 -23t-19.5 -15q-11 -8 -27 -11q-46 -5 -101 -8 q-49 -3 -116 -3t-154 11h-19q-101 -221 -127 -438q-7 -62 -8 -127q0 -163 47 -344q2 -10 2 -19q0 -27 -17 -47q-18 -21 -45 -21q-8 0 -16 2q-38 8 -82 36q-41 33 -71 71q-71 87 -85 195q-6 49 -6 100q0 60 9 123q16 115 61 247t97 250q-89 15 -111 55q-10 18 -10 34 q0 20 15 39q14 16 67 20q23 2 45 2q30 0 60 -3l34 68t23 49q55 115 105.5 204t88.5 151q-85 22 -146 34q-41 8 -67 9q-13 0 -22 -2q-33 -5 -50.5 -14.5t-25.5 -23.5q-3 -5 -7 -27t18 -38q11 -5 22 -14q14 -8 13.5 -19t-2.5 -17q-33 -55 -71.5 -73.5t-65.5 -24.5 q-16 -3 -31.5 1.5t-23.5 9.5q-19 11 -43.5 33t-42 52t-27.5 68z" />
<glyph unicode="G" horiz-adv-x="1512" d="M64 204q15 159 105 372q66 158 148 282.5t169 217.5t177.5 157t172.5 108q194 101 396 125q16 3 35 0q16 -3 35.5 -7t38.5 -17q11 16 19 29.5t14 24.5q8 11 13 22q16 30 52 37q18 3 37 3t40 -3q40 -7 77 -19t54 -23q19 -14 21.5 -30.5t-2.5 -32.5q-5 -19 -19 -41 q-3 -5 -9 -14q-5 -5 -9 -12t-10 -12q-33 -38 -73.5 -82t-86 -89t-91.5 -86t-90 -71q-8 -5 -13.5 -6.5t-11.5 -4.5q-5 -3 -11 -3q-30 5 -65.5 22t-70.5 63q-3 5 -5.5 15t10.5 21q22 16 39 32l12 12t15 13q14 14 42.5 56t31.5 78q0 14 -42.5 1.5t-113.5 -51t-164 -106.5 t-188.5 -165t-189.5 -225.5t-171 -289.5q-76 -161 -94 -277q-8 -54 -8 -100q0 -53 10 -95q21 -79 67.5 -128.5t98.5 -75.5t98.5 -34t68.5 -8q11 -1 24 -1q32 0 81 5q69 7 151 45t165.5 118.5t148.5 225.5h3q5 16 11 25q11 30 18 54.5t9 46.5q3 25 3 44v60 q-137 -11 -251.5 -59t-203 -105.5t-150 -113.5t-89.5 -83q-30 -30 -56 -23t-39 34q-5 14 -8 25t-6 24q-3 11 -3 28q3 112 57.5 188t138 126.5t184.5 78t195 40t170.5 13.5t112.5 1q3 0 13.5 -1t21.5 -10q25 -16 66 -53t63 -80q0 -5 4 -22t1 -38q-5 -52 -25.5 -128.5 t-67.5 -161.5q-5 -11 -10.5 -19t-11.5 -19q-25 -41 -64 -91.5t-94 -99.5t-125.5 -95.5t-158.5 -79.5q-19 -5 -38 -12.5t-41 -12.5q-101 -27 -214 -29h-11q-108 0 -205 29q-103 30 -184.5 97t-119.5 178q-28 79 -28 183q0 41 4 85z" />
<glyph unicode="H" horiz-adv-x="2441" d="M30 164q0 82 18 140.5t34 91.5q27 44 65 87q46 52 116 91.5t174 56.5q50 10 105 10q24 0 48 -2q79 -3 155.5 -15t150.5 -37q27 -11 60 -35q23 -17 23 -39q0 -9 -4 -19q-11 -27 -34 -60t-53 -60t-66 -42q-23 -10 -47 -10q-12 0 -24 3q-19 5 -37 9.5t-37 9.5 q-69 18 -133 18h-10q-70 -2 -127 -23.5t-98 -68t-55 -117.5q-6 -26 -6 -49q0 -20 4 -37q10 -37 29 -63t44 -42.5t49 -24.5q8 -3 52 -13q32 -8 78 -8q18 0 38 1q72 4 165 31t197 98q55 35 98 77q90 76 164 161t134 172q-93 76 -161 164q-15 22 -31 58q-5 12 -6 24q0 21 20 35 q25 16 62 33q36 16 76 22q20 3 39.5 2.5t38.5 -2.5q38 -6 63 -30q3 -5 11 -17q14 -19 35 -43q46 87 71 147t33 79q57 142 77 302q8 63 7 133q0 108 -18 232q-1 6 -1 12q0 30 23 52q18 17 38 17q11 0 24 -5q41 -14 79 -49q16 -19 31.5 -37t26.5 -39q57 -96 57 -205t-27 -221 q-19 -79 -58 -167q0 -5 -12 -39.5t-35.5 -90.5t-59 -129.5t-84.5 -158.5q76 -66 174.5 -125.5t216.5 -92.5q27 112 68 226.5t83.5 214t79 176t58.5 117.5q57 117 110.5 210t91.5 159q46 76 85 134q16 19 33 30q14 11 31.5 16.5t36.5 -8.5q16 -14 42 -41t47 -63 q20 -36 28 -74q3 -11 3 -22q0 -26 -14 -51q-14 -22 -47.5 -65.5t-83 -109.5t-106.5 -154.5t-115 -200.5q-71 -139 -121.5 -264.5t-74.5 -257.5q16 0 32.5 1.5t35.5 4.5t30 -3q27 -11 22 -41q-5 -16 -35.5 -46t-98.5 -49q-1 -29 -1 -59q0 -73 8 -149q12 -110 50 -235 q3 -12 3 -23q-1 -24 -17 -42q-18 -21 -44 -21q-9 0 -18 2q-38 8 -82 35q-22 16 -38.5 34t-29.5 37q-71 87 -85 195q-7 54 -7 110t7 113l3 3q-63 14 -134 34t-156 53q-109 38 -199 90q-33 -46 -70 -91t-75 -89q-52 -63 -155.5 -154.5t-259.5 -154.5q-101 -41 -223 -61 q-68 -11 -142 -11q-60 0 -124 7q-126 11 -205 52t-124 97t-62.5 118.5t-20.5 117.5z" />
<glyph unicode="I" horiz-adv-x="1168" d="M85 -106q19 25 54.5 52t73.5 46t75 23t59 -18q22 -25 52 -52q27 -22 66.5 -46.5t94.5 -37.5q-3 3 -4.5 5.5t-3.5 5.5q-71 87 -85 195q-6 49 -6 99q0 61 9 123q14 98 52 214.5t81.5 225.5t84.5 195t63 127q41 85 79 156t71 128q-74 0 -140.5 12.5t-122.5 41t-97 79 t-63 124.5q-8 30 -11 60q-3 27 1 58.5t21 67.5q14 30 37 39.5t45 1.5t35 -33q8 -11 14 -25q27 -46 76 -82q44 -30 115 -56t186 -26q137 0 229.5 15t171.5 29h3q5 0 14.5 1.5t20.5 -4.5q3 0 4.5 -1t4.5 -1h2q16 -8 38 -20.5t42.5 -33t35.5 -48t18 -65.5q0 -22 -12.5 -28.5 t-20.5 -6.5q-49 -5 -125.5 -22t-163.5 -36q-3 -8 -5.5 -16t-8.5 -19q-14 -22 -48 -65.5t-81.5 -109.5t-106.5 -154.5t-116 -200.5q-117 -235 -149 -465q-10 -73 -9 -149q0 -165 46 -347v-3q115 14 259 77q16 8 30 8t22 -5.5t11 -27.5q0 -22 -22 -65.5t-88.5 -84.5 t-190.5 -65q-75 -15 -181 -15q-68 0 -149 6q-104 8 -191 36.5t-144 72.5q-22 16 -48 48q-14 17 -14 33q0 15 10 29z" />
<glyph unicode="J" horiz-adv-x="1649" d="M172 341q19 131 68 229.5t116 169.5t147.5 120t162.5 82q191 71 421 79q14 0 33 -2.5t35 -8t27 -16.5t11 -30q0 -30 -8 -71t-26 -78t-45 -63t-63 -28q-137 -5 -244.5 -41t-188 -90.5t-134 -127t-77.5 -151.5q-5 -19 -16 -60t-14 -92q-1 -10 -1 -21q0 -41 9 -87 q11 -57 44 -109q30 -46 69.5 -70.5t74.5 -38.5q41 -14 85 -19h16q130 0 239 77q116 81 203.5 200t150.5 248.5t96 220.5q41 106 71 196q55 150 80.5 271.5t39.5 201.5q-87 -25 -178 -38q-42 -7 -83 -7q-46 0 -89 8q-82 15 -148.5 68t-105.5 162q-8 30 -11 60q-3 27 -1.5 60 t15.5 69q14 30 35.5 41t43.5 5q25 -11 38 -33q8 -11 14 -24q27 -46 79 -77q44 -30 117 -50q57 -16 139 -16q24 0 50 1q115 3 199.5 16.5t150 24.5t119.5 15q13 1 25 1q43 0 88 -11q79 -22 116 -61.5t45 -52.5q16 -30 30 -77q6 -24 6 -45q0 -19 -4 -37q-10 -38 -28 -69.5 t-42.5 -52t-43.5 -31.5q-8 -5 -23 -9t-32 -2q-27 5 -64 24.5t-72 74.5q-3 5 -3 14.5t14 20.5q5 3 10.5 5.5t11.5 8.5q22 16 17.5 38t-7.5 27q-8 14 -25.5 22t-50.5 14q-14 5 -35 0q-5 -16 -38 -138t-104 -315q-14 -35 -38.5 -105t-59 -159t-76.5 -186t-89 -187 q-33 -63 -67 -118.5t-66 -96.5q-55 -71 -129 -143.5t-172 -126t-218 -73.5q-48 -8 -100 -8q-77 0 -162 18q-93 25 -158.5 67t-109.5 94t-70 109t-37 112q-16 71 -16 148q0 63 11 130z" />
<glyph unicode="K" horiz-adv-x="2094" d="M14 164q0 82 17.5 140.5t34.5 91.5q27 44 65 87q46 52 117 91.5t175 56.5q46 10 101 10q24 0 49 -2q161 -5 309 -52q26 -11 58 -35q23 -17 22 -39q0 -9 -4 -19q-11 -27 -34 -60t-53 -60q-29 -27 -65 -42q-23 -10 -47 -10q-12 0 -24 3q-19 5 -37 9.5t-37 9.5 q-69 18 -133 18h-10q-70 -2 -127.5 -23.5t-98.5 -68t-54 -117.5q-6 -26 -6 -49q0 -20 4 -37q10 -37 29 -63t43.5 -42.5t49.5 -24.5q8 -3 52 -13q32 -8 78 -8q18 0 38 1q72 4 165 31t196 98q55 35 99 77q131 109 229 240t166.5 248.5t106.5 205t47 111.5q57 142 76 302 q7 62 7 131q0 109 -18 234q-1 6 -1 12q0 30 23 52q18 17 39 17q11 0 24 -5q41 -14 79 -49q16 -19 31 -37t29 -39q56 -94 56 -201q0 -109 -29 -225q-11 -41 -24.5 -82t-29.5 -85q-3 -5 -23.5 -61t-61.5 -147q41 27 86 59t97 78q85 71 124.5 138t53.5 119q9 37 9 70 q0 22 -4 42q-5 14 -8 27q-5 30 5 49q14 19 36 27.5t52 -5.5q33 -16 57.5 -39.5t40.5 -45.5q19 -27 33 -52q33 -72 33 -138q-1 -23 -5 -46q-16 -86 -67 -159.5t-131.5 -138t-168 -119t-172.5 -98t-145 -79.5q3 -8 4.5 -15t4.5 -15q27 -104 74.5 -203.5t110.5 -189.5 q35 -46 73.5 -86t71.5 -86q21 -30 23 -67q0 -4 1 -9q0 -33 -10 -66q-11 -38 -31.5 -72.5t-42.5 -58.5q-15 -16 -33 -16q-14 0 -28 8q-36 19 -54 38q-115 126 -196.5 274.5t-136.5 306.5q-8 25 -16 51t-17 53q-25 -33 -50.5 -65.5t-55.5 -62.5q-52 -63 -156 -154.5 t-259 -154.5q-101 -42 -223 -62q-66 -11 -139 -11q-61 0 -127 8q-126 11 -205 52t-124 97t-63 118.5t-20 117.5z" />
<glyph unicode="L" horiz-adv-x="1116" d="M33 -208q3 79 26 120.5t53 62.5q33 25 76 28q22 3 45 3q77 0 163 -36q30 -14 56 -23.5t50 -20.5q0 57 4.5 113.5t9.5 99.5q5 49 14 99q8 55 24.5 112t38.5 120q-120 -30 -230 -30q-14 0 -33 4t-35 9.5t-26 17.5t-10 29q0 30 11 69.5t30 73.5t48 60t64 32q19 -2 40.5 -1.5 t44.5 1.5q38 3 92.5 8t117.5 19l17 33h-3l3 2q8 16 53 99.5t114.5 190t159.5 212t191 165.5q91 54 178 54h3q44 -5 71 -35q22 -27 28 -85q1 -9 2 -20q0 -55 -28 -146q-19 -63 -43.5 -118t-54.5 -101q-63 -98 -125.5 -161t-92.5 -87q-8 -5 -12.5 -9.5t-9.5 -7.5 q-68 -52 -161 -104q-30 -19 -57.5 -35t-57.5 -33q-3 0 -3 -3q-63 -161 -82 -327q-3 -8 -15 -116t-23 -305q19 -8 35.5 -15t32.5 -12q71 -27 112 -41t63 -19l17 -8h2q74 -22 158.5 -49.5t210.5 -49.5q61 -9 111 -8q42 -1 76 5q75 14 121 36q55 27 91 68q5 14 16 25 q19 24 41 27q8 2 15 2q40 0 59 -54q7 -32 7 -60q-1 -4 -1 -10q-2 -32 -6 -61q-8 -30 -19 -57q-44 -93 -115 -138t-157 -56q-34 -4 -71 -4q-54 0 -112 10q-97 16 -191 44.5t-183 63t-157 61.5q3 0 3 -1.5t2 -1.5q-30 11 -61.5 24.5t-63.5 27.5q-22 11 -46.5 20.5t-46.5 23.5 q-49 -71 -120 -93q-65 -19 -136 -19q-24 0 -48 2q-98 8 -180 44q-80 36 -134 98q-51 58 -51 133v9zM202 -256.5q-3 -24.5 11 -49t44 -38.5q25 -12 59 -14q8 -1 16 0l52 6q34 8 65.5 24.5t47.5 43.5q-74 38 -131 62.5t-87 24.5q-35 0 -54.5 -17.5t-22.5 -42zM1016 868l16 9 q117 60 205 152q5 8 20 24.5t37 41.5q16 22 37 45t34 53q35 63 45 105.5t-12 55.5q-14 8 -34.5 2.5t-50.5 -40.5q-57 -66 -137.5 -179t-159.5 -269z" />
<glyph unicode="M" horiz-adv-x="2910" d="M71.5 1562q2.5 33 15.5 68q14 30 36 39.5t44 4.5t38 -30q8 -11 13 -25q30 -44 82 -76q46 -31 118 -51q57 -16 142 -16q21 0 43 1q126 5 238 26t218.5 37t207.5 22q21 1 42 0q81 0 163 -16q22 -5 73.5 -26t91.5 -70q41 -49 47 -131q1 -7 1 -15q0 -78 -63 -193 q-60 -104 -104 -193q131 156 287 278.5t333 157.5q19 3 54.5 0.5t65.5 -30.5q19 -19 42.5 -47.5t35.5 -65.5q11 -34 11 -73v-6q-1 -42 -29 -89h-2q-38 -55 -79.5 -123t-82.5 -147q-19 -35 -35 -71t-30 -71q82 128 187 274t226.5 274.5t255.5 222.5t270 119q19 5 53.5 2.5 t64.5 -29.5q22 -22 43.5 -51t35.5 -65q12 -30 12 -65q0 -7 -1 -15q-3 -42 -30 -88q-41 -60 -86 -132.5t-89 -159.5q-68 -134 -135 -281.5t-110 -307.5q-44 -161 -54 -331q-2 -30 -2 -60q0 -142 39 -288q4 -11 4 -22q-1 -22 -17 -42q-18 -22 -45 -22q-8 0 -16 2q-41 8 -84 38 q-38 30 -69 68q-71 87 -83 195q-6 52 -6 105q0 58 7 118q19 156 79.5 325t130 318t132 262.5t87.5 162.5q25 52 55 106.5t52 95.5q-11 -3 -87.5 -70t-187 -177.5t-236.5 -251t-233.5 -290.5t-177.5 -299t-70 -275q5 -46 13.5 -91t22.5 -94q4 -11 4 -22q0 -22 -16 -41 q-19 -23 -47 -23q-6 0 -12 1h-6q-22 5 -41 15t-41 23q-41 33 -68 68q-71 87 -85 197q-6 50 -6 100q0 60 9 121q14 98 51 214.5t82 224t86 196.5t63 130q27 52 59.5 110.5t51.5 94.5q-5 -3 -63.5 -42.5t-147.5 -114.5t-195.5 -183t-206 -247.5t-181.5 -311.5t-123 -371 q-8 -46 -12 -76.5t-10 -46.5q-11 -38 -45 -58.5t-73.5 -30t-79 -11t-59.5 3.5q-22 5 -30 20.5t-11 34.5q-3 22 0 46q27 131 77 290q41 137 108 315.5t168 386.5q33 76 82 172q11 25 28.5 59t36.5 69q8 14 17.5 30t20.5 36q3 5 12.5 20t19 34t18 35.5t13.5 22.5 q14 22 15.5 38t-1.5 24q-3 5 -3 8t-3 6q-8 14 -21.5 22t-51.5 11h-7q-40 0 -134 -28q-102 -30 -237.5 -66.5t-285.5 -66.5q-138 -28 -264 -28q-10 1 -21 1q-135 2 -240.5 50t-146.5 168q-8 30 -13 60q-5 27 -2.5 60z" />
<glyph unicode="N" horiz-adv-x="2176" d="M61.5 1562q1.5 33 14.5 68q14 30 36 39.5t44 4.5t38 -30q9 -11 14 -25q30 -44 81 -76q45 -31 117 -51q57 -16 144 -16q21 0 43 1q126 5 237.5 26t216.5 37t207 22q21 1 43 0q81 0 164 -16q22 -5 72.5 -26t90 -70t46.5 -131q1 -8 0 -15q0 -78 -62 -193 q-57 -101 -102 -192.5t-78 -167.5q79 98 170.5 198t192.5 181.5t209 142t220 81.5q19 3 53 0.5t64 -30.5q22 -19 44 -48q21 -28 35 -65q11 -31 12 -66v-13q-2 -42 -30 -89q-41 -60 -85 -133.5t-90 -161.5q-68 -134 -119 -258q-52 -124 -76 -252q-18 -95 -18 -199 q0 -36 2 -73q8 -143 58 -316q3 -11 3 -21q-1 -23 -17 -43q-19 -22 -47 -22q-8 0 -16 2q-44 8 -82 38q-22 14 -38 31.5t-33 36.5q-68 87 -82 195q-7 53 -6 108q0 57 7 115q16 126 58.5 264t94 263.5t98 225t71.5 148.5q11 25 28.5 56.5t35.5 62.5t34 60t27 51 q-5 -3 -62.5 -41.5t-145 -113.5t-196.5 -185.5t-219.5 -256.5t-215.5 -332t-182 -407v3q-5 -22 -6.5 -35.5t-7.5 -24.5q-11 -38 -45 -58.5t-73.5 -30t-77.5 -11t-57 3.5q-22 5 -30.5 20.5t-10.5 34.5q-3 22 0 46q27 131 76 290q41 137 106.5 315.5t166.5 386.5 q19 38 38 81.5t44 90.5q14 25 31.5 59t36.5 69q8 14 18 30t20 36q3 5 11.5 20t19 34t19 35.5t13.5 22.5q14 22 15.5 38t-1.5 24q-5 11 -6 14q-8 14 -21.5 22t-51.5 11h-7q-40 0 -135 -28q-104 -30 -238 -66.5t-286 -66.5q-140 -28 -265 -28q-10 1 -21 1q-135 2 -240 50 t-146 168q-8 30 -11 60q-3 27 -1.5 60z" />
<glyph unicode="O" horiz-adv-x="1777" d="M270 953v23.5t6 25.5q8 35 36 46q8 3 16 3q22 0 49 -19t71 -49t104 -63q85 126 179 219t185.5 158.5t176 106.5t152.5 62q91 26 174 26q14 0 28 -1q82 -5 168 -49t138 -161q37 -86 37 -168q0 -35 -7 -69q-22 -114 -85 -208q38 -96 38 -222q0 -25 -1 -50 q-9 -157 -113 -370q-38 -79 -94 -157t-130 -146t-164 -120.5t-196 -79.5q-101 -27 -213 -27t-214.5 31.5t-182.5 98.5q-82 68 -120 178q-28 81 -28 187q0 39 4 80q14 157 101 367q8 22 17.5 42.5t20.5 42.5q-57 44 -96.5 101t-53.5 136q-3 14 -3 25zM500 250q-9 -57 -9 -105 q1 -52 11 -93q20 -79 66 -125.5t99.5 -71t101 -31.5t69.5 -7q10 -1 22 -1q36 0 88 6q72 8 156 52t170 133t157 250q49 120 68 213q15 74 15 137q0 17 -1 32v3q-76 -30 -167 -55q-79 -21 -184 -35q-77 -10 -164 -10q-33 0 -67 1q-22 0 -42.5 3t-41.5 6q-52 5 -102.5 13 t-97.5 22q-5 3 -9 3t-10 3q-8 -14 -16.5 -29t-13.5 -29q-79 -167 -98 -285zM765 819q71 -27 152.5 -46t172.5 -25q27 -3 51.5 -3h49.5q76 5 134.5 27.5t102.5 52.5q38 22 61.5 47.5t31.5 39.5q38 57 60 116q23 59 25 112v16q0 44 -12 80q-14 42 -46 67q-47 37 -102 37h-4 q-58 -2 -107 -18q-57 -20 -112 -55q-104 -66 -224 -176.5t-234 -271.5z" />
<glyph unicode="P" horiz-adv-x="1395" d="M128 1054q0 14 3 30q25 106 85 184t142 134t179 93t195 59q217 49 478 49h30q142 -8 239 -38t161 -72.5t96.5 -96t46.5 -104.5q11 -46 11 -96q0 -86 -33 -183q-52 -145 -161 -262q-96 -104 -261 -195.5t-430 -118.5q-52 -5 -106.5 -8t-114.5 -3q-33 -79 -50.5 -150 t-26 -139.5t-8.5 -139.5t6 -147q-1 -38 -29 -66q-22 -21 -50 -21q-8 0 -17 2q-35 8 -73 36q-19 16 -31.5 34t-23.5 37q-45 75 -45 165q0 15 2 30q8 108 48 222q8 30 23.5 68.5t37.5 82.5q-46 5 -82 14.5t-60 23.5q-30 14 -52 33q-14 11 -30.5 30t2.5 41q14 16 37 36.5t48 34 t50.5 20.5t47.5 -1q5 -3 14 -8q16 -11 38 -22q11 -3 22 -8t23.5 -8t31.5 -6q19 38 36.5 69.5t34.5 61.5q68 123 129.5 218.5t107.5 160.5q55 76 101 134q3 5 8 11q5 5 11 9.5t11 9.5q19 14 39.5 22t37.5 -3q27 -16 64 -69q30 -44 30 -94q0 -11 -1 -22q-5 -27 -20 -49 q-14 -16 -42.5 -49t-69 -79.5t-88.5 -109.5t-97 -139q-14 -25 -27.5 -48t-27.5 -45q101 3 213 20.5t216 62.5t188.5 121.5t130.5 196.5q16 44 23 110q1 11 1 22q0 54 -28 103q-34 59 -122 99q-73 33 -201 33q-26 0 -55 -1q-169 -8 -316.5 -57t-265 -113.5t-200.5 -127 t-124 -95.5q-31 -27 -56 -27q-6 0 -10 1q-28 7 -38 37q-5 14 -5.5 30t-0.5 30z" />
<glyph unicode="Q" horiz-adv-x="1712" d="M70 -374q-9 22 -9 45q0 29 15 61q19 33 33 47q5 8 36.5 28.5t92.5 25.5q17 1 33 1q29 0 54 -4q38 -5 71 -13q-60 52 -99.5 125.5t-48.5 174.5q-3 30 -3 61q0 78 16 168q23 129 89 288q8 22 17.5 42t20.5 42q-55 44 -94.5 101.5t-55.5 136.5q-3 14 -3 24v23.5t5 25.5 q11 35 38 47q9 3 17 3q22 0 49 -20q25 -19 68.5 -49t103.5 -62q85 126 179 218.5t187 158t177.5 106.5t150.5 63q88 25 170 25q16 0 32 -1q82 -5 168 -49t138 -161q37 -86 37 -168q0 -35 -7 -68q-22 -114 -85 -209q38 -95 38 -219q0 -26 -1 -53q-10 -157 -113 -370 q-38 -79 -94.5 -157t-130 -146t-163.5 -120t-194 -79q-71 -19 -149 -26q-36 -3 -72 -3q-41 0 -82 4q11 -3 22 -5.5t21 -5.5q71 -21 137 -21h9q70 2 125 13q63 11 120 33l14 13q16 16 30 17q38 0 46 -41q5 -27 0 -50.5t-11 -42.5q-8 -22 -16 -38q-46 -76 -124 -97 q-49 -13 -103 -13q-32 0 -66 4q-90 13 -184 48.5t-177.5 73.5t-147.5 68.5t-91 32.5q-22 3 -35.5 -2.5t-22.5 -10.5q-3 -5 -9.5 -19t7.5 -28q5 -5 8 -6.5t5 -6.5q8 -8 7 -15t-4 -10q-30 -33 -58.5 -41t-50.5 -5q-20 0 -36 16q-25 22 -47 71zM466 277q-9 -58 -9 -106 q0 -51 10 -92q19 -79 65.5 -125.5t99.5 -71t101 -31.5t70 -7q10 -1 22 -1q35 0 87 7q71 8 155.5 51.5t170.5 132.5t157 250q52 120 71 213q15 74 15 137q0 16 -1 32v3q-76 -30 -167 -55q-79 -22 -185 -36q-74 -9 -157 -9q-37 0 -75 2q-22 0 -42.5 2.5t-42.5 5.5 q-49 5 -99.5 13.5t-99.5 21.5q-5 3 -9.5 3t-9.5 3q-8 -14 -15 -28.5t-15 -28.5q-79 -167 -97 -286zM729 847q74 -27 156 -46.5t169 -24.5q27 -3 53 -3h48h3q76 5 133.5 27t101.5 52q38 22 61 48t34 39q38 57 58.5 116t25.5 113q1 12 1 24q0 39 -12 71q-15 42 -48 67 q-47 37 -102 37q-2 0 -5 -1q-57 -1 -106 -17q-57 -20 -112 -55q-104 -66 -224 -176t-235 -271z" />
<glyph unicode="R" horiz-adv-x="1507" d="M57 945q-3 14 0 30q5 106 53 184t122 134t165.5 93t186.5 59q212 49 473 49h30q142 -8 244.5 -38.5t172 -72.5t112 -95.5t63.5 -105.5q30 -78 31 -166q0 -54 -12 -112q-33 -145 -122 -262q-38 -52 -95.5 -102.5t-135.5 -93t-179 -74t-232 -44.5q-19 -3 -37 -3t-37 -3 q16 -66 39.5 -143.5t69.5 -178.5q46 -104 110.5 -169.5t124.5 -103.5q68 -46 139 -71q14 -3 28 -8q11 -5 23 -11t20 -14q15 -16 15 -34q0 -20 -17 -42q-25 -30 -53.5 -48t-53.5 -26q-30 -11 -57 -14q-29 -4 -56 -4q-60 1 -110 21q-72 30 -128 90t-97 143t-71 173.5 t-51.5 182t-38.5 170.5q-15 -88 -15 -170q0 -37 3 -73q10 -115 37 -251q2 -9 2 -18q-1 -27 -19 -47q-19 -21 -46 -22q-8 0 -16 2q-38 8 -82 35q-33 30 -66 71q-62 88 -72 196q-3 33 -3 65q0 77 15 157q5 30 15 68.5t23 81.5q-46 5 -83 15t-64 24q-30 14 -55 32 q-16 11 -35 30.5t-6 40.5q11 16 31.5 37t44 34.5t49.5 20.5t47 -1l17 -9q8 -5 17.5 -10.5t23.5 -11.5q11 -3 22 -8t23 -8t31 -5q14 38 27.5 69.5t27.5 61.5q46 123 92.5 218.5t84.5 160.5q44 76 80 134q3 5 8 11l19 19q14 14 33 22t41 -3q14 -8 34 -27t39 -43.5t33 -54.5 t14 -60q0 -27 -11 -50q-19 -35 -93 -128t-148 -248q-11 -25 -20.5 -48t-17.5 -45q98 3 207.5 20.5t206.5 62.5t170.5 121.5t101.5 196.5q8 31 8 73q0 16 -2 36q-4 66 -47.5 126t-136.5 100q-77 33 -205 32q-26 0 -54 -1q-169 -8 -308.5 -57t-247.5 -113.5t-183.5 -127 t-110.5 -95.5q-29 -27 -53 -27q-6 0 -10 1q-28 7 -40 37q-8 14 -11 30t-6 30z" />
<glyph unicode="S" horiz-adv-x="1228" d="M63 175q11 90 71 161q5 5 8 11h3q16 16 35 32.5t44 30.5t55 24q25 8 57 11q9 1 19 1q25 0 52 -6q49 -10 49 -55v-5q0 -14 -7 -25t-12 -22l-16 -22q-16 -16 -31 -41q-14 -22 -27 -50.5t-24 -63.5q-14 -46 -17 -93q-1 -10 -1 -20q1 -29 7 -63q8 -46 38 -84q0 -3 12 -19 t38 -36.5t67 -37t99 -19.5q9 0 19 -1q67 0 112 20q52 22 82 52q27 25 46 62t30 75t15 75q2 21 2 39q0 13 -1 25q-8 68 -40.5 140.5t-68.5 135.5q-44 71 -93 139q-63 82 -111 176t-64 196q-7 44 -7 90q0 61 13 125q22 112 93 227t155.5 166.5t161.5 65.5q50 9 98 8 q40 0 79 -5q52 -11 101 -41q44 -25 89 -67t81 -105q33 -60 49 -140q8 -40 8 -85.5t-8 -97.5q-14 -76 -44 -147q-27 -74 -62.5 -142t-84.5 -131q-16 -22 -50 -45q-18 -12 -34 -12q-15 0 -28 11q-22 19 -45.5 51.5t-39.5 69.5t-19 75v10q0 32 16 61q8 16 19 32.5t22 33.5 q41 63 67 133.5t26 136.5t-33 117.5t-106 73.5q-22 6 -43.5 5.5t-41.5 -5.5q-35 -8 -70.5 -34t-60.5 -86q-23 -55 -39 -119q-14 -54 -14 -116q0 -11 1 -23q3 -75 26 -164t78 -187q63 -109 112 -216q44 -90 79.5 -193.5t40.5 -182.5q1 -7 0 -17q1 -27 -5 -73 q-8 -63 -44 -131.5t-104 -130t-186 -83.5q-53 -10 -120 -10q-59 0 -128 8q-104 11 -179 46.5t-128.5 84.5t-83.5 107.5t-43 121.5q-15 64 -15 125q0 31 4 61z" />
<glyph unicode="T" horiz-adv-x="860" d="M46 1368q-4 17 -3 34q0 23 6 48q14 49 30 76q8 14 45 52.5t116 59.5q87 22 196 22q38 0 80 -2q158 -10 326 -38t333.5 -61t299.5 -43q134 -13 237 -13q74 0 132 7q138 16 215 44q87 30 123 79q5 16 13 27q5 11 15 19.5t24 10.5q22 5 43.5 -4t35.5 -39q14 -35 15 -68 t-1 -61q-3 -30 -11 -60q-41 -112 -154.5 -164t-265.5 -62q-50 -3 -101 -3q-107 -1 -225 13q-175 20 -338 50q-14 -27 -44 -61.5t-72.5 -92t-95.5 -150t-113 -240.5l-200 -500l-95 -297q-8 -46 -12.5 -76.5t-9.5 -46.5q-11 -38 -45 -58.5t-74 -30t-79.5 -11t-58.5 3.5 q-22 5 -30 20.5t-11 34.5q-3 22 0 46q35 145 88 312q46 142 117 327.5t172 393.5l3 2l60 123q55 115 106.5 205t89.5 156q-44 8 -129.5 25.5t-174.5 35.5q-88 18 -158 30q-60 10 -79 10h-5q-55 -11 -73 -39q-3 -5 -8.5 -25.5t16.5 -36.5l24 -17q14 -8 12.5 -17.5t-3.5 -14.5 q-33 -55 -70 -74t-64 -25q-35 -5 -55 11q-22 11 -45 31.5t-42.5 52t-27.5 69.5z" />
<glyph unicode="U" horiz-adv-x="2195" d="M61.5 1562q1.5 33 14.5 68q14 30 36 39.5t44 4.5t38 -30q8 -11 14 -25q27 -44 79 -76q43 -31 117 -51q59 -16 145 -16q21 0 44 1q126 5 237.5 26t216.5 37t207 22q21 1 43 0q81 0 164 -16q22 -5 72.5 -26t90 -70t46.5 -131q1 -8 0 -15q0 -78 -62 -193 q-98 -172 -159.5 -315t-83.5 -203q-19 -41 -32.5 -83.5t-27.5 -80.5q-11 -30 -34 -105.5t-39 -162.5v-5q-13 -71 -14 -119q0 -20 3 -37q8 -55 24 -82q19 -30 49 -41q13 -2 26 -3q53 0 108 37q68 45 135 123t128.5 176.5t110.5 191t84.5 169t52.5 112.5q3 5 8 22 q41 96 76.5 170.5t57.5 115.5q57 117 110.5 209t91.5 157q46 74 84 134q16 19 33 30q14 11 31.5 16.5t37.5 -8.5q16 -14 42 -41t46.5 -61t28.5 -74q2 -12 2 -23q0 -26 -13 -49q-14 -22 -48 -66t-83 -109.5t-106.5 -155.5t-114.5 -202q-68 -134 -119 -258q-52 -124 -76 -252 q-18 -95 -18 -199q0 -36 3 -73q8 -143 57 -316q3 -11 3 -21q-1 -23 -17 -43q-19 -22 -47 -22q-8 0 -16 2q-44 8 -82 38q-22 14 -38 31.5t-33 36.5q-60 76 -76 168q-12 70 -12 142q0 22 1 45q-90 -134 -210 -225q-105 -80 -235 -80q-19 0 -38 2q-87 14 -145 41 q-89 49 -121 134q-30 81 -31 165q1 4 1 8q2 88 20.5 162.5t26.5 98.5q0 3 1.5 4.5t1.5 3.5v3q38 106 88.5 228t113.5 253q33 76 82 172q14 25 31.5 59t36.5 69q8 14 18 30t20 36q3 5 11.5 20t19 34t19 35.5t13.5 22.5q14 22 15.5 38t-1.5 24q-5 11 -6 14q-8 14 -21.5 22 t-51.5 11h-7q-40 0 -135 -28q-104 -30 -238 -66.5t-286 -66.5q-140 -28 -265 -28q-10 1 -21 1q-135 2 -240 50t-146 168q-8 30 -11 60q-3 27 -1.5 60z" />
<glyph unicode="V" horiz-adv-x="2159" d="M46.5 1526q2.5 33 16.5 69q14 30 35.5 39.5t43.5 3.5q22 -5 38 -30q8 -11 14 -24q30 -44 82 -77q46 -31 117 -51q55 -16 136 -15q24 0 50 1q126 5 237.5 25.5t217.5 36.5q107 16 208 22q20 1 41 1q81 0 164 -17q14 -3 44 -14t61.5 -30t58.5 -51.5t39 -78.5q7 -25 7 -55 q0 -26 -5 -56q-11 -64 -57 -149q-49 -87 -90 -170.5t-75.5 -154.5t-57.5 -127t-34 -86q-33 -82 -57 -164q-11 -27 -38.5 -107.5t-41.5 -168.5q0 -3 -1 -2.5t-1 -2.5q-13 -69 -13 -118q0 -23 4 -43q10 -58 25 -82q44 38 111 105t147.5 151.5t165 180t163.5 188.5 q25 30 51 57.5t48 57.5q14 16 24.5 32.5t24.5 30.5q68 87 121 177t89 191t52 219q14 99 13 216v43q1 38 31 60q16 12 34 12q15 0 31 -9q41 -19 71 -55q33 -49 49 -84q35 -79 35 -161q0 -26 -4 -52q-14 -110 -55 -213q-41 -104 -108 -208t-141 -198t-146 -174.5t-121 -132.5 q-14 -16 -25 -28.5t-22 -23.5q-63 -71 -129.5 -136.5t-128 -120t-113.5 -94t-85 -61.5q-14 -5 -27 -17q-14 -8 -30 -19t-38 -22t-45.5 -21.5t-47.5 -19.5q-33 -8 -60 -8q-11 -1 -22 1q-36 4 -60.5 16.5t-42 27.5t-26.5 26q-41 60 -51 136q-5 44 -5 87q0 31 3 61 q7 71 22 125.5t23 76.5l6 11q3 3 2 8q38 106 94.5 237.5t118.5 262.5q35 76 82 172q14 25 31.5 59t37.5 70q8 14 17.5 30t20.5 35q3 5 11 20.5t19 34.5t19 35.5t14 21.5q14 22 15 38.5t-2 24.5q-3 5 -2.5 8t-2.5 5q-8 14 -22 22.5t-52 10.5h-7q-39 0 -133 -27 q-102 -30 -238 -67t-286 -67q-137 -27 -260 -27h-25q-135 3 -240 50.5t-146 167.5q-8 30 -14 60q-5 27 -2.5 60z" />
<glyph unicode="W" horiz-adv-x="2856" d="M85.5 1570q1.5 33 15.5 68q14 30 35.5 40t43.5 4q22 -5 38 -30q8 -11 14 -25q30 -44 82 -76q46 -31 117 -51q57 -16 143 -16q21 0 43 1q126 5 238 26t218.5 37.5t207.5 21.5l40 2q81 0 164 -18q22 -5 72.5 -26t90.5 -70t46 -131q1 -7 1 -15q0 -78 -62 -192 q-98 -172 -159.5 -315.5t-83.5 -203.5q-16 -41 -31.5 -83.5t-28.5 -80.5q-11 -30 -34.5 -105t-39.5 -163v-5q-13 -71 -13 -119q0 -21 2 -37q8 -54 25 -82q19 -30 49 -41q14 -3 29 -3q60 0 122 48q78 59 152 154.5t139.5 209t114.5 208.5q30 71 61.5 143.5t66.5 143.5 q8 19 18 37t18 40q52 137 53 241.5t1 178.5q0 44 25 56t55 4q11 -5 19 -10.5t19 -11.5q16 -11 22 -16l8 -8q63 -71 82 -150q4 -22 6 -76q0 -3 1 -5q0 -52 -26 -130q-5 -19 -12 -35.5t-16 -37.5q-55 -112 -93 -199.5t-54 -128.5q-33 -82 -57 -164q-11 -27 -38.5 -107.5 t-41.5 -168.5q0 -3 -1 -2.5t-1 -2.5q-13 -69 -13 -118q0 -23 4 -43q10 -58 25 -82q44 38 111 105t147.5 151.5t165 180t163.5 188.5q25 30 51 57.5t47 57.5q14 16 25 32.5t25 30.5q68 87 121 177t89 191t52 219q14 99 13 216v43q0 38 30 60q16 12 34 12q15 0 32 -9 q41 -19 71 -55q33 -49 49 -84q35 -78 34 -160q0 -27 -3 -53q-15 -110 -55 -213q-41 -104 -108 -208t-141 -198t-146 -174.5t-122 -132.5q-14 -16 -24.5 -28.5t-21.5 -23.5q-63 -71 -130 -136.5t-128 -120t-113 -94t-85 -61.5q-14 -5 -27 -17q-14 -8 -30.5 -19t-38.5 -22 t-45 -21.5t-47 -19.5q-33 -8 -60 -8q-11 -1 -22 1q-36 4 -60.5 16.5t-42 27.5t-26.5 26q-30 44 -42 92t-15 99q-86 -112 -196 -184q-94 -61 -204 -61q-20 0 -40 2q-87 14 -144 41q-90 49 -122 134q-31 82 -30 168v5q1 88 20.5 162.5t27.5 98.5q0 3 1.5 4.5t1.5 4.5v2 q38 106 88.5 228t113.5 253q19 38 38 81.5t44 90.5q14 25 31.5 59t36.5 69q8 14 17.5 30.5t20.5 35.5q3 5 11 20t19 34t19 35.5t14 22.5q14 22 15 38t-1 25q-5 11 -6 13q-8 14 -21.5 22t-52.5 11h-8q-42 0 -135 -27q-102 -30 -236 -67q-133 -37 -285 -67q-140 -28 -266 -28 q-10 1 -21 1q-135 2 -240.5 50t-146.5 168q-8 30 -11 60q-3 27 -1.5 60z" />
<glyph unicode="X" horiz-adv-x="1886" d="M33 1144q3 33 20.5 50.5t42.5 20.5q11 3 21.5 -2.5t21.5 -11.5l22 -16q41 -27 101 -38q26 -4 58 -4t70 4q76 8 183 57q117 55 218.5 116.5t197 118.5t191 102.5t202.5 66.5q22 3 76.5 2.5t107.5 -28.5q52 -28 84 -100q18 -41 18 -105q0 -48 -10 -110 q-30 -139 -46.5 -264.5t-24.5 -216.5q11 8 19 16.5t19 16.5q87 74 163.5 152t139.5 170.5t112 204.5t84 251q8 37 42 53q13 6 26 6q20 0 39 -15q35 -33 55 -68q16 -44 24 -93q3 -26 3 -52q0 -82 -33 -161q-44 -104 -112 -199q-55 -79 -130 -154.5t-155.5 -143.5t-161 -128 t-148.5 -110v-35v-46v-70t2.5 -83.5t8.5 -87.5v-5q14 -104 37 -188.5t47 -103.5q11 -5 22 -11q8 -5 19 -9.5t20 -1.5q22 5 31 -12.5t-4 -31.5q-14 -14 -23.5 -26t-31.5 -29q-41 -27 -75 -36.5t-62.5 -8t-50.5 8t-33 15.5q-57 38 -88.5 116t-45 159.5t-15 150t-1.5 90.5v22 q3 19 3 38t2 41q-131 -109 -211.5 -211.5t-125.5 -194t-67 -168t-38 -136.5q-14 -46 -42.5 -54.5t-58.5 10.5q-14 8 -23.5 17.5t-17.5 20.5q-11 11 -16 25q-42 82 -42 164q0 19 2 38q12 101 64 199.5t131 187t166.5 163.5t168 132.5t132.5 90.5l25 180q8 82 24 191 q5 27 11 65.5t14 76.5q5 19 8 37t8 40q0 5 4 24t8.5 39.5t7 38.5t5.5 26q5 25 2.5 40t-8.5 23l-11 11q-11 8 -26 10.5t-53 -10.5q-38 -14 -126.5 -81t-206 -153t-251.5 -174t-264 -138q-119 -46 -226 -46h-19q-116 4 -193 97q-19 19 -30 50q-14 23 -22 55q-6 24 -6 50 q0 10 1 20z" />
<glyph unicode="Y" horiz-adv-x="2280" d="M136.5 1526q2.5 33 16.5 69q14 30 35.5 39.5t43.5 3.5q22 -5 38 -30q8 -11 14 -24q30 -44 82 -77q46 -30 117 -51q55 -15 136 -15q24 0 50 1q126 5 238 25.5t218.5 37t207.5 21.5q20 2 40 2q82 0 164 -18q22 -5 72.5 -25.5t90 -70t46.5 -131.5q1 -8 1 -16q0 -78 -62 -191 q-96 -172 -158.5 -315.5t-84.5 -203.5q-16 -41 -31.5 -83.5t-28.5 -80.5q-11 -30 -34.5 -105t-36.5 -162q0 -3 -1.5 -3t-1.5 -3q-13 -71 -13 -119q0 -20 2 -37q8 -54 25 -81q19 -30 49 -41q13 -2 27 -2q64 0 135 54q86 65 168 167.5t153 224t123 216.5q22 44 42.5 93 t39.5 94.5t31.5 79t17.5 47.5q33 98 60 198t52 201q14 57 25 118.5t32 116.5q14 35 45.5 55.5t69.5 30.5q29 8 60 8q10 0 19 -1q41 -3 74 -11q30 -11 32.5 -46.5t-2.5 -60.5q-46 -139 -95.5 -275.5t-101.5 -275.5q-35 -93 -72 -197t-75 -209t-82 -208.5t-90 -199.5 q-25 -60 -68.5 -153t-105 -202t-138 -225t-169.5 -220q-52 -63 -155.5 -154.5t-259.5 -154.5q-101 -41 -223 -61q-67 -11 -142 -11q-60 0 -124 7q-126 11 -205 53t-124 97t-61 117.5t-19 120.5v23q0 67 15 116q18 57 34 90q14 22 29 44t37 43q46 52 117 93t175 55 q46 10 103 10q24 0 50 -2q79 -3 155.5 -15t149.5 -37q25 -11 58 -34q25 -17 25 -40q0 -8 -3 -16q-14 -30 -37 -63t-53 -58.5t-66 -40.5q-26 -11 -53 -11q-9 0 -18 1q-19 5 -37 9.5t-37 9.5q-74 19 -143.5 19t-126.5 -23t-98 -68t-55 -119q-6 -26 -6 -49q0 -20 4 -37 q10 -37 29 -63t44 -42.5t49 -24.5q8 -3 52 -12q33 -8 83 -8q16 0 33 1q73 3 165.5 30t196.5 98q25 16 49.5 35.5t48.5 41.5q63 52 123 120t116 144.5t108 157t98 160.5q-71 -63 -153 -97q-65 -28 -141 -28q-18 0 -36 2q-90 11 -148 41q-90 49 -120 133.5t-30 173.5 t19.5 162.5t27.5 98.5q0 3 1 4t1 4v3q38 106 89 227.5t114 252.5q35 76 81 172q14 25 32 59t37 70q8 14 17.5 30t20.5 35q3 5 11 20.5t19 34.5t19 35.5t14 21.5q14 22 15 38.5t-2 24.5q-3 5 -2.5 8t-2.5 5q-8 14 -22 22.5t-52 10.5h-7q-40 0 -133 -27q-103 -30 -238 -67 t-286 -67q-136 -27 -260 -27h-25q-135 3 -240 50.5t-146 167.5q-8 30 -14 60q-5 27 -2.5 60z" />
<glyph unicode="Z" horiz-adv-x="1376" d="M79 -76q-4 28 -4 55q1 75 29 144q38 95 101 183q55 82 157 185.5t225 213.5h-47.5t-34.5 -3q-16 -3 -33 -3q-30 5 -51.5 27t-36.5 53.5t-23.5 64.5t-8.5 60q0 30 33 38t57 8q96 -5 171 -31t149 -67q74 60 143.5 116t127 101t99.5 78t64 49q93 68 180 115 q-100 -25 -204 -40q-54 -8 -106 -8q-46 1 -88 7q-90 14 -158.5 64t-98.5 157q-8 30 -11 60q-3 27 1 58.5t21 67.5q14 30 37 39.5t45 1.5q16 -8 33 -33q8 -11 13 -25q27 -46 77 -82q44 -30 114.5 -56t185.5 -26t195.5 11t151.5 25q14 3 45 4h8q27 0 59 -6q36 -6 65.5 -24 t43.5 -53q8 -27 12 -60q3 -26 3 -52v-13q-1 -32 -13.5 -60t-39.5 -45q-22 -14 -72.5 -35.5t-124.5 -58.5t-166.5 -88.5t-193.5 -125.5q-57 -41 -121.5 -90t-132.5 -107q66 -57 102.5 -116t51.5 -108q14 -45 14 -78v-6q-2 -36 -13 -47q-11 -14 -20.5 -12.5t-14.5 7.5 q-11 8 -17 19q-46 87 -102 146t-113 97q-161 -150 -306 -329t-219 -373q19 -3 38.5 -4t41.5 -4q110 -10 199 -10q100 0 174 12q140 24 219 61q90 41 129 101q5 14 13 24q14 25 38 33q22 5 44 -5.5t36 -40.5q14 -35 15 -68t-2 -61q-3 -30 -11 -60q-35 -98 -130.5 -150 t-225.5 -68q-78 -10 -164 -10q-58 0 -119 4q-153 11 -303 36q-71 14 -116 45t-69.5 64t-34 63t-12.5 44z" />
<glyph unicode="`" horiz-adv-x="466" d="M61.5 860q-1.5 22 5.5 48t19 50.5t26 40.5q46 52 102 30.5t102.5 -73.5t75.5 -111t20 -75q-14 -33 -16.5 -30t-35.5 5q-8 0 -43.5 8.5t-79 20.5t-87.5 26t-68 27q-19 11 -20.5 33z" />
<glyph unicode="a" horiz-adv-x="914" d="M-37 33q4 93 56 232t117.5 225t131 131t129.5 53q20 3 38 3q41 0 76 -13q41 -16 61.5 -46.5t28.5 -65.5q14 27 24 54q5 11 11 22q5 16 17 27q8 11 19 19.5t24 2.5q25 -8 66 -32.5t76 -65.5q11 -11 14 -27q3 -14 -1 -36t-21 -52q-11 -19 -32.5 -60t-47.5 -94t-51 -112 q-25 -60 -39 -110q-11 -41 -11 -72q0 -8 1 -14q3 -36 30 -43q8 -3 17 -3q22 0 47 20q34 28 67 71t59 91t42 78q3 11 14 22q19 19 49 16q27 -8 27 -33q0 -11 -5 -24q-16 -35 -47.5 -94t-71.5 -119t-85 -113.5t-94 -80.5q-30 -19 -60 -23.5t-55 -1.5q-30 3 -54 11 q-56 24 -76 76q-18 45 -17 105v18q-63 -96 -138 -150q-69 -49 -131 -49h-12q-49 3 -97 27.5t-74 80.5q-23 49 -23 125q0 12 1 24zM180 -44q8 -33 36 -38q6 -1 13 -1q45 0 88 49q49 56 90 127q46 82 90 191q0 3 3 5l8 25q16 57 19 91.5t-4 55t-16.5 27t-14.5 9.5 q-8 3 -27.5 1.5t-51 -26t-72.5 -82t-93 -169.5q-52 -115 -62 -175q-7 -41 -8 -68q0 -12 2 -22z" />
<glyph unicode="b" horiz-adv-x="704" d="M-10 22v24q0 48 5 99q14 145 68 319q82 240 173.5 437t167.5 336q90 164 178 289q16 19 32 30q14 11 32 16.5t37 -7.5q16 -14 43.5 -41.5t47.5 -63.5q22 -35 28 -73q2 -10 1 -19q0 -28 -14 -55q-14 -25 -54.5 -75t-96.5 -129.5t-121.5 -187t-131.5 -241.5q25 22 55 34 q21 8 46 8q10 0 22 -1q63 -8 95.5 -52t44.5 -101q9 -43 10 -89q0 -15 -1 -29q-4 -62 -13 -109q66 22 123.5 64.5t87.5 69.5q14 14 24 19q11 5 18 2.5t12 -24.5q3 -16 0 -30t-7 -30t-15 -30q-38 -49 -114.5 -94t-163.5 -56q-25 -66 -66 -154.5t-99.5 -165t-132.5 -121.5 q-48 -29 -102 -29q-30 0 -62 9q-55 14 -88.5 50.5t-50 88.5t-18.5 112zM176 -6q2 -40 12 -62q11 -25 30 -30q10 -3 21 -3q25 0 53 18q38 26 72.5 75t65.5 114.5t53 133.5q-44 14 -79 41q-55 44 -75 107q-16 50 -16 102q0 13 1 26q-38 -93 -68.5 -194t-57.5 -213 q-13 -67 -13 -106q1 -5 1 -9zM418 475q0 -33 9.5 -57.5t24.5 -39.5t31.5 -24.5t27.5 -12.5q15 57 17 105v17q0 36 -9 59q-8 19 -24.5 30t-33 6.5t-30 -23.5t-13.5 -60z" />
<glyph unicode="c" horiz-adv-x="704" d="M-40 -30q-1 17 -1 34q0 38 6 75v3q14 82 51 183q52 139 116.5 225t131 131t130.5 53q20 3 39 3q41 0 75 -13q38 -14 58.5 -41.5t28.5 -60t8 -65.5t-5 -60q-3 -14 -26 -25t-34 -13q-8 -3 -14 2q-3 3 -2 6q1 14 1 25q0 34 -11 46q-15 16 -26 19q-5 3 -24.5 1.5t-50.5 -26 t-72 -82t-93 -169.5q-30 -60 -41 -101q-5 -16 -13 -50q-7 -29 -8 -60v-10q2 -35 17 -68t53 -47q11 -5 22 -5h3q3 0 5 -3q15 -2 30 -2q33 0 63 8q44 11 80.5 31t65.5 46t50 51q5 5 17 22q8 8 12 13.5t10 10.5q30 41 54.5 85t38.5 74q3 11 13 22q19 19 49 16q16 -5 20.5 -13.5 t4.5 -19.5t-6 -24q-27 -57 -76 -145q-11 -27 -52 -85q-5 -8 -13.5 -17.5t-16.5 -23.5q-55 -63 -135.5 -124t-189.5 -67q-19 -2 -37.5 -2.5t-36.5 2.5q-101 11 -157 46.5t-83 87.5q-25 46 -29 101z" />
<glyph unicode="d" horiz-adv-x="936" d="M-37 6q4 92 56 232q52 139 117.5 225t131 131t129.5 53q19 2 37 3q42 0 77 -14q57 -22 79 -76q79 221 166.5 398.5t158.5 305.5q85 150 161 265q16 19 33 30q14 11 31.5 16.5t33.5 -8.5t43.5 -41t48 -62.5t28.5 -73.5q3 -11 3 -22q0 -26 -14 -52q-16 -25 -62.5 -83.5 t-110.5 -150t-136.5 -217t-140.5 -283.5q-44 -104 -82 -221.5t-68 -248.5q-12 -62 -12 -106q0 -14 1 -25v-8q5 -30 30 -39q8 -3 17 -3q23 0 47 21q34 29 67 71.5t59 90t42 77.5q3 11 14 22q19 19 49 16q27 -8 27 -32q0 -11 -5 -25q-22 -46 -68.5 -131t-106.5 -158 q-14 -19 -28 -36q-27 -33 -54 -55q-5 -3 -6.5 -4t-7.5 -4q-16 -14 -38 -23t-49 -12q-25 0 -38 3q-46 11 -73.5 50.5t-41.5 84.5t-19.5 86t-5.5 57q-33 -66 -73.5 -117.5t-83.5 -88.5q-42 -38 -86 -58q-38 -18 -73 -17h-11q-49 3 -97 27.5t-74 80.5q-23 49 -23 124q0 13 1 25 zM180 -71q8 -33 36 -38q6 -1 13 -1q45 0 88 49q49 56 90 127q46 82 90 191q25 67 29 107q2 17 2 31q0 19 -4 33q-6 24 -16.5 31.5t-18.5 10.5q-5 3 -24.5 1.5t-51 -26t-72.5 -82t-93 -169.5q-52 -115 -62 -175q-7 -41 -8 -68q0 -12 2 -22z" />
<glyph unicode="e" horiz-adv-x="704" d="M-40 -30q-1 17 -1 34q0 38 6 75v3q13 82 51 183q52 139 117.5 225t131 131t129.5 53q20 3 39 3q41 0 75 -13q46 -19 66.5 -56t26.5 -78q3 -14 4 -30.5t-2 -38.5q-3 -38 -19 -99.5t-59.5 -124t-124.5 -118.5t-214 -81q-2 -15 -1 -29q1 -31 7 -61q10 -44 62 -63 q11 -5 25 -5h2l3 -3q15 -2 30 -2q33 0 63 8q44 11 80.5 31t65.5 46t50 51q5 5 9.5 10.5t10.5 11.5q16 22 19 24q30 41 54.5 85t38.5 74q3 11 13 22q19 19 49 16q16 -5 20.5 -13.5t4.5 -19.5t-6 -24q-14 -27 -31.5 -64t-44.5 -81q-11 -27 -52 -85q-5 -8 -12 -17.5t-18 -23.5 q-55 -63 -135.5 -124t-189.5 -67q-16 -2 -34.5 -2.5t-39.5 2.5q-101 11 -157 46.5t-83 87.5q-25 46 -29 101zM216 150q74 11 125.5 46.5t87 79t53.5 86t20 69.5q5 49 -9.5 59t-20.5 10q-14 0 -35.5 -9.5t-50 -38.5t-64 -83.5t-76.5 -147.5q-11 -22 -18 -38t-12 -33z" />
<glyph unicode="f" horiz-adv-x="450" d="M-122 -600q5 95 30.5 216.5t65.5 258t86 267.5h-25h3q-14 0 -22 13.5t-10.5 31.5t-2.5 35.5v25.5q0 19 13 14q36 -11 80 -16q63 177 110.5 300t52.5 137q79 199 160 360t144 276q74 131 144 235q16 19 33 30q14 11 33 16.5t35 -8.5t43.5 -41t48 -62.5t28.5 -74.5 q3 -11 3 -23q0 -26 -13 -50q-14 -25 -58 -79.5t-104 -139t-129.5 -199.5t-134.5 -259q-33 -71 -75.5 -172.5t-86.5 -218.5q35 11 64 22t51 19q14 5 25 5t23 -2.5t26 -16.5q11 -14 7 -23t-10 -18q-11 -11 -22 -16q-25 -11 -65.5 -26t-87.5 -31q-5 -3 -16 -6t-27 -8 q-8 -27 -16.5 -54.5t-16.5 -54.5q-22 -68 -38.5 -131t-29.5 -123q-49 -221 -61 -373q-11 -122 -11 -188q0 -16 1 -29q0 -22 -7 -31.5t-13 -14.5q-8 -5 -16 -6q-9 -1 -17 -1q-39 0 -69 12q-37 14 -59 33q-30 22 -46 49q-22 38 -22 110q0 15 1 30z" />
<glyph unicode="g" horiz-adv-x="879" d="M-45 19q4 93 56 232q14 35 28.5 67t28.5 62q46 85 95.5 140.5t101.5 91.5q66 41 127 49q18 2 35 2q41 0 75 -13q41 -16 61.5 -46.5t29.5 -65.5q5 16 12 30t12 25t11 21q5 16 16 28q8 11 19 19t25 3q22 -8 63 -33t79 -66q11 -11 14 -27q3 -14 -1.5 -35.5t-20.5 -51.5 q-8 -16 -26 -48t-39.5 -74t-43.5 -91.5t-39 -95.5q-5 -19 -14.5 -45t-15.5 -62q-5 -14 -6.5 -24.5l-3.5 -24.5q5 5 8 6q25 27 49 49t49 44q49 46 98 85.5t80 61.5q14 8 24 11q25 5 36 -22q8 -30 -9 -49q-8 -11 -16 -19q-25 -19 -61.5 -49t-72.5 -66q-38 -35 -75 -74.5 t-75 -86.5q-14 -14 -24.5 -30t-24.5 -33v-30t3 -30q0 -16 1 -31t4 -32q14 -82 15 -171v-16q0 -80 -9 -158q-9 -86 -33.5 -162.5t-62.5 -131.5q-5 -5 -9.5 -10.5t-9.5 -13.5q-16 -16 -27 -25q0 -3 -3 -2q-27 -22 -65 -41q-31 -15 -66 -15q-9 0 -19 1q-41 3 -68.5 12.5 t-46.5 22.5q-22 14 -33 30q-34 44 -34 116v15q4 82 41 182t98.5 210.5t140.5 217.5q-8 71 -9.5 122.5t-1.5 87.5q-63 -96 -138 -150q-69 -50 -132 -50h-11q-49 3 -95.5 27.5t-72.5 80.5q-23 49 -23 125q0 12 1 24zM172 -57q8 -33 33 -39q7 -1 13 -1q45 0 90 49q50 56 91 127 q49 82 90 191v6l8 24q16 57 19 91.5t-4 55t-16.5 27t-14.5 9.5t-24.5 1.5t-51 -26t-72.5 -82t-93 -168.5q-52 -115 -62 -175q-8 -41 -8 -68q0 -12 2 -22zM274 -882q5 -36 29 -52q14 -11 41 -14q41 0 69.5 19.5t46.5 50.5t26 72t11 85q1 19 1 40q0 85 -17 187q-11 41 -17 79 q-55 -87 -95.5 -165t-65.5 -135q-3 -5 -12.5 -34t-14.5 -63q-4 -19 -4 -39q0 -16 2 -31z" />
<glyph unicode="h" horiz-adv-x="882" d="M-76 -186q0 52 10.5 116.5t24.5 130t31.5 126.5t31.5 111q11 38 23.5 74.5t20.5 61.5q38 106 68 178q79 216 162.5 389t154.5 296q82 145 158 257q16 19 33 30q14 11 31.5 16.5t36.5 -8.5q16 -14 43.5 -41t48.5 -63q20 -36 27 -74q2 -10 2 -19q0 -28 -15 -54 q-14 -25 -57.5 -78t-102 -136.5t-127 -197t-133.5 -255.5q-25 -55 -76.5 -179t-106.5 -290q52 90 113.5 181.5t124 162.5t121.5 108q37 23 70 23q20 0 38 -8q25 -11 61.5 -34.5t66.5 -58.5q11 -11 14 -27q3 -14 -1.5 -36t-20.5 -52q-11 -19 -33 -60t-47.5 -94t-50.5 -112 q-25 -60 -39 -110q-12 -45 -11 -78q-1 -4 -1 -8q2 -36 29 -43q9 -3 18 -3q24 0 49 20q34 28 67 71t59 91t42 78q3 11 14 22q19 19 49 16q16 -5 20 -13.5t4 -19.5t-5 -24q-16 -35 -46.5 -94t-70 -119t-86 -113.5t-95.5 -80.5q-30 -19 -60 -23.5t-54 -1.5q-30 3 -55 11 q-66 33 -82 112q-8 41 -8 87q0 43 7 92q15 100 49 205t69 189h-2q-76 -76 -153 -182q-66 -90 -139.5 -222.5t-136.5 -307.5q-3 -16 -12.5 -19t-14.5 -3q-63 5 -97 31t-51 48q0 3 -1 4.5t-1 3.5z" />
<glyph unicode="i" horiz-adv-x="436" d="M-40 -41v12q0 58 14 126q15 75 37 149q52 172 150 382q5 16 16 27q8 11 19.5 19.5t24.5 2.5q25 -8 66 -32.5t76 -65.5q11 -11 14 -27q3 -14 -1.5 -36t-20.5 -52q-11 -19 -33 -60t-48 -94t-50 -112q-24 -60 -38 -110q-11 -43 -12 -74v-12q2 -36 31 -43q8 -3 17 -3 q22 0 47 20q34 28 67 71t59 91t42 78q3 11 14 22q19 19 49 16q27 -8 27 -33q0 -11 -5 -24q-16 -35 -48 -94t-71.5 -119t-84.5 -113.5t-94 -80.5q-30 -19 -60 -23.5t-55 -1.5q-30 3 -54 11q-49 22 -71 71t-24 112zM268 837q11 45 24 70q14 22 26 38t21 30l16 24q14 19 27 30 q14 11 27.5 15.5t32.5 -9.5q16 -11 39.5 -35.5t41.5 -54.5q19 -30 25 -64q2 -10 1 -19q0 -24 -11 -46q-11 -16 -31.5 -43.5t-55.5 -73.5q-14 -16 -36 -15t-46.5 13.5t-46 29t-35.5 32.5q-22 24 -22 55q0 11 3 23z" />
<glyph unicode="j" horiz-adv-x="406" d="M-310 -844q4 82 41 181.5t98.5 210.5t140.5 217q-8 63 -9.5 112t-1.5 85q0 41 6 71q8 96 39 201t67 192q41 104 90 202q5 16 16 27q8 11 19.5 19.5t24.5 2.5q25 -8 66 -32.5t76 -65.5q11 -11 14 -27q3 -14 -1.5 -36t-20.5 -52q-8 -16 -26 -47.5t-39.5 -74t-43.5 -91.5 t-38 -95q-5 -19 -13.5 -45t-17.5 -62q-3 -14 -5.5 -24.5t-4.5 -24.5q5 5 8 5q25 27 49 49t49 44q52 46 100 86t78 62q14 8 24 11q25 5 36 -22q8 -30 -9 -49q-8 -11 -16 -19q-25 -19 -62 -49.5t-72 -65.5q-38 -35 -75 -75t-75 -86q-14 -14 -24.5 -30.5t-24.5 -32.5v-30t3 -30 q3 -16 2.5 -31.5t5.5 -31.5q11 -82 14 -171v-32q0 -72 -9 -142q-11 -86 -35.5 -162.5t-62.5 -131.5q-5 -5 -9.5 -10.5t-9.5 -13.5q-16 -16 -27 -25q0 -3 -3 -3q-27 -22 -66 -41q-29 -14 -62 -14q-11 0 -22 1q-41 3 -68.5 12t-46.5 23q-8 5 -16.5 12t-16.5 18q-34 44 -34 116 v15zM-192 -868q4 -36 28 -52q14 -11 41 -14q41 0 69.5 19t46.5 50.5t26 72.5t11 85q1 19 1 40q0 85 -17 186q-5 22 -9.5 41t-7.5 39q-55 -87 -94.5 -165t-66.5 -136q-3 -5 -12.5 -34t-15.5 -63q-3 -19 -3 -38q0 -16 3 -31zM282 837q10 45 27 70q14 22 26 38t20 30l16 24 q14 19 28 30t27.5 15.5t32.5 -9.5q16 -11 38 -35.5t41 -54.5t24 -64q2 -9 2 -17q0 -25 -12 -48q-8 -16 -30 -43.5t-55 -73.5q-14 -16 -35.5 -15t-46.5 13.5t-48 29t-37 32.5q-20 24 -20 55q0 11 2 23z" />
<glyph unicode="k" horiz-adv-x="884" d="M-74 -186q0 52 11 116.5t24.5 130t31.5 126.5t32 111q14 38 24.5 75t18.5 61q19 52 37 95.5t32 82.5q79 216 163.5 389t155.5 296q82 145 156 257q16 19 32 30q14 11 32 16.5t37 -8.5q16 -14 43.5 -41t47.5 -63q22 -36 28 -74q2 -10 1 -19q0 -28 -14 -54q-14 -25 -56 -78 t-101 -136.5t-127 -197t-134 -255.5q-27 -55 -79 -179t-106 -290q52 90 113 181.5t124 162.5t122 108q37 23 70 23q20 0 38 -8q25 -11 61.5 -34.5t66.5 -58.5q11 -11 14 -27q3 -14 -1.5 -36t-20.5 -52q-14 -27 -52 -98t-71 -150q-11 -16 -35.5 -16.5t-52 6.5t-53.5 18 t-39 19q-22 11 -26 26t-2 20q14 46 30.5 90t32.5 82h-3q-16 -14 -35 -35q-16 -19 -38 -45t-49 -62q-8 -19 -16 -50q-10 -31 -12 -69q-1 -11 0 -22q0 -28 4 -56q6 -40 29 -73q25 -44 74 -71q49 -22 89 -28q22 -4 41 -4q15 0 28 2q38 8 67 28.5t42 34.5q38 46 74 106t55 99 q3 11 13 22q20 19 50 16q27 -8 27 -33q0 -11 -6 -24q-27 -55 -79 -148t-117 -172q-19 -19 -46.5 -41t-64.5 -38q-38 -16 -84 -24q-18 -3 -36 -4q-31 0 -64 9q-57 16 -98 46t-70 67t-46.5 78t-28.5 76q-33 -66 -65.5 -139.5t-63.5 -157.5q-3 -16 -12 -19t-15 -3 q-63 5 -98.5 31t-51.5 48h3q-5 5 -6 8z" />
<glyph unicode="l" horiz-adv-x="442" d="M-9.5 121.5q1.5 28.5 4.5 58.5q5 60 17.5 116t22.5 100q11 49 28 96q82 240 173.5 436.5t167.5 335.5q90 164 178 290q16 19 32 30q14 11 32 16.5t37 -8.5q16 -11 43.5 -38.5t47.5 -63.5q22 -34 28 -74q2 -10 1 -20q0 -28 -14 -53t-61.5 -83.5t-110.5 -151t-136.5 -217 t-139.5 -282.5q-46 -104 -83 -221.5t-67 -250.5q-11 -44 -12.5 -75.5t1.5 -53.5v-11q5 -30 28 -38q8 -2 15 -2q26 0 52 21q34 27 66.5 71t58.5 91.5t42 77.5q3 8 14 20q8 5 20.5 12t28.5 4t20.5 -11t4.5 -19t-6 -27q-22 -46 -68 -129.5t-104 -160.5q-14 -16 -27 -33 q-14 -14 -29 -28.5t-28 -25.5l-11 -11q-16 -11 -39.5 -20.5t-50.5 -12.5q-11 -3 -39 3q-52 11 -79 56t-41 97q-14 60 -16 131q-3 30 -1.5 58.5z" />
<glyph unicode="m" horiz-adv-x="1261" d="M-74 -158q3 52 14 113t24.5 122.5t30 119t30.5 103.5q11 38 23 74l20 60q11 27 14 41q14 44 29 83.5t28 69.5q14 33 25 63q0 3 3 5q0 3 5 14q8 11 19 22t30 5q22 -5 60 -25.5t74 -58.5q3 -3 5 -11q3 -5 6 -13.5t3 -19.5q0 -14 -3 -29t-16 -34q0 -5 -3 -8q-3 -5 -16.5 -34 t-24.5 -51q-8 -22 -19 -46.5t-17 -40.5l-24 -66q44 79 93 155.5t99.5 131.5t99.5 79q28 14 53 14q19 0 37 -8q25 -11 60.5 -33t67.5 -57q8 -14 11 -30q3 -14 0.5 -36t-19.5 -52q-8 -14 -24.5 -42.5t-35.5 -66.5t-41 -83t-38 -89q46 90 102 187t116 172q60 74 119 114 q37 25 70 25q20 0 38 -9q25 -11 60.5 -33t67.5 -57q8 -14 11 -30q3 -14 0.5 -36t-19.5 -52q-11 -19 -32.5 -60t-47.5 -94t-50 -112q-25 -60 -39 -110q-13 -46 -13 -78v-8q2 -36 29 -43q8 -2 15 -2q26 0 52 21q34 27 67 71t59 91.5t42 77.5q3 11 14 22q16 16 49 14 q16 -3 20 -11t4 -19t-5 -27q-16 -35 -46 -93t-70 -118t-86 -114.5t-96 -81.5q-30 -16 -60 -20.5t-54 -1.5q-30 3 -55 11q-68 30 -83 109q-8 42 -8 89q0 43 6 91q14 101 49.5 206.5t71.5 189.5l-6 -3q-55 -71 -115 -166q-52 -82 -113 -205t-121 -284q-8 -14 -18 -20.5 t-18 -12.5q-8 -3 -16 -2.5t-14 0.5q-22 3 -39.5 9.5t-25.5 11.5q-55 38 -65 119q-3 30 -3 61q1 56 11 116q16 96 50 196.5t67 179.5l-6 -3q-60 -76 -123 -182q-55 -90 -120 -222.5t-128 -304.5q-3 -16 -12.5 -20.5t-15.5 -4.5q-55 5 -86 24.5t-50 40.5q-14 14 -14 33 q-3 11 0 17z" />
<glyph unicode="n" horiz-adv-x="884" d="M-71 -158q3 52 14 113t24.5 122.5t28.5 119t29 103.5q14 38 26 74l20 60q3 14 14 41q14 44 28.5 83.5t28.5 69.5q14 33 25 63q0 3 2 5q0 3 6 14q5 11 17.5 22t28.5 5q22 -5 61.5 -25.5t72.5 -58.5q3 -3 8 -11q3 -5 5.5 -13.5t2.5 -19.5q0 -27 -19 -63q0 -3 -1 -4t-1 -4 q-5 -5 -18 -34t-23 -51q-11 -22 -22 -46.5t-17 -40.5q-14 -38 -27 -76t-27 -82q52 90 113 181.5t124 162.5q63 72 122 108q36 22 68 22q21 0 40 -10q27 -11 62.5 -33t65.5 -57q11 -14 14 -30q3 -14 -1.5 -36t-20.5 -52q-11 -19 -33 -60t-48 -94t-50 -112q-25 -60 -37 -110 q-11 -47 -11 -80v-6q1 -36 29 -43q7 -2 14 -2q23 0 51 21q36 27 67 71t58.5 91.5t41.5 77.5q3 11 13 22q16 16 50 14q27 -3 27 -30q0 -11 -6 -27q-16 -35 -47.5 -93t-71 -118t-84.5 -114.5t-94 -81.5q-30 -16 -60 -20.5t-55 -1.5q-30 3 -55 11q-68 30 -83 109q-8 42 -8 89 q1 43 7 91q14 101 49 206.5t68 189.5l-3 -3q-79 -74 -152 -180q-66 -90 -138.5 -222.5t-135.5 -306.5q-3 -16 -12 -20.5t-15 -4.5q-55 5 -87.5 24.5t-48.5 40.5q-14 14 -14 33q-3 11 0 17z" />
<glyph unicode="o" horiz-adv-x="715" d="M-14 115q5 71 22 135t36 113q22 57 46 107q46 87 101 144q46 48 109 76q24 11 50 11q41 0 84 -27q28 27 62 41q25 10 52 10q10 0 20 -1q60 -8 90 -52t37 -102q3 -26 3 -52q0 -34 -4 -68q-8 -62 -20 -106q71 22 131.5 63t90.5 71q14 14 24 19q11 5 18 2.5t10 -24.5 q3 -16 0 -33q-5 -33 -25 -57q-44 -49 -123 -94t-169 -59q-30 -66 -78 -154.5t-110.5 -165t-140.5 -121.5q-50 -29 -104 -29q-30 0 -61 9q-49 14 -79.5 48t-48 81.5t-23.5 103.5q-3 29 -2 58q0 27 2 53zM169 0q3 -44 14 -66q11 -27 33 -32q10 -3 21 -3q26 0 55 19 q41 27 79.5 76.5t72.5 115t61 133.5q-38 11 -74 41q-45 38 -63 92q-14 42 -14 87q0 13 1 26q-35 -35 -65.5 -95.5t-51.5 -123.5q-28 -71 -50 -153q-19 -65 -19 -107v-10zM456 475q-3 -33 5.5 -56t22 -39.5t30 -26t27.5 -12.5q28 90 28 146q0 21 -4 37q-5 19 -21.5 29 t-34 5.5t-33 -23.5t-20.5 -60z" />
<glyph unicode="p" horiz-adv-x="827" d="M-248 -1120q3 134 21 295q16 139 48 325t94 407q5 25 13.5 55t16.5 63q5 19 12.5 38t12.5 41q11 35 19 69.5t19 64.5q8 30 15 54.5t15 46.5q11 38 23.5 75t20.5 61q11 27 14 41q14 44 28.5 83.5t28.5 69.5q14 33 24 63q0 3 3 5l6 11q5 14 17.5 25t28.5 5 q22 -5 61.5 -25.5t75.5 -58.5l2 -3l6 -11q5 -16 5 -30q0 -27 -19 -63q0 -3 -1.5 -4t-1.5 -4q-3 -5 -16.5 -34t-24.5 -51q-5 -16 -13 -34t-14 -34q33 46 72.5 95.5t82 87.5t83.5 57q26 12 48 12q13 0 25 -4q46 -19 82 -49q30 -25 55 -61.5t27 -91.5q0 -38 -11 -107.5 t-35.5 -148.5t-64 -160t-94 -145t-125.5 -103q-63 -36 -139 -36q-9 0 -19 1q-30 0 -61 17q-25 14 -48 42.5t-36 82.5q-35 -142 -55 -292q-22 -137 -30 -252.5t-8 -206t3 -150.5q1 -33 1 -56q0 -19 -1 -31q-5 -38 -34 -65.5t-66 -44t-75 -23t-60 -6.5t-33 15t-16 31 q-8 19 -8 46zM180 90q3 -14 10 -45t19 -64t32.5 -60t50.5 -30h3q22 0 52 33q33 35 65.5 93.5t64 132.5t52 146.5t29.5 136.5q3 24 3 45q0 33 -9 57q-74 -63 -145 -131q-60 -57 -120 -128t-96 -142q-3 -11 -5.5 -22t-5.5 -22z" />
<glyph unicode="q" horiz-adv-x="906" d="M-40 34q5 92 56 231q52 139 117.5 225t131 131t129.5 53q20 3 39 3q41 0 75 -13q41 -14 61.5 -44t28.5 -68q16 35 25 57q5 11 11 19q5 16 16 27q8 11 19 19.5t25 2.5q25 -8 65.5 -32.5t76.5 -62.5q11 -14 13 -30q3 -14 -1 -36t-21 -52q-11 -19 -32.5 -60t-47.5 -94 t-50.5 -112t-38.5 -110q-12 -41 -12 -73q0 -6 1 -13q3 -35 30 -43q7 -2 14 -2q24 0 51 21q34 27 66.5 71t58.5 91.5t42 77.5q3 11 14 22q16 16 49 14q27 -3 27 -30q0 -11 -5 -27q-16 -35 -47.5 -93t-71 -118t-85 -114.5t-94.5 -81.5q-33 -16 -63 -20.5t-54 -1.5 q-16 -76 -25 -145q-22 -137 -30 -252.5t-8 -206t3 -150.5q1 -30 1 -52t-1 -35q-5 -38 -35.5 -65.5t-67 -44t-75 -23t-57.5 -6.5q-22 0 -34 15t-18 31q-8 19 -8 46q3 134 22 295q16 139 49 325t95 407q0 5 6 17q-60 -71 -123 -111q-59 -37 -112 -37h-8q-49 3 -97 27.5 t-74 82.5q-22 49 -22 122v26zM177 -41q8 -33 36 -38q7 -1 13 -1q45 0 88 49q49 56 90 127q46 82 90 191l3 5l8 25q16 55 19 90t-4 54.5t-16.5 27.5t-14.5 11q-8 3 -27.5 1.5t-50.5 -26t-72 -83.5t-93 -171q-52 -115 -63 -173q-8 -41 -8 -67q0 -13 2 -22z" />
<glyph unicode="r" horiz-adv-x="821" d="M-71 -158q3 52 14 113t24.5 122.5t28.5 119t29 103.5q14 38 26 74l20 60q5 11 6.5 20.5t7.5 20.5q14 44 28.5 83.5t28.5 69.5q14 33 25 63q0 3 2 5q0 3 6 14q5 11 17.5 22t28.5 5q22 -5 61.5 -25.5t72.5 -58.5q3 -3 8 -11q3 -5 5.5 -13.5t2.5 -19.5q0 -27 -19 -63 q0 -3 -1 -4t-1 -4q-5 -5 -18 -34t-23 -51q-11 -22 -21 -46.5t-15 -40.5q-14 -35 -27.5 -73.5t-27.5 -76.5q52 87 113.5 178.5t122.5 161.5q62 68 121 104q35 21 67 22q21 0 41 -10q25 -11 60 -33t68 -57q8 -14 11 -30q3 -14 0 -36t-19 -52q-16 -25 -53 -95.5t-73 -152.5 q-8 -16 -32.5 -16.5t-52 8t-54.5 19.5t-41 16q-22 11 -24.5 26t-2.5 23q16 46 32.5 90t32.5 82l-5 -3q-76 -76 -150 -180q-63 -87 -137 -218t-137 -303v-8q-3 -16 -12 -20.5t-15 -4.5q-55 5 -86 24.5t-50 40.5q-14 14 -14 33q-3 11 0 17z" />
<glyph unicode="s" horiz-adv-x="518" d="M-38 -90q3 16 8 30t13.5 26t21.5 20q3 3 9 3q14 0 27 -3q14 -5 26.5 -11.5t17.5 -20.5q3 -3 2 -6q0 -3 -5 -19q-5 -5 -8 -16t-3 -20.5t7 -19.5t26 -12q25 -5 37 8.5t16 36.5t1.5 54.5t-5.5 61.5q-5 63 -12 114.5t-13 106.5v33q-22 -44 -42 -79.5t-34 -57.5 q-5 -11 -17 -19q-8 -5 -19 -6.5t-21 12.5q-14 14 -15.5 24.5t1.5 21.5t11 25q16 38 39.5 87t44 98t38 89t23.5 61q5 60 13 106.5t22 57.5q19 16 50.5 28.5t68.5 19.5q37 6 75 8q13 0 25 1q24 0 46 -2q14 -5 22 -16q5 -11 5 -30.5t-13 -57.5q-14 -30 -26.5 -77.5 t-22.5 -106.5q-8 -59 -10 -125q0 -9 -1 -18q0 -55 8 -107q11 -63 21 -146q5 -36 5 -71q1 -44 -7 -88q-14 -76 -68.5 -132.5t-177.5 -62.5h-17q-62 0 -106 19q-44 16 -74 58q-19 26 -19 68q0 23 6 52z" />
<glyph unicode="t" horiz-adv-x="434" d="M-505 1046q-3 16 -3 31q0 29 11 53q16 34 50.5 52.5t78.5 25.5q30 5 62 5q14 0 27 -1q164 -5 322.5 -12t319.5 -15q46 87 86 157t70 116q33 55 63 96q16 19 32 30q14 11 32 16.5t37 -8.5q16 -11 43.5 -38.5t47.5 -63.5q22 -34 28 -74q2 -10 1 -20q0 -28 -14 -53 q-14 -22 -46.5 -65.5t-81.5 -108.5q93 -5 240.5 -9t322 -10t364.5 -11.5t364.5 -9t325 -8t245.5 -7.5q8 0 26 -2.5t34.5 -8t28.5 -12.5t12 -18t-24.5 -19t-56 -12t-64 -5.5t-51.5 -1.5q-96 -5 -245 -8t-325 -5.5t-365.5 -4t-366 -1.5h-326.5h-243q-55 -82 -109.5 -183 t-106.5 -224q-46 -104 -84.5 -221.5t-68.5 -250.5q-12 -60 -12 -104q0 -14 1 -25q0 -3 1.5 -4t1.5 -7q5 -30 28 -38q7 -2 14 -2q24 0 52 21q36 27 66.5 71t58 91.5t41.5 77.5q5 11 16 22q16 16 46 14q27 -3 28 -30q0 -11 -6 -27q-22 -46 -68 -129.5t-104 -160.5 q-16 -16 -30 -33q-27 -33 -54 -54q-3 -3 -6 -4.5t-5 -6.5q-19 -11 -41 -20.5t-49 -12.5q-11 -3 -39 3q-52 14 -79 59t-41 96q-14 60 -16 132q-3 30 -1.5 57t4.5 57q5 60 16 116t24 100q11 49 28 96q52 150 106.5 279.5t109.5 244.5q-186 0 -369 2h-122q-123 0 -247 -2 q-30 0 -38 13q-5 8 -8 17z" />
<glyph unicode="u" horiz-adv-x="876" d="M-41 -52q-2 20 -2 40q-1 26 3 54q6 48 15 81q14 49 25 94t22 83q14 38 26 74l20 60q5 11 6.5 20.5t7.5 20.5q14 44 29 83.5t28 69.5q14 33 25 63q0 3 3 5q0 3 5 14t17.5 22t28.5 5q22 -5 61.5 -25.5t72.5 -58.5q3 -3 8 -11q3 -5 6 -13.5t3 -19.5q0 -27 -19 -63 q0 -3 -1.5 -4t-1.5 -4q-5 -5 -17.5 -34t-23.5 -51t-20.5 -46.5t-17.5 -40.5q-19 -52 -37 -108t-37 -119q-8 -21 -18 -65q-6 -28 -6 -52q0 -12 2 -22q3 -41 22 -49q8 -8 19 -6q4 0 7 -1q36 0 74 45q42 49 79 114.5t65.5 128.5t36.5 85q22 63 44 119t41 99q22 49 43 93 q5 16 17 27q8 11 19 19.5t25 2.5q22 -8 62.5 -32.5t79.5 -62.5q8 -14 10 -30q3 -14 -1 -36t-20 -52q-11 -19 -33 -60t-48 -94t-50 -112q-26 -60 -38 -110q-11 -45 -11 -78q1 -4 1 -8q2 -36 28 -43q8 -2 15 -2q26 0 52 21q34 27 67 71t59 91.5t42 77.5q3 11 14 22 q16 16 49 14q16 -3 20.5 -11t4.5 -19t-6 -27q-16 -35 -46 -93t-69.5 -118t-86 -114.5t-95.5 -81.5q-30 -16 -60.5 -20.5t-54.5 -1.5q-30 3 -55 11q-49 22 -69.5 72.5t-23.5 115.5q-63 -87 -138 -145q-63 -48 -131 -48q-13 0 -26 2h-8q-74 11 -103.5 63t-35.5 109z" />
<glyph unicode="v" horiz-adv-x="709" d="M-46 -82q-2 15 -2 31q0 35 8 77q10 62 15 94q27 104 50 178q11 38 23 73.5t20 62.5q11 19 14 38q14 44 29 83.5t28 69.5q14 33 25 63q0 3 3 6q0 3 5 13q5 11 17.5 22t28.5 6q22 -5 61.5 -26t75.5 -56q3 -3 5 -11q3 -5 6 -15t3 -21q0 -27 -19 -63q0 -3 -1.5 -4t-1.5 -4 q-3 -5 -16.5 -34t-24.5 -50q-8 -22 -19.5 -47t-16.5 -41q-22 -52 -39.5 -108t-36.5 -118q-3 -11 -8.5 -33t-11 -46.5t-8 -48t0.5 -39.5q3 -27 16 -41q68 79 137.5 189.5t130 222.5t105.5 207.5t67 142.5q3 14 13 19q22 11 49 -14q49 -46 61 -95q9 -35 9 -65q0 -12 -1 -23 q-8 -49 -30 -90q-57 -112 -123 -200.5t-134 -159.5q-90 -93 -173.5 -162.5t-140.5 -108.5q-41 -28 -77 -28q-6 0 -13 1q-27 3 -45 16.5t-26 24.5q-19 25 -26 53.5t-12 58.5z" />
<glyph unicode="w" horiz-adv-x="1174" d="M-41 -55q-1 14 -1 28q0 33 5 66q7 48 12 81q27 104 50 178q11 38 23 73.5t20 62.5q11 19 14 38q14 44 29 83.5t28 69.5q14 33 25 63q0 3 3 6q0 2 5 13q8 11 19 22t30 6q22 -5 60 -26t74 -56q3 -3 5 -11q3 -5 6 -15t3 -21q0 -14 -3 -28.5t-16 -34.5q0 -5 -3 -8 q-3 -5 -16.5 -34t-24.5 -50q-8 -22 -19 -46.5t-17 -41.5q-22 -52 -39.5 -108t-36.5 -118q-5 -22 -16 -66q-8 -30 -8 -54q0 -11 2 -20q3 -22 11 -31.5t14 -14.5q8 -8 16 -8q4 -1 7 -1q32 0 69 40q41 44 76.5 104.5t63 122t41.5 94.5q11 35 23 71l20 60q5 8 7 17.5t7 20.5 q14 44 29 83.5t28 69.5q14 33 25 63q0 3 3 6q0 3 5 13q5 11 17.5 22t29.5 6q22 -5 61.5 -26t71.5 -56q3 -3 9 -11q3 -5 5.5 -15t2.5 -21q0 -27 -19 -63q0 -3 -1.5 -4t-1.5 -4q-5 -5 -17.5 -34t-23.5 -50q-11 -22 -20.5 -46.5t-17.5 -41.5q-19 -52 -37 -108t-37 -118 q-5 -11 -10.5 -33t-10 -46.5t-7 -48t0.5 -39.5q3 -27 16 -41q68 79 138 189.5t130 222.5t105 207.5t67 142.5q3 14 13 19q22 11 49 -14q50 -46 62 -95q9 -35 8 -65q0 -12 -1 -23q-8 -49 -30 -90q-57 -112 -124 -200.5t-136 -159.5q-87 -93 -170.5 -162.5t-140.5 -108.5 q-44 -28 -78 -28q-6 0 -12 1q-30 3 -46.5 16.5t-27.5 24.5q-16 25 -24.5 53.5t-10.5 58.5v38q-63 -86 -137 -140q-62 -45 -129 -45q-14 0 -27 2h-5q-76 11 -106 63t-36 109z" />
<glyph unicode="x" horiz-adv-x="715" d="M-221 -268q-11 19 -11 42q0 31 19 69q33 67 94.5 136.5t138 136.5t136.5 116v22q0 38 1 77.5t1 67.5q0 11 1.5 20.5t1.5 20.5q0 46 3 88.5t5 72.5q3 35 6 68v5q0 8 2 14q5 14 12.5 29t26.5 15q22 0 65.5 -8.5t87.5 -32.5l8 -8q11 -11 19 -30q3 -14 4 -30.5t-4 -38.5v-5 q-3 -8 -7 -39.5t-7 -56.5q-5 -22 -6.5 -43.5t-4.5 -38.5q79 96 143.5 201t113.5 214q8 22 27 22t36 -13q60 -55 65 -137v-16q0 -73 -41 -134q-66 -106 -151.5 -196.5t-189.5 -158.5q-3 -3 -4 -3t-4 -3v-24v-67t5 -83q3 -14 7 -34.5t9.5 -42.5t16.5 -42.5t25 -30.5 q8 -5 11 -11q5 -14 -11 -33q-38 -44 -79 -52q-27 -5 -48 3t-34 16q-22 19 -38.5 43.5t-30.5 52.5q-16 44 -24 94t-14 105v3q-66 -55 -109.5 -117.5t-69.5 -121.5t-37 -108t-13 -74q0 -8 -6 -13q-11 -11 -24 -6q-30 8 -54.5 24.5t-38.5 32.5q-19 19 -30 41z" />
<glyph unicode="y" horiz-adv-x="862" d="M-41 -55q-1 14 -1 28q0 32 5 66q7 48 12 81q27 104 50 178q11 38 23 73.5t20 62.5q11 19 14 38q14 44 29 83.5t28 69.5q14 33 25 63q0 3 3 6q0 2 5 13q8 11 20.5 22t28.5 6q22 -5 60 -26t74 -56q3 -3 5 -11q3 -5 6 -15t3 -21q0 -14 -3 -28.5t-16 -34.5q0 -5 -3 -8 q-3 -5 -16.5 -34t-24.5 -50q-8 -22 -19 -46.5t-17 -41.5q-19 -52 -38 -108t-38 -118q-5 -22 -16 -66q-8 -30 -8 -54q0 -11 2 -20q3 -22 9.5 -31.5t15.5 -14.5q11 -8 19 -8h7q35 0 73 45q43 50 79.5 115.5t64 128.5t35.5 85q22 63 44 119t41 99q22 49 43 90q5 16 17 28 q8 11 19 19t25 2q25 -8 65.5 -32.5t76.5 -62.5q11 -14 13 -30q3 -14 -1 -35.5t-21 -52.5q-8 -14 -25.5 -46.5t-38 -74.5t-44 -90t-39.5 -94q-14 -41 -30 -107q-3 -14 -4.5 -26t-6.5 -26l8 8q25 25 49.5 48t48.5 45q52 46 100 84.5t78 60.5q14 8 25 11q25 5 35 -19 q5 -27 -8 -52q-8 -11 -17 -19q-25 -19 -61.5 -48t-71.5 -67q-38 -35 -75 -73.5t-76 -84.5q-14 -14 -24.5 -30.5t-24.5 -32.5q0 -14 1.5 -30t1.5 -33q3 -14 4 -30t4 -30q11 -82 14 -171q1 -18 1 -37q0 -69 -9 -137q-11 -86 -34.5 -162.5t-64.5 -131.5q-3 -8 -19 -24 q-8 -11 -24 -28q-3 0 -3 -3q-30 -22 -67 -39q-32 -15 -70 -15h-13q-41 3 -70 13.5t-45 21.5q-11 5 -19 13.5t-16 16.5q-34 43 -34 112q0 9 1 19q5 82 40.5 183t98.5 212t139 217q-10 90 -10 150q0 26 2 47q-63 -87 -138 -144q-63 -47 -133 -47q-13 0 -27 2h-5 q-76 11 -106 63t-36 109zM250 -872q4 -35 31 -51q11 -11 38 -11q41 0 70 19t46.5 50.5t26 72.5t10.5 85q1 21 1 44q0 83 -17 182q-5 22 -8 40t-8 40q-55 -87 -94.5 -165t-66.5 -139q-3 -5 -12.5 -33.5t-14.5 -63.5q-4 -19 -4 -40q0 -15 2 -30z" />
<glyph unicode="z" horiz-adv-x="505" d="M-213 -847q5 82 40.5 182t97 210.5t138.5 216.5q-11 109 -23.5 207.5t-25.5 172.5q-14 87 -33 161q-11 30 2.5 61.5t43.5 64t70 63t80 54.5q-38 8 -62.5 16.5t-62.5 5.5q-3 0 -4.5 -1.5t-3.5 -1.5q-22 0 -30.5 8.5l-13.5 13.5q-5 16 0 39.5t44 45.5q3 3 24 8q38 0 105 4 q18 1 36 1q50 0 100 -8q5 0 8 -3q11 -3 30 -8t33 -19l8 -8q8 -8 20.5 -28.5t24.5 -45t19 -52t4 -49.5q-3 -5 -5.5 -9t-8.5 -10q-52 -14 -103.5 -41t-95.5 -54q-49 -30 -96 -69q27 -55 35.5 -89t22.5 -86q14 -55 27 -139l30 30l6 6l2 2q25 25 49.5 48t49.5 45 q52 46 99.5 84.5t77.5 60.5q14 8 25 11q25 5 35 -19q5 -27 -8 -52q-8 -11 -16 -19q-25 -19 -62 -48t-72 -67q-76 -68 -150 -158q-11 -14 -22 -29t-25 -31q5 -52 9.5 -109.5t9.5 -122.5q4 -48 4 -95q0 -98 -16 -198q-23 -146 -91 -240q-3 -8 -20 -24q-8 -11 -24 -28 q-3 0 -3 -3q-30 -21 -67 -39q-32 -15 -70 -15h-13q-41 3 -69.5 13.5t-47.5 21.5q-11 8 -33 30q-34 43 -34 112q0 9 1 19zM-97 -872q4 -36 31 -51q12 -11 39 -11h4q41 0 61 53q22 56 30 125q9 62 9 136q0 20 -1 41v148q-46 -79 -83 -149t-61 -125q-3 -5 -12 -33 q-10 -30 -16 -64q-3 -20 -3 -40q0 -15 2 -30z" />
<glyph unicode="&#xa8;" horiz-adv-x="529" d="M50.5 909.5q6.5 32.5 20.5 48.5q19 33 33 50q8 11 11 19q8 14 19 22q22 16 43 2q11 -8 29 -24.5t31.5 -38t17.5 -46t-7 -46.5q-8 -14 -23 -34.5t-42 -50.5q-8 -14 -24.5 -12.5t-34.5 9.5t-34 20.5t-24 23.5q-22 25 -15.5 57.5zM263.5 830.5q6.5 32.5 20.5 48.5 q19 33 33 49q8 11 11 20q8 14 19 21q22 16 43 3q11 -8 29 -24.5t31.5 -38.5t17.5 -46.5t-7 -46.5q-8 -14 -23 -34t-42 -50q-8 -14 -24.5 -12.5t-34.5 9.5t-34 20.5t-24 23.5q-22 25 -15.5 57.5z" />
<glyph unicode="&#xad;" horiz-adv-x="696" d="M60 246q-8 33 12.5 49t54.5 23t79 5.5t92 -4.5q101 -8 169 -12t109 -9.5t59 -17.5t18 -40q-3 -11 -27.5 -17.5t-56 -8t-64.5 -1.5h-52h-347q-27 0 -38 16q-5 8 -8 17z" />
<glyph unicode="&#xb4;" horiz-adv-x="491" d="M42 937q-4 0 13 32q5 11 38 22t76.5 16.5t91.5 4t87.5 -16.5t61 -42.5t13.5 -73.5q-5 -19 -16 -45t-26 -47.5t-34 -34t-38 -4.5q-27 11 -65.5 35.5t-75.5 52t-64.5 49.5t-35.5 27q-22 25 -26 25z" />
<glyph unicode="&#xc0;" d="M11 273q0 82 17.5 140.5t34.5 91.5q27 44 65 88q46 52 116 91.5t174 55.5q71 14 153 8q79 -3 155.5 -15t150.5 -37q27 -11 59.5 -35.5t19.5 -57.5q-11 -27 -34.5 -59.5t-53.5 -60t-65.5 -42.5t-70.5 -7q-19 5 -37 9.5t-37 9.5q-74 19 -143.5 18t-127 -23t-98.5 -68.5 t-54 -117.5q-16 -79 11 -125.5t65 -70.5q46 -30 107 -39q90 -14 200.5 19t235 96t259.5 153t271 197q-158 101 -264 237q-16 22 -31.5 59t14.5 59q25 16 63 32.5t76.5 22t76.5 0t63 -30.5q25 -33 54 -68q27 -30 64 -68.5t87 -79.5q205 172 391.5 348.5t331.5 320.5 q169 169 317 325q38 41 75 52t61 -13q14 -16 28 -33q11 -14 22 -30.5t16 -32.5q3 -14 0 -25t-7 -23t-15 -23q-16 -19 -83 -105t-147.5 -206t-154.5 -257t-106 -259q-46 -158 -60 -295q8 3 17.5 2.5t20.5 2.5q19 3 30 -3q27 -11 22 -41q-5 -14 -27.5 -38t-68.5 -43 q5 -164 46 -273.5t74 -185.5q19 -44 0 -67t-57 -26q-16 -3 -31.5 0t-28.5 8q-14 5 -28 11q-76 35 -124 91.5t-75 123t-36.5 144.5t-4.5 157q-126 16 -314 90l-65 25q-30 -22 -59 -46.5t-59 -46.5q-259 -194 -525.5 -306t-522.5 -93q-131 11 -214.5 52t-130 97t-64 119 t-20.5 120zM1769 522q55 -30 114 -56t121 -43q16 79 37 153t42.5 137t41 110.5t32.5 72.5l11 22q11 27 30 65q-96 -115 -202 -231t-227 -230zM2652.5 1865q-1.5 22 5.5 48t19 50.5t26 40.5q46 52 102 30.5t102.5 -73.5t75.5 -111t20 -75q-14 -33 -16.5 -30t-35.5 5 q-8 0 -43.5 8.5t-79 20.5t-87.5 26t-68 27q-19 11 -20.5 33z" />
<glyph unicode="&#xc1;" d="M11 273q0 82 17.5 140.5t34.5 91.5q27 44 65 88q46 52 116 91.5t174 55.5q71 14 153 8q79 -3 155.5 -15t150.5 -37q27 -11 59.5 -35.5t19.5 -57.5q-11 -27 -34.5 -59.5t-53.5 -60t-65.5 -42.5t-70.5 -7q-19 5 -37 9.5t-37 9.5q-74 19 -143.5 18t-127 -23t-98.5 -68.5 t-54 -117.5q-16 -79 11 -125.5t65 -70.5q46 -30 107 -39q90 -14 200.5 19t235 96t259.5 153t271 197q-158 101 -264 237q-16 22 -31.5 59t14.5 59q25 16 63 32.5t76.5 22t76.5 0t63 -30.5q25 -33 54 -68q27 -30 64 -68.5t87 -79.5q205 172 391.5 348.5t331.5 320.5 q169 169 317 325q38 41 75 52t61 -13q14 -16 28 -33q11 -14 22 -30.5t16 -32.5q3 -14 0 -25t-7 -23t-15 -23q-16 -19 -83 -105t-147.5 -206t-154.5 -257t-106 -259q-46 -158 -60 -295q8 3 17.5 2.5t20.5 2.5q19 3 30 -3q27 -11 22 -41q-5 -14 -27.5 -38t-68.5 -43 q5 -164 46 -273.5t74 -185.5q19 -44 0 -67t-57 -26q-16 -3 -31.5 0t-28.5 8q-14 5 -28 11q-76 35 -124 91.5t-75 123t-36.5 144.5t-4.5 157q-126 16 -314 90l-65 25q-30 -22 -59 -46.5t-59 -46.5q-259 -194 -525.5 -306t-522.5 -93q-131 11 -214.5 52t-130 97t-64 119 t-20.5 120zM1769 522q55 -30 114 -56t121 -43q16 79 37 153t42.5 137t41 110.5t32.5 72.5l11 22q11 27 30 65q-96 -115 -202 -231t-227 -230zM2622 1942q-4 0 13 32q5 11 38 22t76.5 16.5t91.5 4t87.5 -16.5t61 -42.5t13.5 -73.5q-5 -19 -16 -45t-26 -47.5t-34 -34t-38 -4.5 q-27 11 -65.5 35.5t-75.5 52t-64.5 49.5t-35.5 27q-22 25 -26 25z" />
<glyph unicode="&#xc2;" d="M11 273q0 82 17.5 140.5t34.5 91.5q27 44 65 88q46 52 116 91.5t174 55.5q71 14 153 8q79 -3 155.5 -15t150.5 -37q27 -11 59.5 -35.5t19.5 -57.5q-11 -27 -34.5 -59.5t-53.5 -60t-65.5 -42.5t-70.5 -7q-19 5 -37 9.5t-37 9.5q-74 19 -143.5 18t-127 -23t-98.5 -68.5 t-54 -117.5q-16 -79 11 -125.5t65 -70.5q46 -30 107 -39q90 -14 200.5 19t235 96t259.5 153t271 197q-158 101 -264 237q-16 22 -31.5 59t14.5 59q25 16 63 32.5t76.5 22t76.5 0t63 -30.5q25 -33 54 -68q27 -30 64 -68.5t87 -79.5q205 172 391.5 348.5t331.5 320.5 q169 169 317 325q38 41 75 52t61 -13q14 -16 28 -33q11 -14 22 -30.5t16 -32.5q3 -14 0 -25t-7 -23t-15 -23q-16 -19 -83 -105t-147.5 -206t-154.5 -257t-106 -259q-46 -158 -60 -295q8 3 17.5 2.5t20.5 2.5q19 3 30 -3q27 -11 22 -41q-5 -14 -27.5 -38t-68.5 -43 q5 -164 46 -273.5t74 -185.5q19 -44 0 -67t-57 -26q-16 -3 -31.5 0t-28.5 8q-14 5 -28 11q-76 35 -124 91.5t-75 123t-36.5 144.5t-4.5 157q-126 16 -314 90l-65 25q-30 -22 -59 -46.5t-59 -46.5q-259 -194 -525.5 -306t-522.5 -93q-131 11 -214.5 52t-130 97t-64 119 t-20.5 120zM1769 522q55 -30 114 -56t121 -43q16 79 37 153t42.5 137t41 110.5t32.5 72.5l11 22q11 27 30 65q-96 -115 -202 -231t-227 -230zM2618 1835q0 11 19.5 33t49.5 45t69.5 45t77.5 33l6 2q46 25 82 3q46 -14 62 -63q0 -3 3 -5q19 -35 31.5 -77.5t18 -81t2.5 -67 t-11 -36.5q-25 -25 -26 -21t-31 18q-11 5 -52 35t-88 69q-57 5 -110 13t-62 14q-16 5 -24 5t-11 3t-4.5 10t-1.5 23z" />
<glyph unicode="&#xc3;" d="M11 273q0 82 17.5 140.5t34.5 91.5q27 44 65 88q46 52 116 91.5t174 55.5q71 14 153 8q79 -3 155.5 -15t150.5 -37q27 -11 59.5 -35.5t19.5 -57.5q-11 -27 -34.5 -59.5t-53.5 -60t-65.5 -42.5t-70.5 -7q-19 5 -37 9.5t-37 9.5q-74 19 -143.5 18t-127 -23t-98.5 -68.5 t-54 -117.5q-16 -79 11 -125.5t65 -70.5q46 -30 107 -39q90 -14 200.5 19t235 96t259.5 153t271 197q-158 101 -264 237q-16 22 -31.5 59t14.5 59q25 16 63 32.5t76.5 22t76.5 0t63 -30.5q25 -33 54 -68q27 -30 64 -68.5t87 -79.5q205 172 391.5 348.5t331.5 320.5 q169 169 317 325q38 41 75 52t61 -13q14 -16 28 -33q11 -14 22 -30.5t16 -32.5q3 -14 0 -25t-7 -23t-15 -23q-16 -19 -83 -105t-147.5 -206t-154.5 -257t-106 -259q-46 -158 -60 -295q8 3 17.5 2.5t20.5 2.5q19 3 30 -3q27 -11 22 -41q-5 -14 -27.5 -38t-68.5 -43 q5 -164 46 -273.5t74 -185.5q19 -44 0 -67t-57 -26q-16 -3 -31.5 0t-28.5 8q-14 5 -28 11q-76 35 -124 91.5t-75 123t-36.5 144.5t-4.5 157q-126 16 -314 90l-65 25q-30 -22 -59 -46.5t-59 -46.5q-259 -194 -525.5 -306t-522.5 -93q-131 11 -214.5 52t-130 97t-64 119 t-20.5 120zM1769 522q55 -30 114 -56t121 -43q16 79 37 153t42.5 137t41 110.5t32.5 72.5l11 22q11 27 30 65q-96 -115 -202 -231t-227 -230zM2626 1966l5 15q4 15 12 31.5t20.5 30t28.5 13.5q22 0 27.5 -20.5t5.5 -17.5q3 -16 22 -33q14 -14 45 -31.5t86 -33.5 q55 -14 102.5 -29t80 -38.5t50.5 -56t10 -84.5q0 -3 -3 -18t-9.5 -31.5t-19 -30t-31.5 -13.5q-22 0 -27.5 19t-5.5 22q-5 14 -22 30q-14 14 -45 32t-86 34q-68 19 -118.5 34t-82 35.5t-42.5 53t-3 87.5z" />
<glyph unicode="&#xc4;" d="M11 273q0 82 17.5 140.5t34.5 91.5q27 44 65 88q46 52 116 91.5t174 55.5q71 14 153 8q79 -3 155.5 -15t150.5 -37q27 -11 59.5 -35.5t19.5 -57.5q-11 -27 -34.5 -59.5t-53.5 -60t-65.5 -42.5t-70.5 -7q-19 5 -37 9.5t-37 9.5q-74 19 -143.5 18t-127 -23t-98.5 -68.5 t-54 -117.5q-16 -79 11 -125.5t65 -70.5q46 -30 107 -39q90 -14 200.5 19t235 96t259.5 153t271 197q-158 101 -264 237q-16 22 -31.5 59t14.5 59q25 16 63 32.5t76.5 22t76.5 0t63 -30.5q25 -33 54 -68q27 -30 64 -68.5t87 -79.5q205 172 391.5 348.5t331.5 320.5 q169 169 317 325q38 41 75 52t61 -13q14 -16 28 -33q11 -14 22 -30.5t16 -32.5q3 -14 0 -25t-7 -23t-15 -23q-16 -19 -83 -105t-147.5 -206t-154.5 -257t-106 -259q-46 -158 -60 -295q8 3 17.5 2.5t20.5 2.5q19 3 30 -3q27 -11 22 -41q-5 -14 -27.5 -38t-68.5 -43 q5 -164 46 -273.5t74 -185.5q19 -44 0 -67t-57 -26q-16 -3 -31.5 0t-28.5 8q-14 5 -28 11q-76 35 -124 91.5t-75 123t-36.5 144.5t-4.5 157q-126 16 -314 90l-65 25q-30 -22 -59 -46.5t-59 -46.5q-259 -194 -525.5 -306t-522.5 -93q-131 11 -214.5 52t-130 97t-64 119 t-20.5 120zM1769 522q55 -30 114 -56t121 -43q16 79 37 153t42.5 137t41 110.5t32.5 72.5l11 22q11 27 30 65q-96 -115 -202 -231t-227 -230zM2677.5 1881.5q6.5 32.5 20.5 48.5q19 33 33 50q8 11 11 19q8 14 19 22q22 16 43 2q11 -8 29 -24.5t31.5 -38t17.5 -46t-7 -46.5 q-8 -14 -23 -34.5t-42 -50.5q-8 -14 -24.5 -12.5t-34.5 9.5t-34 20.5t-24 23.5q-22 25 -15.5 57.5zM2890.5 1802.5q6.5 32.5 20.5 48.5q19 33 33 49q8 11 11 20q8 14 19 21q22 16 43 3q11 -8 29 -24.5t31.5 -38.5t17.5 -46.5t-7 -46.5q-8 -14 -23 -34t-42 -50 q-8 -14 -24.5 -12.5t-34.5 9.5t-34 20.5t-24 23.5q-22 25 -15.5 57.5z" />
<glyph unicode="&#xc5;" d="M11 273q0 82 17.5 140.5t34.5 91.5q27 44 65 88q46 52 116 91.5t174 55.5q71 14 153 8q79 -3 155.5 -15t150.5 -37q27 -11 59.5 -35.5t19.5 -57.5q-11 -27 -34.5 -59.5t-53.5 -60t-65.5 -42.5t-70.5 -7q-19 5 -37 9.5t-37 9.5q-74 19 -143.5 18t-127 -23t-98.5 -68.5 t-54 -117.5q-16 -79 11 -125.5t65 -70.5q46 -30 107 -39q90 -14 200.5 19t235 96t259.5 153t271 197q-158 101 -264 237q-16 22 -31.5 59t14.5 59q25 16 63 32.5t76.5 22t76.5 0t63 -30.5q25 -33 54 -68q27 -30 64 -68.5t87 -79.5q205 172 391.5 348.5t331.5 320.5 q169 169 317 325q38 41 75 52t61 -13q14 -16 28 -33q11 -14 22 -30.5t16 -32.5q3 -14 0 -25t-7 -23t-15 -23q-16 -19 -83 -105t-147.5 -206t-154.5 -257t-106 -259q-46 -158 -60 -295q8 3 17.5 2.5t20.5 2.5q19 3 30 -3q27 -11 22 -41q-5 -14 -27.5 -38t-68.5 -43 q5 -164 46 -273.5t74 -185.5q19 -44 0 -67t-57 -26q-16 -3 -31.5 0t-28.5 8q-14 5 -28 11q-76 35 -124 91.5t-75 123t-36.5 144.5t-4.5 157q-126 16 -314 90l-65 25q-30 -22 -59 -46.5t-59 -46.5q-259 -194 -525.5 -306t-522.5 -93q-131 11 -214.5 52t-130 97t-64 119 t-20.5 120zM1769 522q55 -30 114 -56t121 -43q16 79 37 153t42.5 137t41 110.5t32.5 72.5l11 22q11 27 30 65q-96 -115 -202 -231t-227 -230zM2797.5 1848.5q6.5 32.5 20.5 49.5q19 33 33 49q8 11 11 19q8 14 19 22q22 16 43 2q11 -8 29 -24.5t31.5 -38t17.5 -46t-7 -46.5 q-8 -14 -23 -34.5t-42 -50.5q-8 -14 -24.5 -12.5t-34.5 10t-34 20.5t-24 23q-22 25 -15.5 57.5zM2854 1850q-3 -15 5 -26t27 -22t28 3q19 25 30 38q14 22 -4 44t-29 27q-5 5 -9.5 2.5t-9.5 -5.5l-8 -8q-3 -3 -6 -8t-7 -11t-9 -11q-5 -8 -8 -23z" />
<glyph unicode="&#xc8;" horiz-adv-x="1174" d="M109 1196q-8 38 3 85q5 22 13.5 41t16.5 35q8 14 45 52t116 60q117 30 200.5 27.5t161.5 -17.5t169.5 -35.5t224.5 -26.5q112 -5 186 14t118 49q49 30 79 76q5 16 13 28q5 11 15 19t24 11q22 5 43.5 -4.5t35.5 -39.5q14 -35 16.5 -68t-0.5 -60q-5 -30 -13 -60 q-33 -93 -96 -145t-142 -72.5t-173.5 -17.5t-186.5 19q-30 -44 -109.5 -145t-174.5 -262q96 5 158.5 20.5t86.5 17.5q25 0 45.5 -17.5t34 -42t22 -50.5t8.5 -43q3 -14 -5.5 -23t-19.5 -15q-11 -8 -30 -11q-44 -5 -98 -8q-46 -3 -114.5 -3t-156.5 11h-19q-25 -55 -60 -136.5 t-68 -171.5t-60.5 -180.5t-38 -165.5t1.5 -125.5t56 -58.5q52 63 117 126q55 55 131.5 113.5t169.5 109.5q14 8 27.5 14t21.5 11l16 8q22 8 41 11q16 3 34 -1t26 -21q8 -19 18 -53t11 -73.5t-10 -75t-43 -54.5q-16 -11 -53 -25t-90.5 -35.5t-119 -56t-139.5 -83.5 q-11 -8 -20.5 -15t-17.5 -12q-55 -35 -104 -35t-86 17.5t-62.5 40.5t-36.5 37q-60 87 -72.5 191t3.5 210q14 115 63 254.5t104 262.5q-93 16 -113.5 55.5t4.5 72.5q16 16 69.5 20.5t104.5 -1.5q19 38 34.5 68t23.5 49q55 112 102.5 199.5t85.5 150.5q-79 22 -140.5 37 t-91.5 9q-55 -11 -74 -38q-3 -5 -8 -27t17 -38q8 -3 24 -14q14 -8 14 -19t-3 -17q-35 -55 -72 -73.5t-64 -24.5q-16 -3 -31.5 1.5t-23.5 9.5q-22 11 -45 33t-42.5 52t-27.5 68zM891.5 1756q-1.5 22 5.5 48t19 50.5t26 40.5q46 52 102 30.5t102.5 -73.5t75.5 -111t20 -75 q-14 -33 -16.5 -30t-35.5 5q-8 0 -43.5 8.5t-79 20.5t-87.5 26t-68 27q-19 11 -20.5 33z" />
<glyph unicode="&#xc9;" horiz-adv-x="1174" d="M109 1196q-8 38 3 85q5 22 13.5 41t16.5 35q8 14 45 52t116 60q117 30 200.5 27.5t161.5 -17.5t169.5 -35.5t224.5 -26.5q112 -5 186 14t118 49q49 30 79 76q5 16 13 28q5 11 15 19t24 11q22 5 43.5 -4.5t35.5 -39.5q14 -35 16.5 -68t-0.5 -60q-5 -30 -13 -60 q-33 -93 -96 -145t-142 -72.5t-173.5 -17.5t-186.5 19q-30 -44 -109.5 -145t-174.5 -262q96 5 158.5 20.5t86.5 17.5q25 0 45.5 -17.5t34 -42t22 -50.5t8.5 -43q3 -14 -5.5 -23t-19.5 -15q-11 -8 -30 -11q-44 -5 -98 -8q-46 -3 -114.5 -3t-156.5 11h-19q-25 -55 -60 -136.5 t-68 -171.5t-60.5 -180.5t-38 -165.5t1.5 -125.5t56 -58.5q52 63 117 126q55 55 131.5 113.5t169.5 109.5q14 8 27.5 14t21.5 11l16 8q22 8 41 11q16 3 34 -1t26 -21q8 -19 18 -53t11 -73.5t-10 -75t-43 -54.5q-16 -11 -53 -25t-90.5 -35.5t-119 -56t-139.5 -83.5 q-11 -8 -20.5 -15t-17.5 -12q-55 -35 -104 -35t-86 17.5t-62.5 40.5t-36.5 37q-60 87 -72.5 191t3.5 210q14 115 63 254.5t104 262.5q-93 16 -113.5 55.5t4.5 72.5q16 16 69.5 20.5t104.5 -1.5q19 38 34.5 68t23.5 49q55 112 102.5 199.5t85.5 150.5q-79 22 -140.5 37 t-91.5 9q-55 -11 -74 -38q-3 -5 -8 -27t17 -38q8 -3 24 -14q14 -8 14 -19t-3 -17q-35 -55 -72 -73.5t-64 -24.5q-16 -3 -31.5 1.5t-23.5 9.5q-22 11 -45 33t-42.5 52t-27.5 68zM856 1805q-4 0 13 32q5 11 38 22t76.5 16.5t91.5 4t87.5 -16.5t61 -42.5t13.5 -73.5 q-5 -19 -16 -45t-26 -47.5t-34 -34t-38 -4.5q-27 11 -65.5 35.5t-75.5 52t-64.5 49.5t-35.5 27q-22 25 -26 25z" />
<glyph unicode="&#xca;" horiz-adv-x="1174" d="M109 1196q-8 38 3 85q5 22 13.5 41t16.5 35q8 14 45 52t116 60q117 30 200.5 27.5t161.5 -17.5t169.5 -35.5t224.5 -26.5q112 -5 186 14t118 49q49 30 79 76q5 16 13 28q5 11 15 19t24 11q22 5 43.5 -4.5t35.5 -39.5q14 -35 16.5 -68t-0.5 -60q-5 -30 -13 -60 q-33 -93 -96 -145t-142 -72.5t-173.5 -17.5t-186.5 19q-30 -44 -109.5 -145t-174.5 -262q96 5 158.5 20.5t86.5 17.5q25 0 45.5 -17.5t34 -42t22 -50.5t8.5 -43q3 -14 -5.5 -23t-19.5 -15q-11 -8 -30 -11q-44 -5 -98 -8q-46 -3 -114.5 -3t-156.5 11h-19q-25 -55 -60 -136.5 t-68 -171.5t-60.5 -180.5t-38 -165.5t1.5 -125.5t56 -58.5q52 63 117 126q55 55 131.5 113.5t169.5 109.5q14 8 27.5 14t21.5 11l16 8q22 8 41 11q16 3 34 -1t26 -21q8 -19 18 -53t11 -73.5t-10 -75t-43 -54.5q-16 -11 -53 -25t-90.5 -35.5t-119 -56t-139.5 -83.5 q-11 -8 -20.5 -15t-17.5 -12q-55 -35 -104 -35t-86 17.5t-62.5 40.5t-36.5 37q-60 87 -72.5 191t3.5 210q14 115 63 254.5t104 262.5q-93 16 -113.5 55.5t4.5 72.5q16 16 69.5 20.5t104.5 -1.5q19 38 34.5 68t23.5 49q55 112 102.5 199.5t85.5 150.5q-79 22 -140.5 37 t-91.5 9q-55 -11 -74 -38q-3 -5 -8 -27t17 -38q8 -3 24 -14q14 -8 14 -19t-3 -17q-35 -55 -72 -73.5t-64 -24.5q-16 -3 -31.5 1.5t-23.5 9.5q-22 11 -45 33t-42.5 52t-27.5 68zM819 1740q0 11 19.5 33t49.5 45t69.5 45t77.5 33l6 2q46 25 82 3q46 -14 62 -63q0 -3 3 -5 q19 -35 31.5 -77.5t18 -81t2.5 -67t-11 -36.5q-25 -25 -26 -21t-31 18q-11 5 -52 35t-88 69q-57 5 -110 13t-62 14q-16 5 -24 5t-11 3t-4.5 10t-1.5 23z" />
<glyph unicode="&#xcb;" horiz-adv-x="1174" d="M109 1196q-8 38 3 85q5 22 13.5 41t16.5 35q8 14 45 52t116 60q117 30 200.5 27.5t161.5 -17.5t169.5 -35.5t224.5 -26.5q112 -5 186 14t118 49q49 30 79 76q5 16 13 28q5 11 15 19t24 11q22 5 43.5 -4.5t35.5 -39.5q14 -35 16.5 -68t-0.5 -60q-5 -30 -13 -60 q-33 -93 -96 -145t-142 -72.5t-173.5 -17.5t-186.5 19q-30 -44 -109.5 -145t-174.5 -262q96 5 158.5 20.5t86.5 17.5q25 0 45.5 -17.5t34 -42t22 -50.5t8.5 -43q3 -14 -5.5 -23t-19.5 -15q-11 -8 -30 -11q-44 -5 -98 -8q-46 -3 -114.5 -3t-156.5 11h-19q-25 -55 -60 -136.5 t-68 -171.5t-60.5 -180.5t-38 -165.5t1.5 -125.5t56 -58.5q52 63 117 126q55 55 131.5 113.5t169.5 109.5q14 8 27.5 14t21.5 11l16 8q22 8 41 11q16 3 34 -1t26 -21q8 -19 18 -53t11 -73.5t-10 -75t-43 -54.5q-16 -11 -53 -25t-90.5 -35.5t-119 -56t-139.5 -83.5 q-11 -8 -20.5 -15t-17.5 -12q-55 -35 -104 -35t-86 17.5t-62.5 40.5t-36.5 37q-60 87 -72.5 191t3.5 210q14 115 63 254.5t104 262.5q-93 16 -113.5 55.5t4.5 72.5q16 16 69.5 20.5t104.5 -1.5q19 38 34.5 68t23.5 49q55 112 102.5 199.5t85.5 150.5q-79 22 -140.5 37 t-91.5 9q-55 -11 -74 -38q-3 -5 -8 -27t17 -38q8 -3 24 -14q14 -8 14 -19t-3 -17q-35 -55 -72 -73.5t-64 -24.5q-16 -3 -31.5 1.5t-23.5 9.5q-22 11 -45 33t-42.5 52t-27.5 68zM836.5 1791.5q6.5 32.5 20.5 48.5q19 33 33 50q8 11 11 19q8 14 19 22q22 16 43 2 q11 -8 29 -24.5t31.5 -38t17.5 -46t-7 -46.5q-8 -14 -23 -34.5t-42 -50.5q-8 -14 -24.5 -12.5t-34.5 9.5t-34 20.5t-24 23.5q-22 25 -15.5 57.5zM1049.5 1712.5q6.5 32.5 20.5 48.5q19 33 33 49q8 11 11 20q8 14 19 21q22 16 43 3q11 -8 29 -24.5t31.5 -38.5t17.5 -46.5 t-7 -46.5q-8 -14 -23 -34t-42 -50q-8 -14 -24.5 -12.5t-34.5 9.5t-34 20.5t-24 23.5q-22 25 -15.5 57.5z" />
<glyph unicode="&#xcc;" horiz-adv-x="1168" d="M85 -106q19 25 54.5 52t73.5 46t75 23t59 -18q22 -25 52 -52q27 -22 66.5 -46.5t94.5 -37.5q-3 3 -4.5 5.5t-3.5 5.5q-71 87 -85 195t3 222q14 98 52 214.5t81.5 225.5t84.5 195t63 127q41 85 79 156t71 128q-74 0 -140.5 12.5t-122.5 41t-97 79t-63 124.5q-8 30 -11 60 q-3 27 1 58.5t21 67.5q14 30 37 39.5t45 1.5t35 -33q8 -11 14 -25q27 -46 76 -82q44 -30 115 -56t186 -26q137 0 229.5 15t171.5 29h3q5 0 14.5 1.5t20.5 -4.5q3 0 4.5 -1t4.5 -1h2q16 -8 38 -20.5t42.5 -33t35.5 -48t18 -65.5q0 -22 -12.5 -28.5t-20.5 -6.5 q-49 -5 -125.5 -22t-163.5 -36q-3 -8 -5.5 -16t-8.5 -19q-14 -22 -48 -65.5t-81.5 -109.5t-106.5 -154.5t-116 -200.5q-117 -235 -148.5 -464.5t36.5 -496.5v-3q115 14 259 77q16 8 30 8t22 -5.5t11 -27.5q0 -22 -22 -65.5t-88.5 -84.5t-191 -65.5t-329.5 -8.5 q-104 8 -191 36.5t-144 72.5q-22 16 -48 47.5t-4 62.5zM979.5 1838q-1.5 22 5.5 48t19 50.5t26 40.5q46 52 102 30.5t102.5 -73.5t75.5 -111t20 -75q-14 -33 -16.5 -30t-35.5 5q-8 0 -43.5 8.5t-79 20.5t-87.5 26t-68 27q-19 11 -20.5 33z" />
<glyph unicode="&#xcd;" horiz-adv-x="1168" d="M85 -106q19 25 54.5 52t73.5 46t75 23t59 -18q22 -25 52 -52q27 -22 66.5 -46.5t94.5 -37.5q-3 3 -4.5 5.5t-3.5 5.5q-71 87 -85 195t3 222q14 98 52 214.5t81.5 225.5t84.5 195t63 127q41 85 79 156t71 128q-74 0 -140.5 12.5t-122.5 41t-97 79t-63 124.5q-8 30 -11 60 q-3 27 1 58.5t21 67.5q14 30 37 39.5t45 1.5t35 -33q8 -11 14 -25q27 -46 76 -82q44 -30 115 -56t186 -26q137 0 229.5 15t171.5 29h3q5 0 14.5 1.5t20.5 -4.5q3 0 4.5 -1t4.5 -1h2q16 -8 38 -20.5t42.5 -33t35.5 -48t18 -65.5q0 -22 -12.5 -28.5t-20.5 -6.5 q-49 -5 -125.5 -22t-163.5 -36q-3 -8 -5.5 -16t-8.5 -19q-14 -22 -48 -65.5t-81.5 -109.5t-106.5 -154.5t-116 -200.5q-117 -235 -148.5 -464.5t36.5 -496.5v-3q115 14 259 77q16 8 30 8t22 -5.5t11 -27.5q0 -22 -22 -65.5t-88.5 -84.5t-191 -65.5t-329.5 -8.5 q-104 8 -191 36.5t-144 72.5q-22 16 -48 47.5t-4 62.5zM1031 1860q-4 0 13 32q5 11 38 22t76.5 16.5t91.5 4t87.5 -16.5t61 -42.5t13.5 -73.5q-5 -19 -16 -45t-26 -47.5t-34 -34t-38 -4.5q-27 11 -65.5 35.5t-75.5 52t-64.5 49.5t-35.5 27q-22 25 -26 25z" />
<glyph unicode="&#xce;" horiz-adv-x="1168" d="M85 -106q19 25 54.5 52t73.5 46t75 23t59 -18q22 -25 52 -52q27 -22 66.5 -46.5t94.5 -37.5q-3 3 -4.5 5.5t-3.5 5.5q-71 87 -85 195t3 222q14 98 52 214.5t81.5 225.5t84.5 195t63 127q41 85 79 156t71 128q-74 0 -140.5 12.5t-122.5 41t-97 79t-63 124.5q-8 30 -11 60 q-3 27 1 58.5t21 67.5q14 30 37 39.5t45 1.5t35 -33q8 -11 14 -25q27 -46 76 -82q44 -30 115 -56t186 -26q137 0 229.5 15t171.5 29h3q5 0 14.5 1.5t20.5 -4.5q3 0 4.5 -1t4.5 -1h2q16 -8 38 -20.5t42.5 -33t35.5 -48t18 -65.5q0 -22 -12.5 -28.5t-20.5 -6.5 q-49 -5 -125.5 -22t-163.5 -36q-3 -8 -5.5 -16t-8.5 -19q-14 -22 -48 -65.5t-81.5 -109.5t-106.5 -154.5t-116 -200.5q-117 -235 -148.5 -464.5t36.5 -496.5v-3q115 14 259 77q16 8 30 8t22 -5.5t11 -27.5q0 -22 -22 -65.5t-88.5 -84.5t-191 -65.5t-329.5 -8.5 q-104 8 -191 36.5t-144 72.5q-22 16 -48 47.5t-4 62.5zM999 1862q0 11 19.5 33t49.5 45t69.5 45t77.5 33l6 2q46 25 82 3q46 -14 62 -63q0 -3 3 -5q19 -35 31.5 -77.5t18 -81t2.5 -67t-11 -36.5q-25 -25 -26 -21t-31 18q-11 5 -52 35t-88 69q-57 5 -110 13t-62 14 q-16 5 -24 5t-11 3t-4.5 10t-1.5 23z" />
<glyph unicode="&#xcf;" horiz-adv-x="1168" d="M85 -106q19 25 54.5 52t73.5 46t75 23t59 -18q22 -25 52 -52q27 -22 66.5 -46.5t94.5 -37.5q-3 3 -4.5 5.5t-3.5 5.5q-71 87 -85 195t3 222q14 98 52 214.5t81.5 225.5t84.5 195t63 127q41 85 79 156t71 128q-74 0 -140.5 12.5t-122.5 41t-97 79t-63 124.5q-8 30 -11 60 q-3 27 1 58.5t21 67.5q14 30 37 39.5t45 1.5t35 -33q8 -11 14 -25q27 -46 76 -82q44 -30 115 -56t186 -26q137 0 229.5 15t171.5 29h3q5 0 14.5 1.5t20.5 -4.5q3 0 4.5 -1t4.5 -1h2q16 -8 38 -20.5t42.5 -33t35.5 -48t18 -65.5q0 -22 -12.5 -28.5t-20.5 -6.5 q-49 -5 -125.5 -22t-163.5 -36q-3 -8 -5.5 -16t-8.5 -19q-14 -22 -48 -65.5t-81.5 -109.5t-106.5 -154.5t-116 -200.5q-117 -235 -148.5 -464.5t36.5 -496.5v-3q115 14 259 77q16 8 30 8t22 -5.5t11 -27.5q0 -22 -22 -65.5t-88.5 -84.5t-191 -65.5t-329.5 -8.5 q-104 8 -191 36.5t-144 72.5q-22 16 -48 47.5t-4 62.5zM1017.5 1908.5q6.5 32.5 20.5 48.5q19 33 33 50q8 11 11 19q8 14 19 22q22 16 43 2q11 -8 29 -24.5t31.5 -38t17.5 -46t-7 -46.5q-8 -14 -23 -34.5t-42 -50.5q-8 -14 -24.5 -12.5t-34.5 9.5t-34 20.5t-24 23.5 q-22 25 -15.5 57.5zM1230.5 1829.5q6.5 32.5 20.5 48.5q19 33 33 49q8 11 11 20q8 14 19 21q22 16 43 3q11 -8 29 -24.5t31.5 -38.5t17.5 -46.5t-7 -46.5q-8 -14 -23 -34t-42 -50q-8 -14 -24.5 -12.5t-34.5 9.5t-34 20.5t-24 23.5q-22 25 -15.5 57.5z" />
<glyph unicode="&#xd0;" horiz-adv-x="1968" d="M98 969q0 106 45 184.5t116 135.5t161.5 94t182.5 59q218 52 497 49q270 -8 467 -117q85 -46 160 -120t127 -182t71 -255.5t-11 -344.5q-46 -221 -166 -396q-52 -74 -124.5 -146t-172 -130.5t-229.5 -95.5t-294 -43q-145 0 -256.5 23.5t-196.5 60.5t-145 83t-101 96 q-96 112 -120 256q-5 27 -4 65.5t34 46.5q27 8 67 8t78 -8t69.5 -27t45.5 -52q0 -11 5 -25t9.5 -30t12.5 -38q8 -27 25 -57q14 -25 37 -55t55 -60q46 -46 119 -77.5t176 -37.5q134 -5 240.5 19.5t191 69.5t149 104t110.5 121q109 147 159 339q27 150 16 262t-50.5 195.5 t-99.5 139.5t-126 91q-156 85 -377 90q-167 -8 -304.5 -58.5t-241.5 -113.5t-174.5 -126t-103.5 -98q-35 -33 -62.5 -24.5t-44.5 38.5q-8 14 -12 29t-7 28q-3 14 -3 30zM456 382q-8 33 12.5 49.5t54.5 23t79 5.5t92 -4q101 -8 169 -12t109 -9.5t59 -18t18 -39.5 q-3 -11 -27.5 -18t-56 -8t-64.5 -1h-52h-347q-27 0 -38 16q-5 8 -8 16zM551.5 133.5q0.5 19.5 0.5 27.5q8 79 24.5 150t29.5 126q16 63 36 112q38 126 77.5 222.5t69.5 162.5q35 76 71 134q14 22 30 35q14 14 30.5 19.5t35.5 -5.5t47.5 -35.5t53 -57.5t35.5 -71t-5 -74 q-8 -19 -33 -54.5t-59 -86t-71 -118.5t-69 -156q-57 -147 -83.5 -249.5t-31.5 -173.5q-3 -16 -12.5 -19t-14.5 -3q-63 5 -98.5 31t-49.5 48q-14 16 -13.5 35.5z" />
<glyph unicode="&#xd1;" horiz-adv-x="2176" d="M61.5 1562q1.5 33 14.5 68q14 30 36 39.5t44 4.5t38 -30q9 -11 14 -25q30 -44 81 -76q46 -30 117.5 -50.5t186.5 -15.5q126 5 237.5 26t216.5 37t207.5 21.5t206.5 -15.5q22 -5 72.5 -26t90 -70t46.5 -131t-62 -208q-57 -101 -102 -192.5t-78 -167.5q79 98 170.5 198 t192.5 181.5t209 142t220 81.5q19 3 53 0.5t64 -30.5q22 -19 44 -47.5t35.5 -65.5t11 -79t-29.5 -89q-41 -60 -85 -133.5t-90 -161.5q-68 -134 -119 -258t-75.5 -252.5t-16 -271.5t57.5 -316q11 -35 -13.5 -63.5t-63.5 -20.5q-44 8 -82 38q-22 14 -38 31.5t-33 36.5 q-68 87 -81.5 195t0.5 223q16 126 58.5 264t94 263.5t98 225t71.5 148.5q11 25 28.5 56.5t35.5 62.5t34 60t27 51q-5 -3 -62.5 -41.5t-145 -113.5t-196.5 -185.5t-219.5 -256.5t-215.5 -332t-182 -407v3q-5 -22 -6.5 -35.5t-7.5 -24.5q-11 -38 -45 -58.5t-73.5 -30 t-77.5 -11t-57 3.5q-22 5 -30.5 20.5t-10.5 34.5q-3 22 0 46q27 131 76 290q41 137 106.5 315.5t166.5 386.5q19 38 38 81.5t44 90.5q14 25 31.5 59t36.5 69q8 14 18 30t20 36q3 5 11.5 20t19 34t19 35.5t13.5 22.5q14 22 15.5 38t-1.5 24q-5 11 -6 14q-8 14 -21.5 22 t-51.5 11t-142 -27.5t-238 -67t-285.5 -66.5t-286.5 -27.5t-240 50.5t-146 168q-8 30 -11 60q-3 27 -1.5 60zM1851 1783l5 15q4 15 12 31.5t20.5 30t28.5 13.5q22 0 27.5 -20.5t5.5 -17.5q3 -16 22 -33q14 -14 45 -31.5t86 -33.5q55 -14 102.5 -29t80 -38.5t50.5 -56 t10 -84.5q0 -3 -3 -18t-9.5 -31.5t-19 -30t-31.5 -13.5q-22 0 -27.5 19t-5.5 22q-5 14 -22 30q-14 14 -45 32t-86 34q-68 19 -118.5 34t-82 35.5t-42.5 53t-3 87.5z" />
<glyph unicode="&#xd2;" horiz-adv-x="1777" d="M270 953v23.5t6 25.5q8 35 35.5 46t65.5 -16q27 -19 71 -49t104 -63q85 126 179 219t185.5 158.5t176 106.5t152.5 62q106 30 202 25q82 -5 168 -49t138 -161q52 -123 30 -236.5t-85 -208.5q46 -115 37 -272t-113 -370q-38 -79 -94 -157t-130 -146t-164 -120.5 t-196 -79.5q-101 -27 -213 -27t-214.5 31.5t-183 98.5t-119 177.5t-24.5 267.5t101 367q8 22 17.5 42.5t20.5 42.5q-57 44 -96.5 101t-53.5 136q-3 14 -3 25zM500 249.5q-19 -118.5 1.5 -197.5t66.5 -125.5t99.5 -71t101 -31.5t69.5 -7q38 -3 109.5 5.5t156 52t170.5 132.5 t157 250q49 120 68 213t14 169v3q-76 -30 -167 -55q-79 -22 -184 -35.5t-231 -8.5q-22 0 -42.5 3t-41.5 6q-52 5 -102.5 13t-97.5 22q-5 3 -9 3t-10 3q-8 -14 -16.5 -29t-13.5 -29q-79 -167 -98 -285.5zM765 819q71 -27 152.5 -46t172.5 -25q27 -3 51.5 -3h49.5 q76 5 134.5 27.5t102.5 52.5q38 22 61.5 47.5t31.5 39.5q38 57 60 116t24.5 112t-11 95.5t-46.5 67.5q-49 38 -106.5 36.5t-106.5 -17.5q-57 -20 -112 -55q-104 -66 -224 -176.5t-234 -271.5zM1396.5 1728q-1.5 22 5.5 48t19 50.5t26 40.5q46 52 102 30.5t102.5 -73.5 t75.5 -111t20 -75q-14 -33 -16.5 -30t-35.5 5q-8 0 -43.5 8.5t-79 20.5t-87.5 26t-68 27q-19 11 -20.5 33z" />
<glyph unicode="&#xd3;" horiz-adv-x="1777" d="M270 953v23.5t6 25.5q8 35 35.5 46t65.5 -16q27 -19 71 -49t104 -63q85 126 179 219t185.5 158.5t176 106.5t152.5 62q106 30 202 25q82 -5 168 -49t138 -161q52 -123 30 -236.5t-85 -208.5q46 -115 37 -272t-113 -370q-38 -79 -94 -157t-130 -146t-164 -120.5 t-196 -79.5q-101 -27 -213 -27t-214.5 31.5t-183 98.5t-119 177.5t-24.5 267.5t101 367q8 22 17.5 42.5t20.5 42.5q-57 44 -96.5 101t-53.5 136q-3 14 -3 25zM500 249.5q-19 -118.5 1.5 -197.5t66.5 -125.5t99.5 -71t101 -31.5t69.5 -7q38 -3 109.5 5.5t156 52t170.5 132.5 t157 250q49 120 68 213t14 169v3q-76 -30 -167 -55q-79 -22 -184 -35.5t-231 -8.5q-22 0 -42.5 3t-41.5 6q-52 5 -102.5 13t-97.5 22q-5 3 -9 3t-10 3q-8 -14 -16.5 -29t-13.5 -29q-79 -167 -98 -285.5zM765 819q71 -27 152.5 -46t172.5 -25q27 -3 51.5 -3h49.5 q76 5 134.5 27.5t102.5 52.5q38 22 61.5 47.5t31.5 39.5q38 57 60 116t24.5 112t-11 95.5t-46.5 67.5q-49 38 -106.5 36.5t-106.5 -17.5q-57 -20 -112 -55q-104 -66 -224 -176.5t-234 -271.5zM1407 1770q-4 0 13 32q5 11 38 22t76.5 16.5t91.5 4t87.5 -16.5t61 -42.5 t13.5 -73.5q-5 -19 -16 -45t-26 -47.5t-34 -34t-38 -4.5q-27 11 -65.5 35.5t-75.5 52t-64.5 49.5t-35.5 27q-22 25 -26 25z" />
<glyph unicode="&#xd4;" horiz-adv-x="1777" d="M270 953v23.5t6 25.5q8 35 35.5 46t65.5 -16q27 -19 71 -49t104 -63q85 126 179 219t185.5 158.5t176 106.5t152.5 62q106 30 202 25q82 -5 168 -49t138 -161q52 -123 30 -236.5t-85 -208.5q46 -115 37 -272t-113 -370q-38 -79 -94 -157t-130 -146t-164 -120.5 t-196 -79.5q-101 -27 -213 -27t-214.5 31.5t-183 98.5t-119 177.5t-24.5 267.5t101 367q8 22 17.5 42.5t20.5 42.5q-57 44 -96.5 101t-53.5 136q-3 14 -3 25zM500 249.5q-19 -118.5 1.5 -197.5t66.5 -125.5t99.5 -71t101 -31.5t69.5 -7q38 -3 109.5 5.5t156 52t170.5 132.5 t157 250q49 120 68 213t14 169v3q-76 -30 -167 -55q-79 -22 -184 -35.5t-231 -8.5q-22 0 -42.5 3t-41.5 6q-52 5 -102.5 13t-97.5 22q-5 3 -9 3t-10 3q-8 -14 -16.5 -29t-13.5 -29q-79 -167 -98 -285.5zM765 819q71 -27 152.5 -46t172.5 -25q27 -3 51.5 -3h49.5 q76 5 134.5 27.5t102.5 52.5q38 22 61.5 47.5t31.5 39.5q38 57 60 116t24.5 112t-11 95.5t-46.5 67.5q-49 38 -106.5 36.5t-106.5 -17.5q-57 -20 -112 -55q-104 -66 -224 -176.5t-234 -271.5zM1357 1734q0 11 19.5 33t49.5 45t69.5 45t77.5 33l6 2q46 25 82 3q46 -14 62 -63 q0 -3 3 -5q19 -35 31.5 -77.5t18 -81t2.5 -67t-11 -36.5q-25 -25 -26 -21t-31 18q-11 5 -52 35t-88 69q-57 5 -110 13t-62 14q-16 5 -24 5t-11 3t-4.5 10t-1.5 23z" />
<glyph unicode="&#xd5;" horiz-adv-x="1777" d="M270 953v23.5t6 25.5q8 35 35.5 46t65.5 -16q27 -19 71 -49t104 -63q85 126 179 219t185.5 158.5t176 106.5t152.5 62q106 30 202 25q82 -5 168 -49t138 -161q52 -123 30 -236.5t-85 -208.5q46 -115 37 -272t-113 -370q-38 -79 -94 -157t-130 -146t-164 -120.5 t-196 -79.5q-101 -27 -213 -27t-214.5 31.5t-183 98.5t-119 177.5t-24.5 267.5t101 367q8 22 17.5 42.5t20.5 42.5q-57 44 -96.5 101t-53.5 136q-3 14 -3 25zM500 249.5q-19 -118.5 1.5 -197.5t66.5 -125.5t99.5 -71t101 -31.5t69.5 -7q38 -3 109.5 5.5t156 52t170.5 132.5 t157 250q49 120 68 213t14 169v3q-76 -30 -167 -55q-79 -22 -184 -35.5t-231 -8.5q-22 0 -42.5 3t-41.5 6q-52 5 -102.5 13t-97.5 22q-5 3 -9 3t-10 3q-8 -14 -16.5 -29t-13.5 -29q-79 -167 -98 -285.5zM765 819q71 -27 152.5 -46t172.5 -25q27 -3 51.5 -3h49.5 q76 5 134.5 27.5t102.5 52.5q38 22 61.5 47.5t31.5 39.5q38 57 60 116t24.5 112t-11 95.5t-46.5 67.5q-49 38 -106.5 36.5t-106.5 -17.5q-57 -20 -112 -55q-104 -66 -224 -176.5t-234 -271.5zM1321 1871l5 15q4 15 12 31.5t20.5 30t28.5 13.5q22 0 27.5 -20.5t5.5 -17.5 q3 -16 22 -33q14 -14 45 -31.5t86 -33.5q55 -14 102.5 -29t80 -38.5t50.5 -56t10 -84.5q0 -3 -3 -18t-9.5 -31.5t-19 -30t-31.5 -13.5q-22 0 -27.5 19t-5.5 22q-5 14 -22 30q-14 14 -45 32t-86 34q-68 19 -118.5 34t-82 35.5t-42.5 53t-3 87.5z" />
<glyph unicode="&#xd6;" horiz-adv-x="1777" d="M270 953v23.5t6 25.5q8 35 35.5 46t65.5 -16q27 -19 71 -49t104 -63q85 126 179 219t185.5 158.5t176 106.5t152.5 62q106 30 202 25q82 -5 168 -49t138 -161q52 -123 30 -236.5t-85 -208.5q46 -115 37 -272t-113 -370q-38 -79 -94 -157t-130 -146t-164 -120.5 t-196 -79.5q-101 -27 -213 -27t-214.5 31.5t-183 98.5t-119 177.5t-24.5 267.5t101 367q8 22 17.5 42.5t20.5 42.5q-57 44 -96.5 101t-53.5 136q-3 14 -3 25zM500 249.5q-19 -118.5 1.5 -197.5t66.5 -125.5t99.5 -71t101 -31.5t69.5 -7q38 -3 109.5 5.5t156 52t170.5 132.5 t157 250q49 120 68 213t14 169v3q-76 -30 -167 -55q-79 -22 -184 -35.5t-231 -8.5q-22 0 -42.5 3t-41.5 6q-52 5 -102.5 13t-97.5 22q-5 3 -9 3t-10 3q-8 -14 -16.5 -29t-13.5 -29q-79 -167 -98 -285.5zM765 819q71 -27 152.5 -46t172.5 -25q27 -3 51.5 -3h49.5 q76 5 134.5 27.5t102.5 52.5q38 22 61.5 47.5t31.5 39.5q38 57 60 116t24.5 112t-11 95.5t-46.5 67.5q-49 38 -106.5 36.5t-106.5 -17.5q-57 -20 -112 -55q-104 -66 -224 -176.5t-234 -271.5zM1385.5 1777.5q6.5 32.5 20.5 48.5q19 33 33 50q8 11 11 19q8 14 19 22 q22 16 43 2q11 -8 29 -24.5t31.5 -38t17.5 -46t-7 -46.5q-8 -14 -23 -34.5t-42 -50.5q-8 -14 -24.5 -12.5t-34.5 9.5t-34 20.5t-24 23.5q-22 25 -15.5 57.5zM1598.5 1698.5q6.5 32.5 20.5 48.5q19 33 33 49q8 11 11 20q8 14 19 21q22 16 43 3q11 -8 29 -24.5t31.5 -38.5 t17.5 -46.5t-7 -46.5q-8 -14 -23 -34t-42 -50q-8 -14 -24.5 -12.5t-34.5 9.5t-34 20.5t-24 23.5q-22 25 -15.5 57.5z" />
<glyph unicode="&#xd7;" horiz-adv-x="589" d="M57 74q-8 8 5.5 30t34 46.5t44 47.5t36.5 37l36 35l-128 129q-14 11 -15.5 21.5t-1.5 19.5q0 11 6 16q16 27 40.5 26t53.5 -20.5t60 -50.5t61 -67l134 137q11 11 22 12t19 1q11 -3 17 -5q27 -16 24 -42t-22 -56.5t-51.5 -61.5t-68.5 -59q-3 -3 -4 -2.5t-4 -2.5 q96 -109 132.5 -155.5t1.5 -76.5q-8 -8 -30 5.5t-46.5 34t-49 43.5t-35.5 37l-47 46q-104 -90 -149 -125.5t-75 0.5z" />
<glyph unicode="&#xd9;" horiz-adv-x="2195" d="M61.5 1562q1.5 33 14.5 68q14 30 36 39.5t44 4.5t38 -30q8 -11 14 -25q27 -44 79 -76q44 -30 117.5 -50.5t188.5 -15.5q126 5 237.5 26t216.5 37t207.5 21.5t206.5 -15.5q22 -5 72.5 -26t90 -70t46.5 -131t-62 -208q-98 -172 -159.5 -315t-83.5 -203q-19 -41 -32.5 -83.5 t-27.5 -80.5q-11 -30 -34 -105.5t-39 -162.5v-5q-19 -101 -11 -156t24 -82q19 -30 49 -41q66 -11 134 34t135 123t128.5 176.5t110.5 191t84.5 169t52.5 112.5q3 5 8 22q41 96 76.5 170.5t57.5 115.5q57 117 110.5 209t91.5 157q46 74 84 134q16 19 33 30q14 11 31.5 16.5 t37.5 -8.5q16 -14 42 -41t46.5 -61t28.5 -74t-11 -72q-14 -22 -48 -66t-83 -109.5t-106.5 -155.5t-114.5 -202q-68 -134 -119 -258t-75.5 -252.5t-16 -271.5t57.5 -316q11 -35 -13.5 -63.5t-63.5 -20.5q-44 8 -82 38q-22 14 -38 31.5t-33 36.5q-60 76 -76 168t-11 187 q-90 -134 -210 -225t-273 -78q-87 14 -145 41q-90 49 -121.5 134t-30 173.5t20.5 162.5t27 98q0 3 1.5 4.5t1.5 3.5v3q38 106 88.5 228t113.5 253q33 76 82 172q14 25 31.5 59t36.5 69q8 14 18 30t20 36q3 5 11.5 20t19 34t19 35.5t13.5 22.5q14 22 15.5 38t-1.5 24 q-5 11 -6 14q-8 14 -21.5 22t-51.5 11t-142 -27.5t-238 -67t-285.5 -66.5t-286.5 -27.5t-240 50.5t-146 168q-8 30 -11 60q-3 27 -1.5 60zM1869.5 1674q-1.5 22 5.5 48t19 50.5t26 40.5q46 52 102 30.5t102.5 -73.5t75.5 -111t20 -75q-14 -33 -16.5 -30t-35.5 5 q-8 0 -43.5 8.5t-79 20.5t-87.5 26t-68 27q-19 11 -20.5 33z" />
<glyph unicode="&#xda;" horiz-adv-x="2195" d="M61.5 1562q1.5 33 14.5 68q14 30 36 39.5t44 4.5t38 -30q8 -11 14 -25q27 -44 79 -76q44 -30 117.5 -50.5t188.5 -15.5q126 5 237.5 26t216.5 37t207.5 21.5t206.5 -15.5q22 -5 72.5 -26t90 -70t46.5 -131t-62 -208q-98 -172 -159.5 -315t-83.5 -203q-19 -41 -32.5 -83.5 t-27.5 -80.5q-11 -30 -34 -105.5t-39 -162.5v-5q-19 -101 -11 -156t24 -82q19 -30 49 -41q66 -11 134 34t135 123t128.5 176.5t110.5 191t84.5 169t52.5 112.5q3 5 8 22q41 96 76.5 170.5t57.5 115.5q57 117 110.5 209t91.5 157q46 74 84 134q16 19 33 30q14 11 31.5 16.5 t37.5 -8.5q16 -14 42 -41t46.5 -61t28.5 -74t-11 -72q-14 -22 -48 -66t-83 -109.5t-106.5 -155.5t-114.5 -202q-68 -134 -119 -258t-75.5 -252.5t-16 -271.5t57.5 -316q11 -35 -13.5 -63.5t-63.5 -20.5q-44 8 -82 38q-22 14 -38 31.5t-33 36.5q-60 76 -76 168t-11 187 q-90 -134 -210 -225t-273 -78q-87 14 -145 41q-90 49 -121.5 134t-30 173.5t20.5 162.5t27 98q0 3 1.5 4.5t1.5 3.5v3q38 106 88.5 228t113.5 253q33 76 82 172q14 25 31.5 59t36.5 69q8 14 18 30t20 36q3 5 11.5 20t19 34t19 35.5t13.5 22.5q14 22 15.5 38t-1.5 24 q-5 11 -6 14q-8 14 -21.5 22t-51.5 11t-142 -27.5t-238 -67t-285.5 -66.5t-286.5 -27.5t-240 50.5t-146 168q-8 30 -11 60q-3 27 -1.5 60zM1833 1786q-4 0 13 32q5 11 38 22t76.5 16.5t91.5 4t87.5 -16.5t61 -42.5t13.5 -73.5q-5 -19 -16 -45t-26 -47.5t-34 -34t-38 -4.5 q-27 11 -65.5 35.5t-75.5 52t-64.5 49.5t-35.5 27q-22 25 -26 25z" />
<glyph unicode="&#xdb;" horiz-adv-x="2195" d="M61.5 1562q1.5 33 14.5 68q14 30 36 39.5t44 4.5t38 -30q8 -11 14 -25q27 -44 79 -76q44 -30 117.5 -50.5t188.5 -15.5q126 5 237.5 26t216.5 37t207.5 21.5t206.5 -15.5q22 -5 72.5 -26t90 -70t46.5 -131t-62 -208q-98 -172 -159.5 -315t-83.5 -203q-19 -41 -32.5 -83.5 t-27.5 -80.5q-11 -30 -34 -105.5t-39 -162.5v-5q-19 -101 -11 -156t24 -82q19 -30 49 -41q66 -11 134 34t135 123t128.5 176.5t110.5 191t84.5 169t52.5 112.5q3 5 8 22q41 96 76.5 170.5t57.5 115.5q57 117 110.5 209t91.5 157q46 74 84 134q16 19 33 30q14 11 31.5 16.5 t37.5 -8.5q16 -14 42 -41t46.5 -61t28.5 -74t-11 -72q-14 -22 -48 -66t-83 -109.5t-106.5 -155.5t-114.5 -202q-68 -134 -119 -258t-75.5 -252.5t-16 -271.5t57.5 -316q11 -35 -13.5 -63.5t-63.5 -20.5q-44 8 -82 38q-22 14 -38 31.5t-33 36.5q-60 76 -76 168t-11 187 q-90 -134 -210 -225t-273 -78q-87 14 -145 41q-90 49 -121.5 134t-30 173.5t20.5 162.5t27 98q0 3 1.5 4.5t1.5 3.5v3q38 106 88.5 228t113.5 253q33 76 82 172q14 25 31.5 59t36.5 69q8 14 18 30t20 36q3 5 11.5 20t19 34t19 35.5t13.5 22.5q14 22 15.5 38t-1.5 24 q-5 11 -6 14q-8 14 -21.5 22t-51.5 11t-142 -27.5t-238 -67t-285.5 -66.5t-286.5 -27.5t-240 50.5t-146 168q-8 30 -11 60q-3 27 -1.5 60zM1835 1740q0 11 19.5 33t49.5 45t69.5 45t77.5 33l6 2q46 25 82 3q46 -14 62 -63q0 -3 3 -5q19 -35 31.5 -77.5t18 -81t2.5 -67 t-11 -36.5q-25 -25 -26 -21t-31 18q-11 5 -52 35t-88 69q-57 5 -110 13t-62 14q-16 5 -24 5t-11 3t-4.5 10t-1.5 23z" />
<glyph unicode="&#xdc;" horiz-adv-x="2195" d="M61.5 1562q1.5 33 14.5 68q14 30 36 39.5t44 4.5t38 -30q8 -11 14 -25q27 -44 79 -76q44 -30 117.5 -50.5t188.5 -15.5q126 5 237.5 26t216.5 37t207.5 21.5t206.5 -15.5q22 -5 72.5 -26t90 -70t46.5 -131t-62 -208q-98 -172 -159.5 -315t-83.5 -203q-19 -41 -32.5 -83.5 t-27.5 -80.5q-11 -30 -34 -105.5t-39 -162.5v-5q-19 -101 -11 -156t24 -82q19 -30 49 -41q66 -11 134 34t135 123t128.5 176.5t110.5 191t84.5 169t52.5 112.5q3 5 8 22q41 96 76.5 170.5t57.5 115.5q57 117 110.5 209t91.5 157q46 74 84 134q16 19 33 30q14 11 31.5 16.5 t37.5 -8.5q16 -14 42 -41t46.5 -61t28.5 -74t-11 -72q-14 -22 -48 -66t-83 -109.5t-106.5 -155.5t-114.5 -202q-68 -134 -119 -258t-75.5 -252.5t-16 -271.5t57.5 -316q11 -35 -13.5 -63.5t-63.5 -20.5q-44 8 -82 38q-22 14 -38 31.5t-33 36.5q-60 76 -76 168t-11 187 q-90 -134 -210 -225t-273 -78q-87 14 -145 41q-90 49 -121.5 134t-30 173.5t20.5 162.5t27 98q0 3 1.5 4.5t1.5 3.5v3q38 106 88.5 228t113.5 253q33 76 82 172q14 25 31.5 59t36.5 69q8 14 18 30t20 36q3 5 11.5 20t19 34t19 35.5t13.5 22.5q14 22 15.5 38t-1.5 24 q-5 11 -6 14q-8 14 -21.5 22t-51.5 11t-142 -27.5t-238 -67t-285.5 -66.5t-286.5 -27.5t-240 50.5t-146 168q-8 30 -11 60q-3 27 -1.5 60zM1874.5 1769.5q6.5 32.5 20.5 48.5q19 33 33 50q8 11 11 19q8 14 19 22q22 16 43 2q11 -8 29 -24.5t31.5 -38t17.5 -46t-7 -46.5 q-8 -14 -23 -34.5t-42 -50.5q-8 -14 -24.5 -12.5t-34.5 9.5t-34 20.5t-24 23.5q-22 25 -15.5 57.5zM2087.5 1690.5q6.5 32.5 20.5 48.5q19 33 33 49q8 11 11 20q8 14 19 21q22 16 43 3q11 -8 29 -24.5t31.5 -38.5t17.5 -46.5t-7 -46.5q-8 -14 -23 -34t-42 -50 q-8 -14 -24.5 -12.5t-34.5 9.5t-34 20.5t-24 23.5q-22 25 -15.5 57.5z" />
<glyph unicode="&#xdd;" horiz-adv-x="2280" d="M136.5 1526q2.5 33 16.5 69q14 30 35.5 39.5t43.5 3.5q22 -5 38 -30q8 -11 14 -24q30 -44 82 -77q46 -30 117 -50.5t186 -14.5q126 5 238 25.5t218.5 37t207.5 22t204 -16.5q22 -5 72.5 -25.5t90 -70t46.5 -131.5t-61 -207q-96 -172 -158.5 -315.5t-84.5 -203.5 q-16 -41 -31.5 -83.5t-28.5 -80.5q-11 -30 -34.5 -105t-36.5 -162q0 -3 -1.5 -3t-1.5 -3q-19 -101 -11 -155.5t25 -81.5q19 -30 49 -41q76 -14 162 51.5t168 168t153 224t123 216.5q22 44 42.5 93t39.5 94.5t31.5 79t17.5 47.5q33 98 60 198t52 201q14 57 25 118.5t32 116.5 q14 35 45.5 55.5t69.5 30.5t79 7t74 -11q30 -11 32.5 -46.5t-2.5 -60.5q-46 -139 -95.5 -275.5t-101.5 -275.5q-35 -93 -72 -197t-75 -209t-82 -208.5t-90 -199.5q-25 -60 -68.5 -153t-105 -202t-138 -225t-169.5 -220q-52 -63 -155.5 -154.5t-259.5 -154.5 q-101 -41 -222.5 -61t-266.5 -4q-126 11 -205 53t-124 97t-61 117.5t-19 120.5q-3 82 15 139t34 90q14 22 29 44t37 43q46 52 117 93t175 55q66 14 153 8q79 -3 155.5 -15t149.5 -37q25 -11 58 -34t22 -56q-14 -30 -37 -63t-53 -58.5t-65.5 -40.5t-71.5 -10q-19 5 -37 9.5 t-37 9.5q-74 19 -143.5 19t-126.5 -23t-98 -68t-55 -119q-11 -49 -1.5 -86t28.5 -63t44 -42.5t49 -24.5q8 -3 52 -12.5t116.5 -6.5t165 30t196.5 98q25 16 49.5 35.5t48.5 41.5q63 52 123 120t116 144.5t108 157t98 160.5q-71 -63 -152.5 -97t-177.5 -26q-90 11 -148 41 q-90 49 -120 133.5t-30 173.5t19.5 162.5t27.5 98.5q0 3 1 4t1 4v3q38 106 89 227.5t114 252.5q35 76 81 172q14 25 32 59t37 70q8 14 17.5 30t20.5 35q3 5 11 20.5t19 34.5t19 35.5t14 21.5q14 22 15 38.5t-2 24.5q-3 5 -2.5 8t-2.5 5q-8 14 -22 22.5t-52 10.5 q-38 3 -140.5 -27t-237.5 -67t-285.5 -67t-285.5 -27t-240 50.5t-146 167.5q-8 30 -14 60q-5 27 -2.5 60zM1836 1792q-4 0 13 32q5 11 38 22t76.5 16.5t91.5 4t87.5 -16.5t61 -42.5t13.5 -73.5q-5 -19 -16 -45t-26 -47.5t-34 -34t-38 -4.5q-27 11 -65.5 35.5t-75.5 52 t-64.5 49.5t-35.5 27q-22 25 -26 25z" />
<glyph unicode="&#xe0;" horiz-adv-x="914" d="M-37 33q4 93 56 232t117.5 225t131 131t129.5 53.5t114 -10.5q41 -16 61.5 -46.5t28.5 -65.5q14 27 24 54q5 11 11 22q5 16 17 27q8 11 19 19.5t24 2.5q25 -8 66 -32.5t76 -65.5q11 -11 14 -27q3 -14 -1 -36t-21 -52q-11 -19 -32.5 -60t-47.5 -94t-51 -112t-38.5 -109.5 t-10.5 -86t30 -43.5q30 -11 64 17.5t67 71t59 90.5t42 78q3 11 14 22q19 19 49 16q27 -8 27 -33q0 -11 -5 -24q-16 -35 -47.5 -94t-71.5 -119t-85 -113.5t-94 -80.5q-30 -19 -60 -23.5t-55 -1.5q-30 3 -54 11q-55 25 -75.5 76.5t-17.5 122.5q-63 -96 -138 -150t-143 -49 q-49 3 -97 27.5t-74 80.5t-22 149zM180 -44q8 -33 36 -38q52 -8 101 48t90 127q46 82 90 191q0 3 3 5l8 25q16 57 19 91.5t-4 55t-16.5 27t-14.5 9.5q-8 3 -27.5 1.5t-51 -26t-72.5 -82t-93 -169.5q-52 -115 -62.5 -175t-5.5 -90zM460.5 860q-1.5 22 5.5 48t19 50.5t26 40.5 q46 52 102 30.5t102.5 -73.5t75.5 -111t20 -75q-14 -33 -16.5 -30t-35.5 5q-8 0 -43.5 8.5t-79 20.5t-87.5 26t-68 27q-19 11 -20.5 33z" />
<glyph unicode="&#xe1;" horiz-adv-x="914" d="M-37 33q4 93 56 232t117.5 225t131 131t129.5 53.5t114 -10.5q41 -16 61.5 -46.5t28.5 -65.5q14 27 24 54q5 11 11 22q5 16 17 27q8 11 19 19.5t24 2.5q25 -8 66 -32.5t76 -65.5q11 -11 14 -27q3 -14 -1 -36t-21 -52q-11 -19 -32.5 -60t-47.5 -94t-51 -112t-38.5 -109.5 t-10.5 -86t30 -43.5q30 -11 64 17.5t67 71t59 90.5t42 78q3 11 14 22q19 19 49 16q27 -8 27 -33q0 -11 -5 -24q-16 -35 -47.5 -94t-71.5 -119t-85 -113.5t-94 -80.5q-30 -19 -60 -23.5t-55 -1.5q-30 3 -54 11q-55 25 -75.5 76.5t-17.5 122.5q-63 -96 -138 -150t-143 -49 q-49 3 -97 27.5t-74 80.5t-22 149zM180 -44q8 -33 36 -38q52 -8 101 48t90 127q46 82 90 191q0 3 3 5l8 25q16 57 19 91.5t-4 55t-16.5 27t-14.5 9.5q-8 3 -27.5 1.5t-51 -26t-72.5 -82t-93 -169.5q-52 -115 -62.5 -175t-5.5 -90zM536 937q-4 0 13 32q5 11 38 22t76.5 16.5 t91.5 4t87.5 -16.5t61 -42.5t13.5 -73.5q-5 -19 -16 -45t-26 -47.5t-34 -34t-38 -4.5q-27 11 -65.5 35.5t-75.5 52t-64.5 49.5t-35.5 27q-22 25 -26 25z" />
<glyph unicode="&#xe2;" horiz-adv-x="914" d="M-37 33q4 93 56 232t117.5 225t131 131t129.5 53.5t114 -10.5q41 -16 61.5 -46.5t28.5 -65.5q14 27 24 54q5 11 11 22q5 16 17 27q8 11 19 19.5t24 2.5q25 -8 66 -32.5t76 -65.5q11 -11 14 -27q3 -14 -1 -36t-21 -52q-11 -19 -32.5 -60t-47.5 -94t-51 -112t-38.5 -109.5 t-10.5 -86t30 -43.5q30 -11 64 17.5t67 71t59 90.5t42 78q3 11 14 22q19 19 49 16q27 -8 27 -33q0 -11 -5 -24q-16 -35 -47.5 -94t-71.5 -119t-85 -113.5t-94 -80.5q-30 -19 -60 -23.5t-55 -1.5q-30 3 -54 11q-55 25 -75.5 76.5t-17.5 122.5q-63 -96 -138 -150t-143 -49 q-49 3 -97 27.5t-74 80.5t-22 149zM180 -44q8 -33 36 -38q52 -8 101 48t90 127q46 82 90 191q0 3 3 5l8 25q16 57 19 91.5t-4 55t-16.5 27t-14.5 9.5q-8 3 -27.5 1.5t-51 -26t-72.5 -82t-93 -169.5q-52 -115 -62.5 -175t-5.5 -90zM480 863q0 11 19.5 33t49.5 45t69.5 45 t77.5 33l6 2q46 25 82 3q46 -14 62 -63q0 -3 3 -5q19 -35 31.5 -77.5t18 -81t2.5 -67t-11 -36.5q-25 -25 -26 -21t-31 18q-11 5 -52 35t-88 69q-57 5 -110 13t-62 14q-16 5 -24 5t-11 3t-4.5 10t-1.5 23z" />
<glyph unicode="&#xe3;" horiz-adv-x="914" d="M-37 33q4 93 56 232t117.5 225t131 131t129.5 53.5t114 -10.5q41 -16 61.5 -46.5t28.5 -65.5q14 27 24 54q5 11 11 22q5 16 17 27q8 11 19 19.5t24 2.5q25 -8 66 -32.5t76 -65.5q11 -11 14 -27q3 -14 -1 -36t-21 -52q-11 -19 -32.5 -60t-47.5 -94t-51 -112t-38.5 -109.5 t-10.5 -86t30 -43.5q30 -11 64 17.5t67 71t59 90.5t42 78q3 11 14 22q19 19 49 16q27 -8 27 -33q0 -11 -5 -24q-16 -35 -47.5 -94t-71.5 -119t-85 -113.5t-94 -80.5q-30 -19 -60 -23.5t-55 -1.5q-30 3 -54 11q-55 25 -75.5 76.5t-17.5 122.5q-63 -96 -138 -150t-143 -49 q-49 3 -97 27.5t-74 80.5t-22 149zM180 -44q8 -33 36 -38q52 -8 101 48t90 127q46 82 90 191q0 3 3 5l8 25q16 57 19 91.5t-4 55t-16.5 27t-14.5 9.5q-8 3 -27.5 1.5t-51 -26t-72.5 -82t-93 -169.5q-52 -115 -62.5 -175t-5.5 -90zM469 994l5 15q4 15 12 31.5t20.5 30 t28.5 13.5q22 0 27.5 -20.5t5.5 -17.5q3 -16 22 -33q14 -14 45 -31.5t86 -33.5q55 -14 102.5 -29t80 -38.5t50.5 -56t10 -84.5q0 -3 -3 -18t-9.5 -31.5t-19 -30t-31.5 -13.5q-22 0 -27.5 19t-5.5 22q-5 14 -22 30q-14 14 -45 32t-86 34q-68 19 -118.5 34t-82 35.5t-42.5 53 t-3 87.5z" />
<glyph unicode="&#xe4;" horiz-adv-x="914" d="M-37 33q4 93 56 232t117.5 225t131 131t129.5 53.5t114 -10.5q41 -16 61.5 -46.5t28.5 -65.5q14 27 24 54q5 11 11 22q5 16 17 27q8 11 19 19.5t24 2.5q25 -8 66 -32.5t76 -65.5q11 -11 14 -27q3 -14 -1 -36t-21 -52q-11 -19 -32.5 -60t-47.5 -94t-51 -112t-38.5 -109.5 t-10.5 -86t30 -43.5q30 -11 64 17.5t67 71t59 90.5t42 78q3 11 14 22q19 19 49 16q27 -8 27 -33q0 -11 -5 -24q-16 -35 -47.5 -94t-71.5 -119t-85 -113.5t-94 -80.5q-30 -19 -60 -23.5t-55 -1.5q-30 3 -54 11q-55 25 -75.5 76.5t-17.5 122.5q-63 -96 -138 -150t-143 -49 q-49 3 -97 27.5t-74 80.5t-22 149zM180 -44q8 -33 36 -38q52 -8 101 48t90 127q46 82 90 191q0 3 3 5l8 25q16 57 19 91.5t-4 55t-16.5 27t-14.5 9.5q-8 3 -27.5 1.5t-51 -26t-72.5 -82t-93 -169.5q-52 -115 -62.5 -175t-5.5 -90zM547.5 909.5q6.5 32.5 20.5 48.5 q19 33 33 50q8 11 11 19q8 14 19 22q22 16 43 2q11 -8 29 -24.5t31.5 -38t17.5 -46t-7 -46.5q-8 -14 -23 -34.5t-42 -50.5q-8 -14 -24.5 -12.5t-34.5 9.5t-34 20.5t-24 23.5q-22 25 -15.5 57.5zM760.5 830.5q6.5 32.5 20.5 48.5q19 33 33 49q8 11 11 20q8 14 19 21 q22 16 43 3q11 -8 29 -24.5t31.5 -38.5t17.5 -46.5t-7 -46.5q-8 -14 -23 -34t-42 -50q-8 -14 -24.5 -12.5t-34.5 9.5t-34 20.5t-24 23.5q-22 25 -15.5 57.5z" />
<glyph unicode="&#xe5;" horiz-adv-x="914" d="M-37 33q4 93 56 232t117.5 225t131 131t129.5 53.5t114 -10.5q41 -16 61.5 -46.5t28.5 -65.5q14 27 24 54q5 11 11 22q5 16 17 27q8 11 19 19.5t24 2.5q25 -8 66 -32.5t76 -65.5q11 -11 14 -27q3 -14 -1 -36t-21 -52q-11 -19 -32.5 -60t-47.5 -94t-51 -112t-38.5 -109.5 t-10.5 -86t30 -43.5q30 -11 64 17.5t67 71t59 90.5t42 78q3 11 14 22q19 19 49 16q27 -8 27 -33q0 -11 -5 -24q-16 -35 -47.5 -94t-71.5 -119t-85 -113.5t-94 -80.5q-30 -19 -60 -23.5t-55 -1.5q-30 3 -54 11q-55 25 -75.5 76.5t-17.5 122.5q-63 -96 -138 -150t-143 -49 q-49 3 -97 27.5t-74 80.5t-22 149zM180 -44q8 -33 36 -38q52 -8 101 48t90 127q46 82 90 191q0 3 3 5l8 25q16 57 19 91.5t-4 55t-16.5 27t-14.5 9.5q-8 3 -27.5 1.5t-51 -26t-72.5 -82t-93 -169.5q-52 -115 -62.5 -175t-5.5 -90zM637.5 857.5q6.5 32.5 20.5 49.5 q19 33 33 49q8 11 11 19q8 14 19 22q22 16 43 2q11 -8 29 -24.5t31.5 -38t17.5 -46t-7 -46.5q-8 -14 -23 -34.5t-42 -50.5q-8 -14 -24.5 -12.5t-34.5 10t-34 20.5t-24 23q-22 25 -15.5 57.5zM694 859q-3 -15 5 -26t27 -22t28 3q19 25 30 38q14 22 -4 44t-29 27 q-5 5 -9.5 2.5t-9.5 -5.5l-8 -8q-3 -3 -6 -8t-7 -11t-9 -11q-5 -8 -8 -23z" />
<glyph unicode="&#xe6;" horiz-adv-x="1171" d="M-37 33q4 93 56 232t117.5 225t131 131t129.5 53.5t114 -10.5q41 -16 61.5 -46.5t28.5 -65.5q14 27 24 54q5 11 11 22q5 16 17 27q8 11 19 19.5t24 2.5q30 -11 71 -38q57 30 110.5 35.5t100.5 -10.5q46 -19 66.5 -56t25.5 -78q3 -14 4.5 -30.5t-1.5 -38.5 q-3 -38 -19 -99.5t-60 -124t-124.5 -118.5t-214.5 -81q0 -8 -1 -15t-1 -12q-3 -25 2.5 -49.5t21.5 -46.5h3q14 -16 44 -30q11 -5 24 -5h3l3 -3q49 -5 92.5 6t80.5 31t65.5 46t50.5 51l19 22l19 24q30 41 55 85t38 74q3 11 14 22q19 19 49 16q16 -5 20.5 -13.5t4.5 -19.5 t-6 -24q-14 -27 -31.5 -64t-44.5 -81q-11 -27 -52 -85l-30 -41q-55 -63 -135.5 -124t-189.5 -67q-33 -5 -74 0q-106 14 -167 52q-2 3 -5 3q-55 33 -79 101q-5 19 -11 36.5t-8 37.5q-63 -87 -135.5 -140.5t-137.5 -48.5q-49 3 -97 27.5t-74 80.5t-22 149zM180 -44 q8 -33 36 -38q35 -5 72 25t69.5 75t60 97t46.5 93q5 14 11 28.5t11 28.5l25 63q16 52 17.5 83t-5.5 50.5t-16.5 26t-14.5 9.5q-8 3 -27.5 1.5t-51 -26t-72.5 -82t-93 -169.5q-52 -115 -62.5 -175t-5.5 -90zM688 150q71 11 123 46.5t87.5 79t53 86t20.5 69.5q5 49 -9.5 59 t-20.5 10q-14 0 -34.5 -8.5t-49 -37t-62.5 -82t-75 -140.5q-3 -3 -3 -5z" />
<glyph unicode="&#xe8;" horiz-adv-x="704" d="M-40 -30q-4 55 5 109v3q13 82 51 183q52 139 117.5 225t131 131t130 53.5t113.5 -10.5q46 -19 66.5 -56t26.5 -78q3 -14 4 -30.5t-2 -38.5q-3 -38 -19 -99.5t-59.5 -124t-124.5 -118.5t-214 -81q-5 -46 5.5 -90t62.5 -63q11 -5 25 -5h2l3 -3q49 -5 93 6t80.5 31t65.5 46 t50 51q5 5 9.5 10.5t10.5 11.5q16 22 19 24q30 41 54.5 85t38.5 74q3 11 13 22q19 19 49 16q16 -5 20.5 -13.5t4.5 -19.5t-6 -24q-14 -27 -31.5 -64t-44.5 -81q-11 -27 -52 -85q-5 -8 -12 -17.5t-18 -23.5q-55 -63 -135.5 -124t-189.5 -67q-33 -5 -74 0q-101 11 -157 46.5 t-83 87.5q-25 46 -29 101zM216 150q74 11 125.5 46.5t87 79t53.5 86t20 69.5q5 49 -9.5 59t-20.5 10q-14 0 -35.5 -9.5t-50 -38.5t-64 -83.5t-76.5 -147.5q-11 -22 -18 -38t-12 -33zM340.5 860q-1.5 22 5.5 48t19 50.5t26 40.5q46 52 102 30.5t102.5 -73.5t75.5 -111t20 -75 q-14 -33 -16.5 -30t-35.5 5q-8 0 -43.5 8.5t-79 20.5t-87.5 26t-68 27q-19 11 -20.5 33z" />
<glyph unicode="&#xe9;" horiz-adv-x="704" d="M-40 -30q-4 55 5 109v3q13 82 51 183q52 139 117.5 225t131 131t130 53.5t113.5 -10.5q46 -19 66.5 -56t26.5 -78q3 -14 4 -30.5t-2 -38.5q-3 -38 -19 -99.5t-59.5 -124t-124.5 -118.5t-214 -81q-5 -46 5.5 -90t62.5 -63q11 -5 25 -5h2l3 -3q49 -5 93 6t80.5 31t65.5 46 t50 51q5 5 9.5 10.5t10.5 11.5q16 22 19 24q30 41 54.5 85t38.5 74q3 11 13 22q19 19 49 16q16 -5 20.5 -13.5t4.5 -19.5t-6 -24q-14 -27 -31.5 -64t-44.5 -81q-11 -27 -52 -85q-5 -8 -12 -17.5t-18 -23.5q-55 -63 -135.5 -124t-189.5 -67q-33 -5 -74 0q-101 11 -157 46.5 t-83 87.5q-25 46 -29 101zM216 150q74 11 125.5 46.5t87 79t53.5 86t20 69.5q5 49 -9.5 59t-20.5 10q-14 0 -35.5 -9.5t-50 -38.5t-64 -83.5t-76.5 -147.5q-11 -22 -18 -38t-12 -33zM329 937q-4 0 13 32q5 11 38 22t76.5 16.5t91.5 4t87.5 -16.5t61 -42.5t13.5 -73.5 q-5 -19 -16 -45t-26 -47.5t-34 -34t-38 -4.5q-27 11 -65.5 35.5t-75.5 52t-64.5 49.5t-35.5 27q-22 25 -26 25z" />
<glyph unicode="&#xea;" horiz-adv-x="704" d="M-40 -30q-4 55 5 109v3q13 82 51 183q52 139 117.5 225t131 131t130 53.5t113.5 -10.5q46 -19 66.5 -56t26.5 -78q3 -14 4 -30.5t-2 -38.5q-3 -38 -19 -99.5t-59.5 -124t-124.5 -118.5t-214 -81q-5 -46 5.5 -90t62.5 -63q11 -5 25 -5h2l3 -3q49 -5 93 6t80.5 31t65.5 46 t50 51q5 5 9.5 10.5t10.5 11.5q16 22 19 24q30 41 54.5 85t38.5 74q3 11 13 22q19 19 49 16q16 -5 20.5 -13.5t4.5 -19.5t-6 -24q-14 -27 -31.5 -64t-44.5 -81q-11 -27 -52 -85q-5 -8 -12 -17.5t-18 -23.5q-55 -63 -135.5 -124t-189.5 -67q-33 -5 -74 0q-101 11 -157 46.5 t-83 87.5q-25 46 -29 101zM216 150q74 11 125.5 46.5t87 79t53.5 86t20 69.5q5 49 -9.5 59t-20.5 10q-14 0 -35.5 -9.5t-50 -38.5t-64 -83.5t-76.5 -147.5q-11 -22 -18 -38t-12 -33zM314 863q0 11 19.5 33t49.5 45t69.5 45t77.5 33l6 2q46 25 82 3q46 -14 62 -63q0 -3 3 -5 q19 -35 31.5 -77.5t18 -81t2.5 -67t-11 -36.5q-25 -25 -26 -21t-31 18q-11 5 -52 35t-88 69q-57 5 -110 13t-62 14q-16 5 -24 5t-11 3t-4.5 10t-1.5 23z" />
<glyph unicode="&#xeb;" horiz-adv-x="704" d="M-40 -30q-4 55 5 109v3q13 82 51 183q52 139 117.5 225t131 131t130 53.5t113.5 -10.5q46 -19 66.5 -56t26.5 -78q3 -14 4 -30.5t-2 -38.5q-3 -38 -19 -99.5t-59.5 -124t-124.5 -118.5t-214 -81q-5 -46 5.5 -90t62.5 -63q11 -5 25 -5h2l3 -3q49 -5 93 6t80.5 31t65.5 46 t50 51q5 5 9.5 10.5t10.5 11.5q16 22 19 24q30 41 54.5 85t38.5 74q3 11 13 22q19 19 49 16q16 -5 20.5 -13.5t4.5 -19.5t-6 -24q-14 -27 -31.5 -64t-44.5 -81q-11 -27 -52 -85q-5 -8 -12 -17.5t-18 -23.5q-55 -63 -135.5 -124t-189.5 -67q-33 -5 -74 0q-101 11 -157 46.5 t-83 87.5q-25 46 -29 101zM216 150q74 11 125.5 46.5t87 79t53.5 86t20 69.5q5 49 -9.5 59t-20.5 10q-14 0 -35.5 -9.5t-50 -38.5t-64 -83.5t-76.5 -147.5q-11 -22 -18 -38t-12 -33zM353.5 909.5q6.5 32.5 20.5 48.5q19 33 33 50q8 11 11 19q8 14 19 22q22 16 43 2 q11 -8 29 -24.5t31.5 -38t17.5 -46t-7 -46.5q-8 -14 -23 -34.5t-42 -50.5q-8 -14 -24.5 -12.5t-34.5 9.5t-34 20.5t-24 23.5q-22 25 -15.5 57.5zM566.5 830.5q6.5 32.5 20.5 48.5q19 33 33 49q8 11 11 20q8 14 19 21q22 16 43 3q11 -8 29 -24.5t31.5 -38.5t17.5 -46.5 t-7 -46.5q-8 -14 -23 -34t-42 -50q-8 -14 -24.5 -12.5t-34.5 9.5t-34 20.5t-24 23.5q-22 25 -15.5 57.5z" />
<glyph unicode="&#xec;" horiz-adv-x="436" d="M-39.5 -41q-1.5 63 13.5 138t37 149q52 172 150 382q5 16 16 27q8 11 19.5 19.5t24.5 2.5q25 -8 66 -32.5t76 -65.5q11 -11 14 -27q3 -14 -1.5 -36t-20.5 -52q-11 -19 -33 -60t-48 -94t-50.5 -112t-38 -109.5t-11 -86t30.5 -43.5q30 -11 64 17.5t67 71t59 90.5t42 78 q3 11 14 22q19 19 49 16q27 -8 27 -33q0 -11 -5 -24q-16 -35 -48 -94t-71.5 -119t-84.5 -113.5t-94 -80.5q-30 -19 -60 -23.5t-55 -1.5q-30 3 -54 11q-49 22 -71 71t-23.5 112zM189.5 860q-1.5 22 5.5 48t19 50.5t26 40.5q46 52 102.5 30.5t103 -73.5t75 -111t20.5 -75 q-14 -33 -16.5 -30t-35.5 5q-8 0 -43.5 8.5t-79.5 20.5t-87.5 26t-68.5 27q-19 11 -20.5 33z" />
<glyph unicode="&#xed;" horiz-adv-x="436" d="M-39.5 -41q-1.5 63 13.5 138t37 149q52 172 150 382q5 16 16 27q8 11 19.5 19.5t24.5 2.5q25 -8 66 -32.5t76 -65.5q11 -11 14 -27q3 -14 -1.5 -36t-20.5 -52q-11 -19 -33 -60t-48 -94t-50.5 -112t-38 -109.5t-11 -86t30.5 -43.5q30 -11 64 17.5t67 71t59 90.5t42 78 q3 11 14 22q19 19 49 16q27 -8 27 -33q0 -11 -5 -24q-16 -35 -48 -94t-71.5 -119t-84.5 -113.5t-94 -80.5q-30 -19 -60 -23.5t-55 -1.5q-30 3 -54 11q-49 22 -71 71t-23.5 112zM201 937q-4 0 12 32q5 11 38 22t76.5 16.5t91.5 4t87.5 -16.5t61.5 -42.5t14 -73.5 q-5 -19 -16.5 -45t-26.5 -47.5t-34 -34t-38 -4.5q-27 11 -65.5 35.5t-75.5 52t-64 49.5t-35 27q-22 25 -26 25z" />
<glyph unicode="&#xee;" horiz-adv-x="436" d="M-39.5 -41q-1.5 63 13.5 138t37 149q52 172 150 382q5 16 16 27q8 11 19.5 19.5t24.5 2.5q25 -8 66 -32.5t76 -65.5q11 -11 14 -27q3 -14 -1.5 -36t-20.5 -52q-11 -19 -33 -60t-48 -94t-50.5 -112t-38 -109.5t-11 -86t30.5 -43.5q30 -11 64 17.5t67 71t59 90.5t42 78 q3 11 14 22q19 19 49 16q27 -8 27 -33q0 -11 -5 -24q-16 -35 -48 -94t-71.5 -119t-84.5 -113.5t-94 -80.5q-30 -19 -60 -23.5t-55 -1.5q-30 3 -54 11q-49 22 -71 71t-23.5 112zM150 863q0 11 19 33t49 45t70 45t78 33l5 2q46 25 82 3q47 -14 63 -63q0 -3 3 -5 q19 -35 31.5 -77.5t17.5 -81t2.5 -67t-10.5 -36.5q-25 -25 -26.5 -21t-31.5 18q-11 5 -51.5 35t-87.5 69q-57 5 -110.5 13t-61.5 14q-16 5 -24.5 5t-11 3t-4 10t-1.5 23z" />
<glyph unicode="&#xef;" horiz-adv-x="436" d="M-39.5 -41q-1.5 63 13.5 138t37 149q52 172 150 382q5 16 16 27q8 11 19.5 19.5t24.5 2.5q25 -8 66 -32.5t76 -65.5q11 -11 14 -27q3 -14 -1.5 -36t-20.5 -52q-11 -19 -33 -60t-48 -94t-50.5 -112t-38 -109.5t-11 -86t30.5 -43.5q30 -11 64 17.5t67 71t59 90.5t42 78 q3 11 14 22q19 19 49 16q27 -8 27 -33q0 -11 -5 -24q-16 -35 -48 -94t-71.5 -119t-84.5 -113.5t-94 -80.5q-30 -19 -60 -23.5t-55 -1.5q-30 3 -54 11q-49 22 -71 71t-23.5 112zM201 909.5q7 32.5 20 48.5q19 33 33 50q8 11 11 19q8 14 19 22q22 16 44 2q11 -8 28.5 -24.5 t31 -38t18 -46t-6.5 -46.5q-8 -14 -23.5 -34.5t-42.5 -50.5q-8 -14 -24.5 -12.5t-34 9.5t-34 20.5t-24.5 23.5q-22 25 -15 57.5zM414 830.5q7 32.5 20 48.5q19 33 33 49q8 11 11 20q8 14 19 21q22 16 44 3q11 -8 28.5 -24.5t31 -38.5t18 -46.5t-6.5 -46.5q-8 -14 -23.5 -34 t-42.5 -50q-8 -14 -24.5 -12.5t-34 9.5t-34 20.5t-24.5 23.5q-22 25 -15 57.5z" />
<glyph unicode="&#xf1;" horiz-adv-x="884" d="M-71 -158q3 52 14 113t24.5 122.5t28.5 119t29 103.5q14 38 26 74l20 60q3 14 14 41q14 44 28.5 83.5t28.5 69.5q14 33 25 63q0 3 2 5q0 3 6 14q5 11 17.5 22t28.5 5q22 -5 61.5 -25.5t72.5 -58.5q3 -3 8 -11q3 -5 5.5 -13.5t2.5 -19.5q0 -27 -19 -63q0 -3 -1 -4t-1 -4 q-5 -5 -18 -34t-23 -51q-11 -22 -22 -46.5t-17 -40.5q-14 -38 -27 -76t-27 -82q52 90 113 181.5t124 162.5t122 107.5t108 12.5q27 -11 62.5 -33t65.5 -57q11 -14 14 -30q3 -14 -1.5 -36t-20.5 -52q-11 -19 -33 -60t-48 -94t-50.5 -112t-36.5 -109.5t-11 -86t29 -43.5 q30 -8 65.5 19t66.5 71t58.5 91.5t41.5 77.5q3 11 13 22q16 16 50 14q27 -3 27 -30q0 -11 -6 -27q-16 -35 -47.5 -93t-71 -118t-84.5 -114.5t-94 -81.5q-30 -16 -60 -20.5t-55 -1.5q-30 3 -55 11q-68 30 -83 109t-1.5 180t49 206.5t68.5 189.5l-3 -3q-79 -74 -152 -180 q-66 -90 -138.5 -222.5t-135.5 -306.5q-3 -16 -12 -20.5t-15 -4.5q-55 5 -87.5 24.5t-48.5 40.5q-14 14 -14 33q-3 11 0 17zM395 994l5 15q4 15 12 31.5t20.5 30t28.5 13.5q22 0 27.5 -20.5t5.5 -17.5q3 -16 22 -33q14 -14 45 -31.5t86 -33.5q55 -14 102.5 -29t80 -38.5 t50.5 -56t10 -84.5q0 -3 -3 -18t-9.5 -31.5t-19 -30t-31.5 -13.5q-22 0 -27.5 19t-5.5 22q-5 14 -22 30q-14 14 -45 32t-86 34q-68 19 -118.5 34t-82 35.5t-42.5 53t-3 87.5z" />
<glyph unicode="&#xf2;" horiz-adv-x="715" d="M-14 115q5 71 22 135t36 113q22 57 46 107q46 87 101 144q46 49 109 76.5t134 -16.5q27 27 61.5 41t72.5 9q60 -8 90 -52t37 -101.5t-1.5 -120t-19.5 -106.5q71 22 131.5 63t90.5 71q14 14 24 19q11 5 18 2.5t10 -24.5q3 -16 0 -33q-5 -33 -25 -57q-44 -49 -123 -94 t-169 -59q-30 -66 -78 -154.5t-110.5 -165t-140.5 -121.5t-165 -20q-49 14 -79.5 48t-48 81.5t-23 103.5t-0.5 111zM169 -0.5q3 -43.5 14 -65.5q11 -27 33 -32q35 -11 76 16t79.5 76.5t72.5 115t61 133.5q-38 11 -74 41q-46 38 -63.5 92.5t-12.5 112.5q-35 -35 -65.5 -95.5 t-51.5 -123.5q-28 -71 -50 -153q-22 -74 -19 -117.5zM405.5 860q-1.5 22 5.5 48t19 50.5t26 40.5q46 52 102 30.5t102.5 -73.5t75.5 -111t20 -75q-14 -33 -16.5 -30t-35.5 5q-8 0 -43.5 8.5t-79 20.5t-87.5 26t-68 27q-19 11 -20.5 33zM456 475q-3 -33 5.5 -56t22 -39.5 t30 -26t27.5 -12.5q38 123 24 183q-5 19 -21.5 29t-34 5.5t-33 -23.5t-20.5 -60z" />
<glyph unicode="&#xf3;" horiz-adv-x="715" d="M-14 115q5 71 22 135t36 113q22 57 46 107q46 87 101 144q46 49 109 76.5t134 -16.5q27 27 61.5 41t72.5 9q60 -8 90 -52t37 -101.5t-1.5 -120t-19.5 -106.5q71 22 131.5 63t90.5 71q14 14 24 19q11 5 18 2.5t10 -24.5q3 -16 0 -33q-5 -33 -25 -57q-44 -49 -123 -94 t-169 -59q-30 -66 -78 -154.5t-110.5 -165t-140.5 -121.5t-165 -20q-49 14 -79.5 48t-48 81.5t-23 103.5t-0.5 111zM169 -0.5q3 -43.5 14 -65.5q11 -27 33 -32q35 -11 76 16t79.5 76.5t72.5 115t61 133.5q-38 11 -74 41q-46 38 -63.5 92.5t-12.5 112.5q-35 -35 -65.5 -95.5 t-51.5 -123.5q-28 -71 -50 -153q-22 -74 -19 -117.5zM435 937q-4 0 13 32q5 11 38 22t76.5 16.5t91.5 4t87.5 -16.5t61 -42.5t13.5 -73.5q-5 -19 -16 -45t-26 -47.5t-34 -34t-38 -4.5q-27 11 -65.5 35.5t-75.5 52t-64.5 49.5t-35.5 27q-22 25 -26 25zM456 475 q-3 -33 5.5 -56t22 -39.5t30 -26t27.5 -12.5q38 123 24 183q-5 19 -21.5 29t-34 5.5t-33 -23.5t-20.5 -60z" />
<glyph unicode="&#xf4;" horiz-adv-x="715" d="M-14 115q5 71 22 135t36 113q22 57 46 107q46 87 101 144q46 49 109 76.5t134 -16.5q27 27 61.5 41t72.5 9q60 -8 90 -52t37 -101.5t-1.5 -120t-19.5 -106.5q71 22 131.5 63t90.5 71q14 14 24 19q11 5 18 2.5t10 -24.5q3 -16 0 -33q-5 -33 -25 -57q-44 -49 -123 -94 t-169 -59q-30 -66 -78 -154.5t-110.5 -165t-140.5 -121.5t-165 -20q-49 14 -79.5 48t-48 81.5t-23 103.5t-0.5 111zM169 -0.5q3 -43.5 14 -65.5q11 -27 33 -32q35 -11 76 16t79.5 76.5t72.5 115t61 133.5q-38 11 -74 41q-46 38 -63.5 92.5t-12.5 112.5q-35 -35 -65.5 -95.5 t-51.5 -123.5q-28 -71 -50 -153q-22 -74 -19 -117.5zM344 863q0 11 19.5 33t49.5 45t69.5 45t77.5 33l6 2q46 25 82 3q46 -14 62 -63q0 -3 3 -5q19 -35 31.5 -77.5t18 -81t2.5 -67t-11 -36.5q-25 -25 -26 -21t-31 18q-11 5 -52 35t-88 69q-57 5 -110 13t-62 14q-16 5 -24 5 t-11 3t-4.5 10t-1.5 23zM456 475q-3 -33 5.5 -56t22 -39.5t30 -26t27.5 -12.5q38 123 24 183q-5 19 -21.5 29t-34 5.5t-33 -23.5t-20.5 -60z" />
<glyph unicode="&#xf5;" horiz-adv-x="715" d="M-14 115q5 71 22 135t36 113q22 57 46 107q46 87 101 144q46 49 109 76.5t134 -16.5q27 27 61.5 41t72.5 9q60 -8 90 -52t37 -101.5t-1.5 -120t-19.5 -106.5q71 22 131.5 63t90.5 71q14 14 24 19q11 5 18 2.5t10 -24.5q3 -16 0 -33q-5 -33 -25 -57q-44 -49 -123 -94 t-169 -59q-30 -66 -78 -154.5t-110.5 -165t-140.5 -121.5t-165 -20q-49 14 -79.5 48t-48 81.5t-23 103.5t-0.5 111zM169 -0.5q3 -43.5 14 -65.5q11 -27 33 -32q35 -11 76 16t79.5 76.5t72.5 115t61 133.5q-38 11 -74 41q-46 38 -63.5 92.5t-12.5 112.5q-35 -35 -65.5 -95.5 t-51.5 -123.5q-28 -71 -50 -153q-22 -74 -19 -117.5zM338 994l5 15q4 15 12 31.5t20.5 30t28.5 13.5q22 0 27.5 -20.5t5.5 -17.5q3 -16 22 -33q14 -14 45 -31.5t86 -33.5q55 -14 102.5 -29t80 -38.5t50.5 -56t10 -84.5q0 -3 -3 -18t-9.5 -31.5t-19 -30t-31.5 -13.5 q-22 0 -27.5 19t-5.5 22q-5 14 -22 30q-14 14 -45 32t-86 34q-68 19 -118.5 34t-82 35.5t-42.5 53t-3 87.5zM456 475q-3 -33 5.5 -56t22 -39.5t30 -26t27.5 -12.5q38 123 24 183q-5 19 -21.5 29t-34 5.5t-33 -23.5t-20.5 -60z" />
<glyph unicode="&#xf6;" horiz-adv-x="715" d="M-14 115q5 71 22 135t36 113q22 57 46 107q46 87 101 144q46 49 109 76.5t134 -16.5q27 27 61.5 41t72.5 9q60 -8 90 -52t37 -101.5t-1.5 -120t-19.5 -106.5q71 22 131.5 63t90.5 71q14 14 24 19q11 5 18 2.5t10 -24.5q3 -16 0 -33q-5 -33 -25 -57q-44 -49 -123 -94 t-169 -59q-30 -66 -78 -154.5t-110.5 -165t-140.5 -121.5t-165 -20q-49 14 -79.5 48t-48 81.5t-23 103.5t-0.5 111zM169 -0.5q3 -43.5 14 -65.5q11 -27 33 -32q35 -11 76 16t79.5 76.5t72.5 115t61 133.5q-38 11 -74 41q-46 38 -63.5 92.5t-12.5 112.5q-35 -35 -65.5 -95.5 t-51.5 -123.5q-28 -71 -50 -153q-22 -74 -19 -117.5zM408.5 909.5q6.5 32.5 20.5 48.5q19 33 33 50q8 11 11 19q8 14 19 22q22 16 43 2q11 -8 29 -24.5t31.5 -38t17.5 -46t-7 -46.5q-8 -14 -23 -34.5t-42 -50.5q-8 -14 -24.5 -12.5t-34.5 9.5t-34 20.5t-24 23.5 q-22 25 -15.5 57.5zM456 475q-3 -33 5.5 -56t22 -39.5t30 -26t27.5 -12.5q38 123 24 183q-5 19 -21.5 29t-34 5.5t-33 -23.5t-20.5 -60zM621.5 830.5q6.5 32.5 20.5 48.5q19 33 33 49q8 11 11 20q8 14 19 21q22 16 43 3q11 -8 29 -24.5t31.5 -38.5t17.5 -46.5t-7 -46.5 q-8 -14 -23 -34t-42 -50q-8 -14 -24.5 -12.5t-34.5 9.5t-34 20.5t-24 23.5q-22 25 -15.5 57.5z" />
<glyph unicode="&#xf7;" horiz-adv-x="696" d="M60 246q-8 33 12.5 49t54.5 23t79 5.5t92 -4.5q101 -8 169 -12t109 -9.5t59 -17.5t18 -40q-3 -11 -27.5 -17.5t-56 -8t-64.5 -1.5h-52h-347q-27 0 -38 16q-5 8 -8 17zM175 -56q11 45 24 70q14 22 26.5 38t20.5 30l16 24q14 19 27 31q14 11 27.5 15t33.5 -10 q16 -11 39 -35.5t41 -54.5t24.5 -64t-9.5 -64q-11 -16 -31.5 -43.5t-55.5 -74.5q-14 -16 -36 -15t-46.5 13.5t-46 29t-35.5 32.5q-30 33 -19 78zM306 507q11 45 24 69q14 22 26.5 38.5t20.5 29.5l16 25q14 19 28 30t27 15t33 -9q16 -11 39 -36t41 -55t25 -64t-10 -64 q-11 -16 -31.5 -43.5t-55.5 -73.5q-14 -16 -36 -15t-46.5 13.5t-46 29t-35.5 32.5q-30 33 -19 78z" />
<glyph unicode="&#xf9;" horiz-adv-x="876" d="M-41 -52q-5 46 1.5 94t14.5 81q14 49 25 94t22 83q14 38 26 74l20 60q5 11 6.5 20.5t7.5 20.5q14 44 29 83.5t28 69.5q14 33 25 63q0 3 3 5q0 3 5 14t17.5 22t28.5 5q22 -5 61.5 -25.5t72.5 -58.5q3 -3 8 -11q3 -5 6 -13.5t3 -19.5q0 -27 -19 -63q0 -3 -1.5 -4t-1.5 -4 q-5 -5 -17.5 -34t-23.5 -51t-20.5 -46.5t-17.5 -40.5q-19 -52 -37 -108t-37 -119q-8 -22 -17.5 -65.5t-4.5 -73.5q3 -41 22 -49q8 -8 19 -6q38 -5 80.5 44t79.5 114.5t65.5 128.5t36.5 85q22 63 44 119t41 99q22 49 43 93q5 16 17 27q8 11 19 19.5t25 2.5q22 -8 62.5 -32.5 t79.5 -62.5q8 -14 10 -30q3 -14 -1 -36t-20 -52q-11 -19 -33 -60t-48 -94t-50.5 -112t-37 -109.5t-11 -86t28.5 -43.5q33 -8 67 19t67 71t59 91.5t42 77.5q3 11 14 22q16 16 49 14q16 -3 20.5 -11t4.5 -19t-6 -27q-16 -35 -46 -93t-69.5 -118t-86 -114.5t-95.5 -81.5 q-30 -16 -60.5 -20.5t-54.5 -1.5q-30 3 -55 11q-49 22 -69.5 72.5t-23.5 115.5q-63 -87 -138 -144.5t-157 -46.5h-8q-74 11 -103.5 63t-35.5 109zM386.5 860q-1.5 22 5.5 48t19 50.5t26 40.5q46 52 102 30.5t102.5 -73.5t75.5 -111t20 -75q-14 -33 -16.5 -30t-35.5 5 q-8 0 -43.5 8.5t-79 20.5t-87.5 26t-68 27q-19 11 -20.5 33z" />
<glyph unicode="&#xfa;" horiz-adv-x="876" d="M-41 -52q-5 46 1.5 94t14.5 81q14 49 25 94t22 83q14 38 26 74l20 60q5 11 6.5 20.5t7.5 20.5q14 44 29 83.5t28 69.5q14 33 25 63q0 3 3 5q0 3 5 14t17.5 22t28.5 5q22 -5 61.5 -25.5t72.5 -58.5q3 -3 8 -11q3 -5 6 -13.5t3 -19.5q0 -27 -19 -63q0 -3 -1.5 -4t-1.5 -4 q-5 -5 -17.5 -34t-23.5 -51t-20.5 -46.5t-17.5 -40.5q-19 -52 -37 -108t-37 -119q-8 -22 -17.5 -65.5t-4.5 -73.5q3 -41 22 -49q8 -8 19 -6q38 -5 80.5 44t79.5 114.5t65.5 128.5t36.5 85q22 63 44 119t41 99q22 49 43 93q5 16 17 27q8 11 19 19.5t25 2.5q22 -8 62.5 -32.5 t79.5 -62.5q8 -14 10 -30q3 -14 -1 -36t-20 -52q-11 -19 -33 -60t-48 -94t-50.5 -112t-37 -109.5t-11 -86t28.5 -43.5q33 -8 67 19t67 71t59 91.5t42 77.5q3 11 14 22q16 16 49 14q16 -3 20.5 -11t4.5 -19t-6 -27q-16 -35 -46 -93t-69.5 -118t-86 -114.5t-95.5 -81.5 q-30 -16 -60.5 -20.5t-54.5 -1.5q-30 3 -55 11q-49 22 -69.5 72.5t-23.5 115.5q-63 -87 -138 -144.5t-157 -46.5h-8q-74 11 -103.5 63t-35.5 109zM386 937q-4 0 13 32q5 11 38 22t76.5 16.5t91.5 4t87.5 -16.5t61 -42.5t13.5 -73.5q-5 -19 -16 -45t-26 -47.5t-34 -34 t-38 -4.5q-27 11 -65.5 35.5t-75.5 52t-64.5 49.5t-35.5 27q-22 25 -26 25z" />
<glyph unicode="&#xfb;" horiz-adv-x="876" d="M-41 -52q-5 46 1.5 94t14.5 81q14 49 25 94t22 83q14 38 26 74l20 60q5 11 6.5 20.5t7.5 20.5q14 44 29 83.5t28 69.5q14 33 25 63q0 3 3 5q0 3 5 14t17.5 22t28.5 5q22 -5 61.5 -25.5t72.5 -58.5q3 -3 8 -11q3 -5 6 -13.5t3 -19.5q0 -27 -19 -63q0 -3 -1.5 -4t-1.5 -4 q-5 -5 -17.5 -34t-23.5 -51t-20.5 -46.5t-17.5 -40.5q-19 -52 -37 -108t-37 -119q-8 -22 -17.5 -65.5t-4.5 -73.5q3 -41 22 -49q8 -8 19 -6q38 -5 80.5 44t79.5 114.5t65.5 128.5t36.5 85q22 63 44 119t41 99q22 49 43 93q5 16 17 27q8 11 19 19.5t25 2.5q22 -8 62.5 -32.5 t79.5 -62.5q8 -14 10 -30q3 -14 -1 -36t-20 -52q-11 -19 -33 -60t-48 -94t-50.5 -112t-37 -109.5t-11 -86t28.5 -43.5q33 -8 67 19t67 71t59 91.5t42 77.5q3 11 14 22q16 16 49 14q16 -3 20.5 -11t4.5 -19t-6 -27q-16 -35 -46 -93t-69.5 -118t-86 -114.5t-95.5 -81.5 q-30 -16 -60.5 -20.5t-54.5 -1.5q-30 3 -55 11q-49 22 -69.5 72.5t-23.5 115.5q-63 -87 -138 -144.5t-157 -46.5h-8q-74 11 -103.5 63t-35.5 109zM371 863q0 11 19.5 33t49.5 45t69.5 45t77.5 33l6 2q46 25 82 3q46 -14 62 -63q0 -3 3 -5q19 -35 31.5 -77.5t18 -81t2.5 -67 t-11 -36.5q-25 -25 -26 -21t-31 18q-11 5 -52 35t-88 69q-57 5 -110 13t-62 14q-16 5 -24 5t-11 3t-4.5 10t-1.5 23z" />
<glyph unicode="&#xfc;" horiz-adv-x="876" d="M-41 -52q-5 46 1.5 94t14.5 81q14 49 25 94t22 83q14 38 26 74l20 60q5 11 6.5 20.5t7.5 20.5q14 44 29 83.5t28 69.5q14 33 25 63q0 3 3 5q0 3 5 14t17.5 22t28.5 5q22 -5 61.5 -25.5t72.5 -58.5q3 -3 8 -11q3 -5 6 -13.5t3 -19.5q0 -27 -19 -63q0 -3 -1.5 -4t-1.5 -4 q-5 -5 -17.5 -34t-23.5 -51t-20.5 -46.5t-17.5 -40.5q-19 -52 -37 -108t-37 -119q-8 -22 -17.5 -65.5t-4.5 -73.5q3 -41 22 -49q8 -8 19 -6q38 -5 80.5 44t79.5 114.5t65.5 128.5t36.5 85q22 63 44 119t41 99q22 49 43 93q5 16 17 27q8 11 19 19.5t25 2.5q22 -8 62.5 -32.5 t79.5 -62.5q8 -14 10 -30q3 -14 -1 -36t-20 -52q-11 -19 -33 -60t-48 -94t-50.5 -112t-37 -109.5t-11 -86t28.5 -43.5q33 -8 67 19t67 71t59 91.5t42 77.5q3 11 14 22q16 16 49 14q16 -3 20.5 -11t4.5 -19t-6 -27q-16 -35 -46 -93t-69.5 -118t-86 -114.5t-95.5 -81.5 q-30 -16 -60.5 -20.5t-54.5 -1.5q-30 3 -55 11q-49 22 -69.5 72.5t-23.5 115.5q-63 -87 -138 -144.5t-157 -46.5h-8q-74 11 -103.5 63t-35.5 109zM400.5 909.5q6.5 32.5 20.5 48.5q19 33 33 50q8 11 11 19q8 14 19 22q22 16 43 2q11 -8 29 -24.5t31.5 -38t17.5 -46t-7 -46.5 q-8 -14 -23 -34.5t-42 -50.5q-8 -14 -24.5 -12.5t-34.5 9.5t-34 20.5t-24 23.5q-22 25 -15.5 57.5zM613.5 830.5q6.5 32.5 20.5 48.5q19 33 33 49q8 11 11 20q8 14 19 21q22 16 43 3q11 -8 29 -24.5t31.5 -38.5t17.5 -46.5t-7 -46.5q-8 -14 -23 -34t-42 -50 q-8 -14 -24.5 -12.5t-34.5 9.5t-34 20.5t-24 23.5q-22 25 -15.5 57.5z" />
<glyph unicode="&#xfd;" horiz-adv-x="862" d="M-41 -55q-3 46 4 94t12 81q27 104 50 178q11 38 23 73.5t20 62.5q11 19 14 38q14 44 29 83.5t28 69.5q14 33 25 63q0 3 3 6q0 2 5 13q8 11 20.5 22t28.5 6q22 -5 60 -26t74 -56q3 -3 5 -11q3 -5 6 -15t3 -21q0 -14 -3 -28.5t-16 -34.5q0 -5 -3 -8q-3 -5 -16.5 -34 t-24.5 -50q-8 -22 -19 -46.5t-17 -41.5q-19 -52 -38 -108t-38 -118q-5 -22 -16 -66t-6 -74q3 -22 9.5 -31.5t15.5 -14.5q11 -8 19 -8q38 -5 80.5 45t79 115.5t64 128.5t35.5 85q22 63 44 119t41 99q22 49 43 90q5 16 17 28q8 11 19 19t25 2q25 -8 65.5 -32.5t76.5 -62.5 q11 -14 13 -30q3 -14 -1 -35.5t-21 -52.5q-8 -14 -25.5 -46.5t-38 -74.5t-44 -90t-39.5 -94q-14 -41 -30 -107q-3 -14 -4.5 -26t-6.5 -26l8 8q25 25 49.5 48t48.5 45q52 46 100 84.5t78 60.5q14 8 25 11q25 5 35 -19q5 -27 -8 -52q-8 -11 -17 -19q-25 -19 -61.5 -48 t-71.5 -67q-38 -35 -75 -73.5t-76 -84.5q-14 -14 -24.5 -30.5t-24.5 -32.5q0 -14 1.5 -30t1.5 -33q3 -14 4 -30t4 -30q11 -82 14 -170.5t-8 -174.5t-34.5 -162.5t-64.5 -131.5q-3 -8 -19 -24q-8 -11 -24 -28q-3 0 -3 -3q-30 -22 -67 -39.5t-83 -14.5q-41 3 -70 13.5 t-45 21.5q-11 5 -19 13.5t-16 16.5q-38 49 -33 131t40.5 183t98.5 212t139 217q-14 128 -8 197q-63 -87 -138 -143.5t-160 -45.5h-5q-76 11 -106 63t-36 109zM250 -871.5q4 -35.5 31 -51.5q11 -11 38 -11q41 0 70 19t46.5 50.5t26 72.5t10.5 85q6 100 -16 226q-5 22 -8 40 t-8 40q-55 -87 -94.5 -165t-66.5 -139q-3 -5 -12.5 -33.5t-15 -63t-1.5 -70zM364 937q-4 0 13 32q5 11 38 22t76.5 16.5t91.5 4t87.5 -16.5t61 -42.5t13.5 -73.5q-5 -19 -16 -45t-26 -47.5t-34 -34t-38 -4.5q-27 11 -65.5 35.5t-75.5 52t-64.5 49.5t-35.5 27q-22 25 -26 25z " />
<glyph unicode="&#xff;" horiz-adv-x="862" d="M-41 -55q-3 46 4 94t12 81q27 104 50 178q11 38 23 73.5t20 62.5q11 19 14 38q14 44 29 83.5t28 69.5q14 33 25 63q0 3 3 6q0 2 5 13q8 11 20.5 22t28.5 6q22 -5 60 -26t74 -56q3 -3 5 -11q3 -5 6 -15t3 -21q0 -14 -3 -28.5t-16 -34.5q0 -5 -3 -8q-3 -5 -16.5 -34 t-24.5 -50q-8 -22 -19 -46.5t-17 -41.5q-19 -52 -38 -108t-38 -118q-5 -22 -16 -66t-6 -74q3 -22 9.5 -31.5t15.5 -14.5q11 -8 19 -8q38 -5 80.5 45t79 115.5t64 128.5t35.5 85q22 63 44 119t41 99q22 49 43 90q5 16 17 28q8 11 19 19t25 2q25 -8 65.5 -32.5t76.5 -62.5 q11 -14 13 -30q3 -14 -1 -35.5t-21 -52.5q-8 -14 -25.5 -46.5t-38 -74.5t-44 -90t-39.5 -94q-14 -41 -30 -107q-3 -14 -4.5 -26t-6.5 -26l8 8q25 25 49.5 48t48.5 45q52 46 100 84.5t78 60.5q14 8 25 11q25 5 35 -19q5 -27 -8 -52q-8 -11 -17 -19q-25 -19 -61.5 -48 t-71.5 -67q-38 -35 -75 -73.5t-76 -84.5q-14 -14 -24.5 -30.5t-24.5 -32.5q0 -14 1.5 -30t1.5 -33q3 -14 4 -30t4 -30q11 -82 14 -170.5t-8 -174.5t-34.5 -162.5t-64.5 -131.5q-3 -8 -19 -24q-8 -11 -24 -28q-3 0 -3 -3q-30 -22 -67 -39.5t-83 -14.5q-41 3 -70 13.5 t-45 21.5q-11 5 -19 13.5t-16 16.5q-38 49 -33 131t40.5 183t98.5 212t139 217q-14 128 -8 197q-63 -87 -138 -143.5t-160 -45.5h-5q-76 11 -106 63t-36 109zM250 -871.5q4 -35.5 31 -51.5q11 -11 38 -11q41 0 70 19t46.5 50.5t26 72.5t10.5 85q6 100 -16 226q-5 22 -8 40 t-8 40q-55 -87 -94.5 -165t-66.5 -139q-3 -5 -12.5 -33.5t-15 -63t-1.5 -70zM369.5 909.5q6.5 32.5 20.5 48.5q19 33 33 50q8 11 11 19q8 14 19 22q22 16 43 2q11 -8 29 -24.5t31.5 -38t17.5 -46t-7 -46.5q-8 -14 -23 -34.5t-42 -50.5q-8 -14 -24.5 -12.5t-34.5 9.5 t-34 20.5t-24 23.5q-22 25 -15.5 57.5zM582.5 830.5q6.5 32.5 20.5 48.5q19 33 33 49q8 11 11 20q8 14 19 21q22 16 43 3q11 -8 29 -24.5t31.5 -38.5t17.5 -46.5t-7 -46.5q-8 -14 -23 -34t-42 -50q-8 -14 -24.5 -12.5t-34.5 9.5t-34 20.5t-24 23.5q-22 25 -15.5 57.5z" />
<glyph unicode="&#x153;" horiz-adv-x="1198" d="M-14 115q5 71 22 135t36 113q22 57 46 107q46 87 101 144q46 49 109 76.5t134 -16.5q27 27 61.5 41t72.5 9q63 -11 91.5 -55t34.5 -104q82 82 165 101t146 -2q46 -19 66.5 -56t26.5 -78q3 -14 4 -30.5t-2 -38.5q-3 -38 -19 -99.5t-59.5 -124t-124.5 -118.5t-214 -81 q-5 -46 5.5 -90t62.5 -63q11 -5 25 -5h2l3 -3q49 -5 93 6t80.5 31t65.5 46t50 51l20 22l19 24q30 41 54.5 85t37.5 74q3 11 14 22q19 19 49 16q16 -5 20.5 -13.5t4.5 -19.5t-6 -24q-14 -27 -31.5 -64t-44.5 -81q-11 -27 -52 -85l-30 -41q-55 -63 -135.5 -124t-189.5 -67 q-33 -5 -74 0q-101 11 -157 46.5t-83 87.5q-16 30 -25 68q-68 -87 -148.5 -139t-175.5 -27q-49 14 -79.5 48t-48 81.5t-23 103.5t-0.5 111zM169 -0.5q3 -43.5 14 -65.5q11 -27 33 -32q35 -11 74.5 15t78 75t72.5 113t61 130q0 5 3 8q-38 11 -74 41q-46 38 -63.5 92.5 t-12.5 112.5q-35 -35 -65.5 -95.5t-51.5 -123.5q-28 -71 -50 -153q-22 -74 -19 -117.5zM456 475q-3 -33 5.5 -56t22 -39.5t30 -26t27.5 -12.5q38 123 24 183q-5 19 -21.5 29t-34 5.5t-33 -23.5t-20.5 -60zM713 150q74 11 125.5 46.5t87 79t53.5 86t20 69.5q5 49 -9.5 59 t-20.5 10q-14 0 -35.5 -9.5t-50 -38.5t-64 -83.5t-76.5 -147.5q-11 -22 -18 -38t-12 -33z" />
<glyph unicode="&#x178;" horiz-adv-x="2280" d="M136.5 1526q2.5 33 16.5 69q14 30 35.5 39.5t43.5 3.5q22 -5 38 -30q8 -11 14 -24q30 -44 82 -77q46 -30 117 -50.5t186 -14.5q126 5 238 25.5t218.5 37t207.5 22t204 -16.5q22 -5 72.5 -25.5t90 -70t46.5 -131.5t-61 -207q-96 -172 -158.5 -315.5t-84.5 -203.5 q-16 -41 -31.5 -83.5t-28.5 -80.5q-11 -30 -34.5 -105t-36.5 -162q0 -3 -1.5 -3t-1.5 -3q-19 -101 -11 -155.5t25 -81.5q19 -30 49 -41q76 -14 162 51.5t168 168t153 224t123 216.5q22 44 42.5 93t39.5 94.5t31.5 79t17.5 47.5q33 98 60 198t52 201q14 57 25 118.5t32 116.5 q14 35 45.5 55.5t69.5 30.5t79 7t74 -11q30 -11 32.5 -46.5t-2.5 -60.5q-46 -139 -95.5 -275.5t-101.5 -275.5q-35 -93 -72 -197t-75 -209t-82 -208.5t-90 -199.5q-25 -60 -68.5 -153t-105 -202t-138 -225t-169.5 -220q-52 -63 -155.5 -154.5t-259.5 -154.5 q-101 -41 -222.5 -61t-266.5 -4q-126 11 -205 53t-124 97t-61 117.5t-19 120.5q-3 82 15 139t34 90q14 22 29 44t37 43q46 52 117 93t175 55q66 14 153 8q79 -3 155.5 -15t149.5 -37q25 -11 58 -34t22 -56q-14 -30 -37 -63t-53 -58.5t-65.5 -40.5t-71.5 -10q-19 5 -37 9.5 t-37 9.5q-74 19 -143.5 19t-126.5 -23t-98 -68t-55 -119q-11 -49 -1.5 -86t28.5 -63t44 -42.5t49 -24.5q8 -3 52 -12.5t116.5 -6.5t165 30t196.5 98q25 16 49.5 35.5t48.5 41.5q63 52 123 120t116 144.5t108 157t98 160.5q-71 -63 -152.5 -97t-177.5 -26q-90 11 -148 41 q-90 49 -120 133.5t-30 173.5t19.5 162.5t27.5 98.5q0 3 1 4t1 4v3q38 106 89 227.5t114 252.5q35 76 81 172q14 25 32 59t37 70q8 14 17.5 30t20.5 35q3 5 11 20.5t19 34.5t19 35.5t14 21.5q14 22 15 38.5t-2 24.5q-3 5 -2.5 8t-2.5 5q-8 14 -22 22.5t-52 10.5 q-38 3 -140.5 -27t-237.5 -67t-285.5 -67t-285.5 -27t-240 50.5t-146 167.5q-8 30 -14 60q-5 27 -2.5 60zM1836.5 1742.5q6.5 32.5 20.5 48.5q19 33 33 50q8 11 11 19q8 14 19 22q22 16 43 2q11 -8 29 -24.5t31.5 -38t17.5 -46t-7 -46.5q-8 -14 -23 -34.5t-42 -50.5 q-8 -14 -24.5 -12.5t-34.5 9.5t-34 20.5t-24 23.5q-22 25 -15.5 57.5zM2049.5 1663.5q6.5 32.5 20.5 48.5q19 33 33 49q8 11 11 20q8 14 19 21q22 16 43 3q11 -8 29 -24.5t31.5 -38.5t17.5 -46.5t-7 -46.5q-8 -14 -23 -34t-42 -50q-8 -14 -24.5 -12.5t-34.5 9.5t-34 20.5 t-24 23.5q-22 25 -15.5 57.5z" />
<glyph unicode="&#x2c6;" horiz-adv-x="510" d="M35 863q0 11 19.5 33t49.5 45t69.5 45t77.5 33l6 2q46 25 82 3q46 -14 62 -63q0 -3 3 -5q19 -35 31.5 -77.5t18 -81t2.5 -67t-11 -36.5q-25 -25 -26 -21t-31 18q-11 5 -52 35t-88 69q-57 5 -110 13t-62 14q-16 5 -24 5t-11 3t-4.5 10t-1.5 23z" />
<glyph unicode="&#x2dc;" horiz-adv-x="565" d="M35 994l5 15q4 15 12 31.5t20.5 30t28.5 13.5q22 0 27.5 -20.5t5.5 -17.5q3 -16 22 -33q14 -14 45 -31.5t86 -33.5q55 -14 102.5 -29t80 -38.5t50.5 -56t10 -84.5q0 -3 -3 -18t-9.5 -31.5t-19 -30t-31.5 -13.5q-22 0 -27.5 19t-5.5 22q-5 14 -22 30q-14 14 -45 32t-86 34 q-68 19 -118.5 34t-82 35.5t-42.5 53t-3 87.5z" />
<glyph unicode="&#x2000;" horiz-adv-x="1028" />
<glyph unicode="&#x2001;" horiz-adv-x="2056" />
<glyph unicode="&#x2002;" horiz-adv-x="1028" />
<glyph unicode="&#x2003;" horiz-adv-x="2056" />
<glyph unicode="&#x2004;" horiz-adv-x="685" />
<glyph unicode="&#x2005;" horiz-adv-x="514" />
<glyph unicode="&#x2006;" horiz-adv-x="342" />
<glyph unicode="&#x2007;" horiz-adv-x="342" />
<glyph unicode="&#x2008;" horiz-adv-x="257" />
<glyph unicode="&#x2009;" horiz-adv-x="411" />
<glyph unicode="&#x200a;" horiz-adv-x="114" />
<glyph unicode="&#x2010;" horiz-adv-x="696" d="M60 246q-8 33 12.5 49t54.5 23t79 5.5t92 -4.5q101 -8 169 -12t109 -9.5t59 -17.5t18 -40q-3 -11 -27.5 -17.5t-56 -8t-64.5 -1.5h-52h-347q-27 0 -38 16q-5 8 -8 17z" />
<glyph unicode="&#x2011;" horiz-adv-x="696" d="M60 246q-8 33 12.5 49t54.5 23t79 5.5t92 -4.5q101 -8 169 -12t109 -9.5t59 -17.5t18 -40q-3 -11 -27.5 -17.5t-56 -8t-64.5 -1.5h-52h-347q-27 0 -38 16q-5 8 -8 17z" />
<glyph unicode="&#x2012;" horiz-adv-x="696" d="M60 246q-8 33 12.5 49t54.5 23t79 5.5t92 -4.5q101 -8 169 -12t109 -9.5t59 -17.5t18 -40q-3 -11 -27.5 -17.5t-56 -8t-64.5 -1.5h-52h-347q-27 0 -38 16q-5 8 -8 17z" />
<glyph unicode="&#x2013;" horiz-adv-x="1124" d="M61 246q-14 33 21.5 49t94 23t135.5 5.5t158 -4.5q174 -8 291 -12t187.5 -9.5t101.5 -17.5t31 -40q-5 -11 -47 -17.5t-96.5 -8t-111 -1.5h-89.5h-597q-46 0 -65 16q-9 8 -14 17z" />
<glyph unicode="&#x2014;" horiz-adv-x="2148" d="M65 246q-28 33 42.5 49t187.5 23t272 5.5t317 -4.5q347 -8 581 -12t375 -9.5t203 -17.5t62 -40q-10 -11 -94.5 -17.5t-193 -8t-222 -1.5h-178.5h-1194q-93 0 -131 16q-17 8 -27 17z" />
<glyph unicode="&#x2019;" horiz-adv-x="671" d="M942 1275q3 3 8 33q3 8 12.5 43.5t24.5 78t31.5 84.5t32.5 67q11 19 33 19t48 -8t49.5 -23t39.5 -29q33 -33 31.5 -68.5t-26.5 -69.5t-63 -62.5t-77.5 -49t-71 -30t-42.5 -4.5q-33 16 -30 19z" />
<glyph unicode="&#x202f;" horiz-adv-x="411" />
<glyph unicode="&#x205f;" horiz-adv-x="514" />
<glyph unicode="&#x25fc;" horiz-adv-x="832" d="M0 0v833h833v-833h-833z" />
</font>
</defs>
</svg>
